<?xml version="1.0" encoding="UTF-8" standalone="no"?>
<!-- Generator: Adobe Illustrator 19.0.0, SVG Export Plug-In . SVG Version: 6.00 Build 0)  -->

<svg
   xmlns:dc="http://purl.org/dc/elements/1.1/"
   xmlns:cc="http://creativecommons.org/ns#"
   xmlns:rdf="http://www.w3.org/1999/02/22-rdf-syntax-ns#"
   xmlns:svg="http://www.w3.org/2000/svg"
   xmlns="http://www.w3.org/2000/svg"
   xmlns:sodipodi="http://sodipodi.sourceforge.net/DTD/sodipodi-0.dtd"
   xmlns:inkscape="http://www.inkscape.org/namespaces/inkscape"
   version="1.1"
   id="Capa_1"
   x="0px"
   y="0px"
   viewBox="0 0 385.344 385.344"
   style="enable-background:new 0 0 385.344 385.344;"
   xml:space="preserve"
   sodipodi:docname="light_rain.svg"
   inkscape:version="0.92.3 (d244b95, 2018-08-02)"><metadata
   id="metadata43"><rdf:RDF><cc:Work
       rdf:about=""><dc:format>image/svg+xml</dc:format><dc:type
         rdf:resource="http://purl.org/dc/dcmitype/StillImage" /></cc:Work></rdf:RDF></metadata><defs
   id="defs41"><linearGradient
     y2="573.14111"
     x2="1657.1016"
     y1="573.14111"
     x1="927.60059"
     gradientUnits="userSpaceOnUse"
     id="SVGID_9_"
     gradientTransform="translate(-394.0046,155.55168)"><stop
       id="stop1695"
       style="stop-color:#DAF5FD"
       offset="0" /><stop
       id="stop1697"
       style="stop-color:#00C9FC"
       offset="1" /></linearGradient><linearGradient
     y2="644.29352"
     x2="1590.3828"
     y1="644.29352"
     x1="927.60059"
     gradientUnits="userSpaceOnUse"
     id="SVGID_20_"
     gradientTransform="translate(-394.0046,155.55168)"><stop
       id="stop1788"
       style="stop-color:#ABEBFE"
       offset="0" /><stop
       id="stop1790"
       style="stop-color:#00C9FC"
       offset="1" /></linearGradient><radialGradient
     gradientUnits="userSpaceOnUse"
     r="477.28091"
     cy="556.91553"
     cx="1392.5527"
     id="SVGID_21_"
     gradientTransform="translate(-394.0046,155.55168)"><stop
       id="stop1795"
       style="stop-color:#FFFFFF"
       offset="0" /><stop
       id="stop1797"
       style="stop-color:#FFFFFF;stop-opacity:0"
       offset="1" /></radialGradient><linearGradient
     y2="788.78967"
     x2="1148.8981"
     y1="413.84521"
     x1="1533.6064"
     gradientUnits="userSpaceOnUse"
     id="SVGID_22_"
     gradientTransform="translate(-394.0046,155.55168)"><stop
       id="stop1802"
       style="stop-color:#00C9FC"
       offset="0" /><stop
       id="stop1804"
       style="stop-color:#017BC0"
       offset="1" /></linearGradient></defs><sodipodi:namedview
   pagecolor="#ffffff"
   bordercolor="#666666"
   borderopacity="1"
   objecttolerance="10"
   gridtolerance="10"
   guidetolerance="10"
   inkscape:pageopacity="0"
   inkscape:pageshadow="2"
   inkscape:window-width="1301"
   inkscape:window-height="744"
   id="namedview39"
   showgrid="false"
   inkscape:zoom="0.86612068"
   inkscape:cx="89.243233"
   inkscape:cy="-57.166137"
   inkscape:window-x="65"
   inkscape:window-y="24"
   inkscape:window-maximized="1"
   inkscape:current-layer="g6"
   inkscape:snap-global="false" />
<g
   id="g6">
	
	<path
   style="fill:#87cdde"
   d="m 221.582,264.63652 16.4013,31.17466 c 1.87768,3.56899 5.96424,8.2702 2.65024,10.5682 -3.314,2.298 -4.85336,-2.2482 -4.85336,-2.2482 v 0 l -20.60849,-39.49466 z m -48.49992,-0.0918 28.36891,48.81415 c 2.02635,3.48673 6.57655,7.6579 3.26255,9.9559 -3.314,2.298 -4.85336,-1.02359 -4.85336,-1.02359 v 0 l -33.20893,-57.74975 z m -47.96368,-0.0102 c 0,0 12.65399,26.53268 18.31765,36.68647 3.95846,6.11898 -2.16848,9.00721 -5.03792,2.70613 -6.04509,-12.16598 -13.18539,-26.53171 -19.60175,-39.44217 z m 145.10359,-10e-6 28.1008,48.4162 c 2.18701,3.7681 6.60112,7.64814 3.16049,9.7518 -2.0894,1.27749 -4.34311,-0.41129 -4.34311,-0.41129 v 0 c 0,0 -22.80663,-37.44743 -32.96028,-56.9403 z"
   id="path4"
   inkscape:connector-curvature="0"
   sodipodi:nodetypes="csssscccssssccccccccsssscc" />
<path
   id="path1693"
   d="m 375.0998,132.33147 c -5.91489,-14.22309 -16.42316,-25.13991 -29.08795,-31.75143 -1.78487,-33.553203 -29.55596,-60.210934 -63.55308,-60.210934 -22.14428,0 -41.64459,11.311023 -53.04531,28.468739 -9.97313,-7.446022 -22.34729,-11.855389 -35.75072,-11.855389 -27.46508,0 -50.60381,18.50995 -57.62847,43.735474 -9.63121,-6.646873 -21.56913,-10.05874 -34.12628,-8.821837 -24.861063,2.448174 -43.807758,22.268337 -46.028348,46.251317 -4.509336,-2.05858 -9.516406,-3.2145 -14.796685,-3.2145 -19.707389,0 -35.6840764,15.97668 -35.6840764,35.68459 0,19.7079 15.9766874,35.6846 35.6840764,35.6846 8.020649,0 15.42308,-2.64758 21.382567,-7.11436 10.431393,20.5424 31.758589,34.61891 56.375156,34.61891 19.60025,0 37.11628,-8.92489 48.70768,-22.93217 11.15007,17.93174 31.02713,29.87172 53.69734,29.87172 24.56734,0 45.8597,-14.02061 56.31312,-34.49588 17.41095,13.70846 41.52414,17.84769 63.4393,8.73521 32.23993,-13.40704 47.50819,-50.4126 34.10168,-82.65406 z"
   inkscape:connector-curvature="0"
   style="fill:#00c9fc;stroke-width:1" /><path
   id="path1700"
   d="m 375.0998,132.33147 c -5.91489,-14.22309 -16.42316,-25.13991 -29.08795,-31.75143 -1.78487,-33.553203 -29.55596,-60.210934 -63.55308,-60.210934 -22.14428,0 -41.64459,11.311023 -53.04531,28.468739 -9.97313,-7.446022 -22.34729,-11.855389 -35.75072,-11.855389 -27.46508,0 -50.60381,18.50995 -57.62847,43.735474 -9.63121,-6.646873 -21.56913,-10.05874 -34.12628,-8.821837 -24.861063,2.448174 -43.807758,22.268337 -46.028348,46.251317 -4.509336,-2.05858 -9.516406,-3.2145 -14.796685,-3.2145 -19.707389,0 -35.6840764,15.97668 -35.6840764,35.68459 0,19.7079 15.8577704,26.45115 35.5651594,26.45115 8.020127,0 18.066039,-9.3252 24.025526,-13.79199 10.43087,20.54242 30.341762,29.16075 54.958324,29.16075 19.60025,0 37.11629,-14.2641 48.70769,-28.27088 11.15006,17.93174 30.27513,37.1778 52.94534,37.1778 24.56736,0 43.38181,-21.1519 53.83523,-41.62767 17.41044,13.70894 39.03854,28.68966 60.95369,19.57717 32.24045,-13.40754 52.11647,-34.7209 38.70996,-66.96236 z"
   inkscape:connector-curvature="0"
   style="fill:url(#SVGID_9_);stroke-width:1" /><path
   id="path1702"
   d="m 375.0998,132.33147 c -5.91489,-14.22309 -16.42316,-25.13991 -29.08795,-31.75143 -1.78487,-33.553203 -25.98929,-55.09417 -59.98641,-55.09417 -22.14429,0 -43.67962,19.637178 -55.08034,36.794371 -9.97363,-7.446002 -22.34779,-11.855389 -35.75123,-11.855389 -27.46455,0 -53.23291,21.643474 -54.12279,50.563318 -9.63123,-6.64689 -23.48166,-12.80475 -36.03881,-11.56785 -24.861061,2.44818 -37.377195,23.62366 -39.597765,47.60664 -35.518527,-22.4616 -48.49599,2.22417 -48.49599,12.4572 0,10.23403 9.43182,26.53521 29.139209,26.53521 8.020649,0 12.952355,-8.27542 18.911842,-12.74169 10.43087,20.54242 30.341762,29.16074 54.958324,29.16074 19.60025,0 37.11629,-14.2641 48.70769,-28.27088 11.15006,17.93176 30.27513,37.1778 52.94534,37.1778 24.56736,0 43.38181,-21.15188 53.83523,-41.62766 17.41044,13.70894 39.03854,28.68966 60.95369,19.57718 32.24045,-13.40857 52.11647,-34.72193 38.70996,-66.96339 z"
   inkscape:connector-curvature="0"
   style="fill:#daf5fd;stroke-width:1" /><path
   id="path1793"
   d="m 138.16772,94.463706 c -0.81862,2.033478 -1.53883,4.117191 -2.13395,6.254224 -4.26329,-2.942325 -8.98126,-5.246959 -14.00166,-6.800139 -11.17363,-0.07478 -22.795289,0.463383 -34.869041,1.693117 -17.317143,7.231242 -29.528274,23.578532 -31.283427,42.536002 -4.509336,-2.05861 -9.516406,-3.21451 -14.796685,-3.21451 -19.707389,0 -35.6840764,15.97669 -35.6840764,35.68458 0,19.70791 15.9766874,35.6846 35.6840764,35.6846 8.020649,0 15.42308,-2.64757 21.382567,-7.11436 10.431393,20.54242 31.758589,34.6189 56.375156,34.6189 19.60025,0 37.11628,-8.92486 48.70768,-22.93214 11.15007,17.93174 31.02713,29.87171 53.69734,29.87171 24.56734,0 45.8597,-14.0206 56.31312,-34.49588 17.41095,13.70844 41.52414,17.84768 63.4393,8.7352 1.41425,-0.58743 2.79367,-1.22458 4.1423,-1.90121 -21.4533,-32.05131 -86.30069,-111.26635 -206.9727,-118.620094 z"
   inkscape:connector-curvature="0"
   style="opacity:0.5;fill:url(#SVGID_20_);stroke-width:1" /><path
   id="path1800"
   d="m 375.0998,132.33147 c -5.91489,-14.22309 -16.42316,-25.13991 -29.08795,-31.75143 -1.78487,-33.553203 -29.55596,-60.210934 -63.55308,-60.210934 -22.14428,0 -41.64459,11.311023 -53.04531,28.468739 -9.97313,-7.446022 -22.34729,-11.855389 -35.75072,-11.855389 -27.46508,0 -50.60381,18.50995 -57.62847,43.735474 -9.63121,-6.646873 -21.56913,-10.05874 -34.12628,-8.821837 -24.861063,2.448174 -43.807758,22.268337 -46.028348,46.251317 -4.509336,-2.05858 -9.516406,-3.2145 -14.796685,-3.2145 -19.707389,0 -35.6840764,15.97668 -35.6840764,35.68459 0,19.7079 15.9766874,35.6846 35.6840764,35.6846 8.020649,0 15.42308,-2.64758 21.382567,-7.11436 10.431393,20.5424 31.758589,34.61891 56.375156,34.61891 19.60025,0 37.11628,-8.92489 48.70768,-22.93217 11.15007,17.93174 31.02713,29.87172 53.69734,29.87172 24.56734,0 45.8597,-14.02061 56.31312,-34.49588 17.41095,13.70846 41.52414,17.84769 63.4393,8.73521 32.23993,-13.40704 47.50819,-50.4126 34.10168,-82.65406 z"
   inkscape:connector-curvature="0"
   style="opacity:0.8;fill:#ececec;stroke-width:1" /><path
   id="path1807"
   d="m 221.24518,245.75226 c -21.543,0 -41.37855,-9.92599 -54.24221,-26.85252 -12.74374,12.72733 -29.96196,19.91295 -48.16282,19.91295 -23.971683,0 -45.777161,-12.33315 -58.141558,-32.53314 -5.976401,3.30371 -12.661205,5.0286 -19.616139,5.0286 -22.436484,0 -40.68961511,-18.25315 -40.68961511,-40.69014 0,-22.43697 18.25313111,-40.69012 40.68961511,-40.69012 3.675332,0 7.274292,0.48338 10.761504,1.44246 4.966055,-23.7595 24.922049,-42.027515 49.572963,-44.455695 1.84791,-0.18192 3.72198,-0.274237 5.5699,-0.274237 9.23192,0 18.20444,2.248779 26.29019,6.550002 9.61072,-24.561716 33.57986,-41.213503 60.3852,-41.213503 12.3762,0 24.21981,3.42878 34.54817,9.961849 12.97493,-16.72969 32.89812,-26.57518 54.24787,-26.57518 35.55799,0 65.05089,27.070878 68.34487,62.137782 12.94824,7.462932 23.15666,19.054332 28.91776,32.908372 14.44505,34.73832 -2.06372,74.75183 -36.80206,89.1979 -8.3692,3.48055 -17.1731,5.24491 -26.16461,5.24491 0,0 -5e-4,0 0,0 -13.32348,-5.1e-4 -26.46651,-3.97367 -37.58378,-11.27974 -12.40283,19.98727 -34.10526,32.17945 -57.9232,32.17945 z m -53.11911,-43.42691 3.67225,5.90668 c 10.71077,17.22539 29.19511,27.50915 49.44686,27.50915 21.9818,0 41.85168,-12.17269 51.85557,-31.7668 l 2.76906,-5.42433 4.78512,3.76814 c 10.25661,8.07547 23.0767,12.5233 36.09878,12.52382 7.66541,0 15.176,-1.50602 22.32216,-4.47704 29.64054,-12.32648 43.7283,-46.4697 31.40284,-76.11125 -5.22491,-12.56432 -14.7367,-22.94753 -26.78279,-29.2361 l -2.5307,-1.32149 -0.15131,-2.85004 c -1.65519,-31.105561 -27.37588,-55.471445 -58.55523,-55.471445 -19.68998,0 -37.96157,9.807052 -48.87634,26.233793 l -2.92696,4.403749 -4.23713,-3.163243 c -9.51641,-7.105139 -20.84332,-10.860969 -32.75613,-10.860969 -24.52121,0 -46.23594,16.478024 -52.80644,40.072965 l -1.88482,6.76631 -5.78007,-3.98905 c -7.76024,-5.355625 -16.82196,-8.186723 -26.20407,-8.186723 -1.52139,0 -3.06535,0.07595 -4.58828,0.226054 -22.029967,2.169326 -39.497819,19.720219 -41.535403,41.731229 l -0.649973,7.01902 -6.412621,-2.92746 c -4.015188,-1.83253 -8.294363,-2.7624 -12.71861,-2.7624 -16.916802,0 -30.67906,13.76278 -30.67906,30.67958 0,16.91628 13.762258,30.67959 30.67906,30.67959 6.687885,0 13.044109,-2.11448 18.380786,-6.11429 l 4.767163,-3.57332 2.697825,5.31205 c 9.984924,19.66382 29.876325,31.87958 51.911443,31.87958 17.39812,0 33.74594,-7.69719 44.8514,-21.11755 z"
   inkscape:connector-curvature="0"
   style="fill:#00aad4;stroke-width:1" /></g>
<g
   id="g8">
</g>
<g
   id="g10">
</g>
<g
   id="g12">
</g>
<g
   id="g14">
</g>
<g
   id="g16">
</g>
<g
   id="g18">
</g>
<g
   id="g20">
</g>
<g
   id="g22">
</g>
<g
   id="g24">
</g>
<g
   id="g26">
</g>
<g
   id="g28">
</g>
<g
   id="g30">
</g>
<g
   id="g32">
</g>
<g
   id="g34">
</g>
<g
   id="g36">
</g>
</svg>