<?xml version="1.0" encoding="utf-8"?>
<!-- Generator: Adobe Illustrator 16.0.4, SVG Export Plug-In . SVG Version: 6.00 Build 0)  -->
<!DOCTYPE svg PUBLIC "-//W3C//DTD SVG 1.1//EN" "http://www.w3.org/Graphics/SVG/1.1/DTD/svg11.dtd">
<svg version="1.1" xmlns="http://www.w3.org/2000/svg" xmlns:xlink="http://www.w3.org/1999/xlink" x="0px" y="0px"
	 width="791.999px" height="611.999px" viewBox="0 0 791.999 611.999" enable-background="new 0 0 791.999 611.999"
	 xml:space="preserve">
<g id="Layer_2">
	<circle fill="#DAF5FD" cx="2095.956" cy="555.956" r="76.838"/>
	<circle fill="#DAF5FD" cx="1990.743" cy="508.587" r="76.838"/>
	<circle fill="#DAF5FD" cx="2453.8" cy="585.431" r="76.838"/>
	<circle fill="#DAF5FD" cx="2543.337" cy="511.972" r="76.838"/>
	<circle fill="#DAF5FD" cx="2330.756" cy="527.112" r="89.631"/>
	<circle fill="#DAF5FD" cx="2350.912" cy="493.673" r="89.631"/>
	<circle fill="#DAF5FD" cx="2105.018" cy="475.214" r="89.631"/>
	<circle fill="#DAF5FD" cx="1868.485" cy="563.274" r="95.368"/>
	<circle fill="#DAF5FD" cx="2443.118" cy="563.274" r="95.368"/>
	<circle fill="#DAF5FD" cx="2208.858" cy="511.971" r="66.144"/>
	<circle fill="#DAF5FD" cx="1990.743" cy="592.069" r="53.469"/>
	<circle fill="#DAF5FD" cx="2574.075" cy="715.325" r="53.469"/>
	<rect x="1773.117" y="563.274" fill="#DAF5FD" width="842.883" height="370.393"/>
	<linearGradient id="SVGID_1_" gradientUnits="userSpaceOnUse" x1="1510.0605" y1="1209.5776" x2="1510.0605" y2="1653.6327">
		<stop  offset="0" style="stop-color:#FFFFFF"/>
		<stop  offset="1" style="stop-color:#FFFFFF;stop-opacity:0"/>
	</linearGradient>
	<path fill="url(#SVGID_1_)" d="M1937.273,1471.401c0-12.533-4.323-24.049-11.544-33.165V1319.35h-15.468
		c13.879-15.482,21.472-36.51,19.273-58.834c-4.159-42.232-41.769-73.096-84-68.936c-25.772,2.538-47.292,17.545-59.221,38.445
		c-10.415-3.903-21.69-6.044-33.468-6.044c-2.11,0-4.202,0.076-6.277,0.211c-11.004-37.05-45.308-64.074-85.928-64.074
		c-39.572,0-73.151,25.646-85.032,61.224c-1.768,1.854-3.451,3.787-5.057,5.786c-16.389-20.835-44.158-30.18-70.252-22.638
		c-11.395-36.41-45.389-62.831-85.554-62.831c-36.567,0-68.016,21.9-81.956,53.299c-12.04-5.596-25.681-8.158-39.851-6.763
		c-30.315,2.985-54.77,23.207-64.62,50.001c-14.562-9.01-31.725-14.215-50.106-14.215c-52.67,0-95.367,42.697-95.367,95.368v370.393
		h842.883v-185.179C1932.95,1495.448,1937.273,1483.933,1937.273,1471.401z"/>
	<rect x="-16" y="-23.333" fill="#DAF5FD" width="837" height="682"/>
	<radialGradient id="SVGID_2_" cx="402.5" cy="317.6665" r="381.7219" gradientUnits="userSpaceOnUse">
		<stop  offset="0" style="stop-color:#FFFFFF"/>
		<stop  offset="1" style="stop-color:#FFFFFF;stop-opacity:0"/>
	</radialGradient>
	<rect x="-16" y="-23.333" opacity="0.8" fill="url(#SVGID_2_)" width="837" height="682"/>
	<linearGradient id="SVGID_3_" gradientUnits="userSpaceOnUse" x1="396" y1="421.106" x2="396" y2="874.5084">
		<stop  offset="0" style="stop-color:#FFFFFF"/>
		<stop  offset="1" style="stop-color:#FFFFFF;stop-opacity:0"/>
	</linearGradient>
	<path opacity="0.7" fill="url(#SVGID_3_)" d="M823.213,667.046c0-12.533-4.323-24.049-11.544-33.165V514.996h-15.468
		c13.879-15.482,21.472-36.51,19.273-58.834c-4.159-42.232-41.769-73.096-84-68.936c-38.915,3.832-68.153,36.071-69.256,74.152
		c-6.553-1.099-13.352-1.376-20.281-0.693c-9.504,0.936-18.424,3.578-26.506,7.573c-5.233-44.517-43.085-79.056-89.007-79.056
		c-28.285,0-53.505,13.105-69.933,33.571c-17.888-22.741-49.339-31.809-77.362-20.155c-20.256,8.424-34.096,25.754-38.893,45.559
		c-15.185-12.406-35.089-19.041-56.145-16.967c-36.661,3.61-64.738,32.431-68.792,67.597c-8.333-5.363-18.244-8.487-28.89-8.487
		c-10.405,0-20.109,2.982-28.323,8.124c-7.837-44.78-46.91-78.816-93.935-78.816c-52.67,0-95.367,42.697-95.367,95.368v370.393
		h842.883V700.209C818.89,691.093,823.213,679.579,823.213,667.046z"/>
	<linearGradient id="SVGID_4_" gradientUnits="userSpaceOnUse" x1="396" y1="61.0615" x2="396" y2="505.1174">
		<stop  offset="0" style="stop-color:#FFFFFF"/>
		<stop  offset="1" style="stop-color:#FFFFFF;stop-opacity:0"/>
	</linearGradient>
	<path opacity="0.7" fill="url(#SVGID_4_)" d="M823.213,322.885c0-12.533-4.323-24.049-11.544-33.166V170.834h-15.468
		c13.879-15.482,21.472-36.51,19.273-58.834c-4.159-42.232-41.769-73.096-84-68.936c-25.772,2.538-47.292,17.545-59.221,38.445
		c-10.415-3.903-21.69-6.044-33.468-6.044c-2.11,0-4.202,0.076-6.277,0.211c-11.004-37.05-45.308-64.074-85.928-64.074
		c-39.572,0-73.151,25.646-85.032,61.224c-1.768,1.854-3.451,3.787-5.057,5.786c-16.389-20.835-44.158-30.18-70.252-22.638
		c-11.395-36.41-45.389-62.831-85.554-62.831c-36.567,0-68.016,21.9-81.956,53.299c-12.04-5.596-25.681-8.158-39.851-6.763
		c-30.315,2.985-54.77,23.207-64.62,50.001c-14.562-9.01-31.725-14.215-50.106-14.215c-52.67,0-95.367,42.697-95.367,95.368v370.393
		h842.883v-185.18C818.89,346.932,823.213,335.417,823.213,322.885z"/>
</g>
<g id="Layer_1">
	<path fill="#00C9FC" d="M-179.022,535.452c-3.846,0-7.593,0.414-11.208,1.186c-11.426-28.101-38.987-47.922-71.191-47.922
		c-1.196,0-2.384,0.036-3.567,0.09c-12.691-24.961-38.598-42.073-68.518-42.073c-33.834,0-62.54,21.878-72.795,52.251
		c-38.943,3.745-69.395,36.549-69.395,76.473c0,40.381,31.156,73.463,70.738,76.574c14.445,16.423,35.599,26.8,59.189,26.8
		c21.195,0,40.421-8.382,54.586-21.992c10.048,6.159,21.865,9.715,34.515,9.715c22.864,0,43.017-11.603,54.897-29.239
		c6.904,3.252,14.612,5.078,22.75,5.078c29.53,0,53.47-23.939,53.47-53.47S-149.492,535.452-179.022,535.452z"/>
	<path fill="#00C9FC" d="M-179.022,132.143c-3.846,0-7.593,0.415-11.208,1.186c-11.426-28.101-38.987-47.922-71.191-47.922
		c-1.196,0-2.384,0.036-3.567,0.09c-12.691-24.961-38.598-42.074-68.518-42.074c-33.834,0-62.54,21.878-72.795,52.251
		c-38.943,3.745-69.395,36.548-69.395,76.473c0,40.381,31.156,73.463,70.738,76.574c14.445,16.423,35.599,26.8,59.189,26.8
		c21.195,0,40.421-8.382,54.586-21.992c10.048,6.159,21.865,9.715,34.515,9.715c22.864,0,43.017-11.603,54.897-29.239
		c6.904,3.252,14.612,5.078,22.75,5.078c29.53,0,53.47-23.939,53.47-53.47S-149.492,132.143-179.022,132.143z"/>
	<linearGradient id="SVGID_5_" gradientUnits="userSpaceOnUse" x1="-470.9937" y1="39.832" x2="-129.9355" y2="39.832">
		<stop  offset="0" style="stop-color:#DAF5FD"/>
		<stop  offset="1" style="stop-color:#00C9FC"/>
	</linearGradient>
	<path fill="url(#SVGID_5_)" d="M-179.022,19.041c-3.846,0-7.593,0.396-11.208,1.134c-11.426-26.877-38.987-45.834-71.191-45.834
		c-1.196,0-2.384,0.034-3.567,0.086c-12.691-23.875-38.598-40.241-68.518-40.241c-33.834,0-62.54,20.925-72.795,49.975
		c-38.943,3.582-64.692,34.956-64.692,73.141c0,38.622,31.764,55.464,71.345,58.439c14.445,15.708,30.289,29.737,53.879,29.737
		c21.195,0,40.081-13.155,54.246-26.173c10.048,5.891,24.188,12.451,36.838,12.451c22.864,0,39.212-15.386,51.093-32.254
		c6.904,3.11,24.34,11.882,32.478,11.882c29.53,0,43.964-23.368,40.736-41.204C-135.41,42.389-149.492,19.041-179.022,19.041z"/>
	<linearGradient id="SVGID_6_" gradientUnits="userSpaceOnUse" x1="-470.9937" y1="-34.9995" x2="-140.6182" y2="-34.9995">
		<stop  offset="0" style="stop-color:#DAF5FD"/>
		<stop  offset="1" style="stop-color:#ABEBFE"/>
	</linearGradient>
	<path fill="url(#SVGID_6_)" d="M-178.558-40.714c-3.846,0-12.311,2.465-15.926,3.203c-11.855-31.238-33.733-51.971-65.937-51.971
		c-1.196,0-8.39,1.035-9.573,1.087c-6.445-19.86-33.593-52.251-63.513-52.251c-33.834,0-62.54,20.925-72.795,49.975
		c-38.943,3.582-64.692,34.956-64.692,73.141c0,38.622,31.764,55.464,71.345,58.439c14.445,15.708,30.289,29.737,53.879,29.737
		c21.195,0,40.081-13.155,54.246-26.173c10.048,5.891,24.188,12.451,36.838,12.451c22.864,0,39.212-15.386,51.093-32.254
		c6.904,3.11,22.037,10.992,30.101,9.902c29.309-3.961,32.874-25.731,32.874-37.23C-140.618-14.922-149.028-40.714-178.558-40.714z"
		/>
	<path fill="#017BC0" d="M-345.77,419.041c-23.315,0-45.753-9.837-61.592-26.998c-19.678-2.033-37.951-11.159-51.471-25.709
		c-14.099-15.173-21.863-34.942-21.863-55.667c0-20.476,7.601-40.071,21.402-55.176c12.925-14.146,30.436-23.338,49.336-25.905
		c12.016-31.5,42.7-52.642,76.451-52.642c29.672,0,57.03,16.081,71.472,41.986c0.208-0.002,0.412-0.003,0.613-0.003
		c31.76,0,60.844,18.559,74.202,47.314c2.716-0.384,5.472-0.578,8.197-0.578c32.24,0,58.47,26.229,58.47,58.47
		s-26.229,58.47-58.47,58.47c-7.261,0-14.333-1.313-21.025-3.903c-13.388,17.581-34.524,28.064-56.621,28.064
		c-11.802,0-23.493-2.956-33.833-8.552C-305.785,411.646-325.398,419.041-345.77,419.041z M-333.506,177.943
		c-33.437,0-63.826,21.007-75.622,52.274l-0.105,0.28l-0.297,0.039c-18.78,2.48-36.191,11.582-49.025,25.628
		c-13.633,14.92-21.141,34.276-21.141,54.501c0,20.471,7.669,39.999,21.596,54.985c13.398,14.419,31.521,23.444,51.028,25.415
		l0.189,0.019l0.129,0.141c15.658,17.041,37.886,26.814,60.985,26.814c20.244,0,39.73-7.391,54.868-20.81l0.263-0.233l0.309,0.169
		c10.269,5.624,21.909,8.597,33.661,8.597c21.91,0,42.864-10.456,56.051-27.969l0.229-0.304l0.354,0.14
		c6.68,2.636,13.75,3.972,21.012,3.972c31.689,0,57.47-25.781,57.47-57.47c0-31.689-25.781-57.47-57.47-57.47
		c-2.801,0-5.634,0.209-8.421,0.621l-0.371,0.055l-0.157-0.341c-13.125-28.595-41.956-47.071-73.45-47.071
		c-0.292,0-0.592,0.002-0.898,0.006l-0.3,0.004l-0.145-0.263C-276.992,193.934-304.099,177.943-333.506,177.943z"/>
	<circle fill="#DAF5FD" cx="-1458.367" cy="82.628" r="76.838"/>
	<circle fill="#DAF5FD" cx="-1328.414" cy="43.477" r="89.631"/>
	<circle fill="#DAF5FD" cx="-1195.362" cy="24.321" r="95.368"/>
	<circle fill="#DAF5FD" cx="-1287.084" cy="134.515" r="94.683"/>
	<circle fill="#DAF5FD" cx="-1440.527" cy="124.117" r="94.683"/>
	<circle fill="#DAF5FD" cx="-1224.568" cy="82.091" r="66.144"/>
	<circle fill="#DAF5FD" cx="-1144.022" cy="103.125" r="94.735"/>
	<circle fill="#DAF5FD" cx="-1557.038" cy="124.117" r="53.469"/>
	<circle fill="#DAF5FD" cx="-2017.668" cy="738.734" r="76.838"/>
	<circle fill="#DAF5FD" cx="-1680.996" cy="786.919" r="89.631"/>
	<circle fill="#DAF5FD" cx="-1770.627" cy="661.89" r="95.368"/>
	<path fill="#DAF5FD" d="M-1847.773,860.931c52.766-21.943,77.753-82.507,55.812-135.272
		c-21.942-52.765-82.506-77.752-135.271-55.809c-52.765,21.94-77.753,82.503-55.811,135.269
		C-1961.102,857.885-1900.539,882.872-1847.773,860.931z"/>
	<circle fill="#DAF5FD" cx="-1792.743" cy="765.39" r="94.735"/>
	<circle fill="#DAF5FD" cx="-2094.511" cy="823.083" r="53.469"/>
	<circle fill="#DAF5FD" cx="-1910.021" cy="685.266" r="53.469"/>
	<circle fill="#DAF5FD" cx="-1675.259" cy="697.29" r="53.469"/>
	<circle fill="#DAF5FD" cx="2198.175" cy="192.581" r="76.838"/>
	<circle fill="#DAF5FD" cx="2519.962" cy="218.8" r="76.838"/>
	<circle fill="#DAF5FD" cx="2439.586" cy="176.943" r="89.631"/>
	<circle fill="#DAF5FD" cx="2326.217" cy="171.892" r="95.368"/>
	<circle fill="#DAF5FD" cx="2453.8" cy="200.9" r="66.144"/>
	<circle fill="#DAF5FD" cx="2107.331" cy="253.324" r="53.469"/>
	<circle fill="#DAF5FD" cx="2596.806" cy="253.324" r="53.469"/>
	<path fill="#00C9FC" d="M314.219,303.828c-0.363,0-0.724,0.012-1.083,0.027c-3.843-15.237-17.443-26.174-33.216-26.604
		c-6.257-14.769-20.887-25.13-37.936-25.13c-8.265,0-15.959,2.437-22.409,6.628c-7.806-7.19-18.229-11.584-29.678-11.584
		c-17.083,0-31.881,9.778-39.107,24.041c-6.575-4.433-14.674-6.689-23.181-5.851c-17.753,1.749-31.125,16.362-31.809,33.697
		c-0.013,0-0.025-0.001-0.037-0.001c-13.568,0-24.566,10.999-24.566,24.567c0,13.567,10.999,24.565,24.566,24.565
		c0.884,0,1.758-0.049,2.619-0.141c5.744,14.096,20.227,23.365,36.148,21.797c4.362-0.431,8.457-1.642,12.169-3.476
		c7.764,7.21,18.161,11.621,29.592,11.621c10.178,0,19.538-3.497,26.948-9.353c5.104,2.102,10.692,3.264,16.554,3.264
		c12.789,0,24.288-5.519,32.248-14.305c7.243,8.492,18.382,13.425,30.333,12.248c11.713-1.154,21.515-7.912,27.031-17.354
		c1.557,0.31,3.165,0.476,4.813,0.476c13.567,0,24.566-10.999,24.566-24.566C338.785,314.826,327.786,303.828,314.219,303.828z"/>
	<linearGradient id="SVGID_7_" gradientUnits="userSpaceOnUse" x1="251.4453" y1="275.436" x2="100.1345" y2="405.9187">
		<stop  offset="0" style="stop-color:#DAF5FD"/>
		<stop  offset="1" style="stop-color:#00C9FC"/>
	</linearGradient>
	<path fill="url(#SVGID_7_)" d="M314.219,303.828c-0.363,0-0.724,0.012-1.083,0.027c-3.843-15.237-17.443-26.174-33.216-26.604
		c-6.257-14.769-20.887-25.13-37.936-25.13c-8.265,0-15.959,2.437-22.409,6.628c-7.806-7.19-18.229-11.584-29.678-11.584
		c-17.083,0-31.881,9.778-39.107,24.041c-6.575-4.433-14.674-6.689-23.181-5.851c-17.753,1.749-31.125,16.362-31.809,33.697
		c-0.013,0-0.025-0.001-0.037-0.001c-13.568,0-21.867,5.91-21.867,19.479c0,13.567,9.189,23.891,26.786,20.662
		c0.871-0.16,1.758-0.05,2.619-0.141c5.744,14.095,18.691,18.108,34.611,16.54c4.363-0.43,7.622-1.843,11.334-3.676
		c7.764,7.21,16.136,12.252,27.566,12.252c10.178,0,17.094-6.396,24.504-12.252c5.104,2.102,14.66,6.433,20.521,6.433
		c12.788,0,22.058-8.062,30.018-16.847c7.244,8.492,18.679,16.492,30.629,15.314c11.714-1.153,17.458-12,22.974-21.44
		c1.557,0.31,0.499-0.955,1.557,0.31c7.938,9.492,27.826-2.453,27.632-10.388C334.315,311.733,327.786,303.828,314.219,303.828z"/>
	<linearGradient id="SVGID_8_" gradientUnits="userSpaceOnUse" x1="78.4707" y1="307.6567" x2="334.6475" y2="307.6567">
		<stop  offset="0" style="stop-color:#DAF5FD"/>
		<stop  offset="1" style="stop-color:#ABEBFE"/>
	</linearGradient>
	<path fill="url(#SVGID_8_)" d="M314.219,303.828c-0.363,0-0.724,0.012-1.083,0.027c-3.843-15.237-17.443-26.174-33.216-26.604
		c-6.257-14.769-20.887-25.13-37.936-25.13c-8.265,0-15.959,2.437-22.409,6.628c-7.806-7.19-15.746-7.6-27.196-7.6
		c-17.082,0-29.475,19.73-36.701,33.993c-6.575-4.433-14.465-9.107-22.973-8.27c-17.752,1.748-25.045,14.52-25.729,31.854
		c-0.012,0,0.012,0.002,0,0c-27.26-5.514-28.485,16.569-28.485,16.569s-1.532,14.366,22.192,13.895
		c0.885-0.018,1.758-0.05,2.619-0.141c5.744,14.095,18.691,18.108,34.611,16.54c4.363-0.43,7.622-1.843,11.334-3.676
		c7.764,7.21,16.136,12.252,27.566,12.252c10.178,0,17.094-6.396,24.504-12.252c5.104,2.102,14.66,6.433,20.521,6.433
		c12.788,0,22.058-8.062,30.018-16.847c7.244,8.492,18.679,16.492,30.629,15.314c11.714-1.153,17.458-12,22.974-21.44
		c1.557,0.31,0.499-0.955,1.557,0.31c7.938,9.492,27.826-2.453,27.632-10.388C334.315,311.733,327.786,303.828,314.219,303.828z"/>
	<circle fill="#DAF5FD" cx="-1404.367" cy="525.72" r="76.838"/>
	<circle fill="#DAF5FD" cx="-1274.414" cy="486.569" r="89.631"/>
	<circle fill="#DAF5FD" cx="-1141.362" cy="467.413" r="95.368"/>
	<circle fill="#DAF5FD" cx="-1233.084" cy="577.607" r="94.683"/>
	<circle fill="#DAF5FD" cx="-1386.527" cy="567.208" r="94.683"/>
	<circle fill="#DAF5FD" cx="-1170.568" cy="525.183" r="66.144"/>
	<circle fill="#DAF5FD" cx="-1090.022" cy="546.216" r="94.735"/>
	<circle fill="#DAF5FD" cx="-1503.038" cy="567.208" r="53.469"/>
	<path fill="#00C9FC" d="M1648.83,576.019c-11.539-27.747-32.039-49.044-56.746-61.942
		c-3.482-65.457-57.659-117.462-123.982-117.462c-43.2,0-81.242,22.066-103.483,55.538c-19.456-14.526-43.596-23.128-69.744-23.128
		c-53.58,0-98.72,36.11-112.424,85.321c-18.789-12.967-42.078-19.623-66.575-17.21c-48.5,4.776-85.462,43.442-89.794,90.229
		c-8.797-4.016-18.565-6.271-28.866-6.271c-38.446,0-69.614,31.168-69.614,69.615s31.168,69.615,69.614,69.615
		c15.647,0,30.088-5.165,41.714-13.879c20.35,40.075,61.956,67.536,109.979,67.536c38.237,0,72.408-17.411,95.021-44.737
		c21.752,34.982,60.529,58.275,104.755,58.275c47.927,0,89.465-27.352,109.858-67.296c33.966,26.743,81.007,34.818,123.76,17.041
		C1645.198,711.109,1674.984,638.917,1648.83,576.019z"/>
	<linearGradient id="SVGID_9_" gradientUnits="userSpaceOnUse" x1="927.6006" y1="573.1411" x2="1657.1016" y2="573.1411">
		<stop  offset="0" style="stop-color:#DAF5FD"/>
		<stop  offset="1" style="stop-color:#00C9FC"/>
	</linearGradient>
	<path fill="url(#SVGID_9_)" d="M1648.83,576.019c-11.539-27.747-32.039-49.044-56.746-61.942
		c-3.482-65.457-57.659-117.462-123.982-117.462c-43.2,0-81.242,22.066-103.483,55.538c-19.456-14.526-43.596-23.128-69.744-23.128
		c-53.58,0-98.72,36.11-112.424,85.321c-18.789-12.967-42.078-19.623-66.575-17.21c-48.5,4.776-85.462,43.442-89.794,90.229
		c-8.797-4.016-18.565-6.271-28.866-6.271c-38.446,0-69.614,31.168-69.614,69.615s30.936,51.602,69.382,51.602
		c15.646,0,35.244-18.192,46.87-26.906c20.349,40.075,59.192,56.888,107.215,56.888c38.237,0,72.408-27.827,95.021-55.152
		c21.752,34.982,59.062,72.528,103.288,72.528c47.927,0,84.631-41.264,105.024-81.209c33.965,26.744,76.158,55.969,118.911,38.192
		C1636.209,680.496,1674.984,638.917,1648.83,576.019z"/>
	<path fill="#DAF5FD" d="M1648.83,576.019c-11.539-27.747-32.039-49.044-56.746-61.942c-3.482-65.457-50.701-107.48-117.024-107.48
		c-43.2,0-85.212,38.309-107.453,71.78c-19.457-14.526-43.597-23.128-69.745-23.128c-53.579,0-103.849,42.223-105.585,98.641
		c-18.789-12.967-45.809-24.98-70.306-22.567c-48.5,4.776-72.917,46.086-77.249,92.873c-69.291-43.819-94.608,4.339-94.608,24.302
		c0,19.965,18.4,51.766,56.846,51.766c15.647,0,25.268-16.144,36.894-24.857c20.349,40.075,59.192,56.888,107.215,56.888
		c38.237,0,72.408-27.827,95.021-55.152c21.752,34.982,59.062,72.528,103.288,72.528c47.927,0,84.631-41.264,105.024-81.209
		c33.965,26.744,76.158,55.969,118.911,38.192C1636.209,680.496,1674.984,638.917,1648.83,576.019z"/>
	<linearGradient id="SVGID_10_" gradientUnits="userSpaceOnUse" x1="-462.8877" y1="-158.3784" x2="-125.5527" y2="-158.3784">
		<stop  offset="0" style="stop-color:#ABEBFE"/>
		<stop  offset="1" style="stop-color:#00C9FC"/>
	</linearGradient>
	<path opacity="0.5" fill="url(#SVGID_10_)" d="M-179.022-220.934c-3.846,0-7.593,0.415-11.208,1.186
		c-2.517-6.189-5.817-11.975-9.776-17.237c-119.918-16.248-221.468,60.968-262.881,98.5c12.707,19.117,33.736,32.228,57.929,34.129
		c14.445,16.423,35.599,26.8,59.189,26.8c21.195,0,40.421-8.382,54.586-21.992c10.048,6.159,21.865,9.715,34.515,9.715
		c22.864,0,43.017-11.603,54.897-29.239c6.904,3.252,14.612,5.078,22.75,5.078c29.53,0,53.47-23.939,53.47-53.47
		S-149.492-220.934-179.022-220.934z"/>
	<radialGradient id="SVGID_11_" cx="-330.7261" cy="-341.4331" r="198.0909" gradientUnits="userSpaceOnUse">
		<stop  offset="0" style="stop-color:#FFFFFF"/>
		<stop  offset="1" style="stop-color:#FFFFFF;stop-opacity:0"/>
	</radialGradient>
	<path opacity="0.8" fill="url(#SVGID_11_)" d="M-179.022-337.076c-3.846,0-7.593,0.415-11.208,1.187
		c-11.426-28.102-38.987-47.923-71.191-47.923c-1.196,0-2.384,0.036-3.567,0.091c-12.691-24.962-38.598-42.074-68.518-42.074
		c-33.834,0-62.54,21.878-72.795,52.251c-38.943,3.745-69.395,36.549-69.395,76.473c0,40.381,31.156,73.463,70.738,76.574
		c14.445,16.423,35.599,26.8,59.189,26.8c21.195,0,40.421-8.382,54.586-21.992c10.048,6.159,21.865,9.715,34.515,9.715
		c22.864,0,43.017-11.603,54.897-29.239c6.904,3.252,14.612,5.078,22.75,5.078c29.53,0,53.47-23.939,53.47-53.47
		S-149.492-337.076-179.022-337.076z"/>
	<linearGradient id="SVGID_12_" gradientUnits="userSpaceOnUse" x1="-332.8232" y1="177.1519" x2="-282.9179" y2="396.5752">
		<stop  offset="0" style="stop-color:#00C9FC"/>
		<stop  offset="1" style="stop-color:#017BC0"/>
	</linearGradient>
	<path fill="url(#SVGID_12_)" d="M-345.77,418.541c-23.324,0-45.579-9.809-61.353-26.977c-19.651-1.984-37.824-11.021-51.344-25.571
		c-14.013-15.08-21.729-34.729-21.729-55.326c0-20.351,7.554-39.826,21.271-54.839c12.974-14.199,30.4-23.287,49.329-25.787
		c11.913-31.58,42.132-52.598,76.089-52.598c29.81,0,56.823,16.015,71.179,41.99c0.309-0.004,0.61-0.006,0.905-0.006
		c32.023,0,60.643,18.469,73.905,47.363c2.817-0.417,5.661-0.626,8.495-0.626c31.965,0,57.97,26.005,57.97,57.97
		s-26.005,57.97-57.97,57.97c-7.338,0-14.451-1.346-21.196-4.007c-13.333,17.706-34.164,28.168-56.451,28.168
		c-11.893,0-23.541-2.984-33.901-8.658C-305.829,411.131-325.298,418.541-345.77,418.541z M-333.506,186.443
		c-31.056,0-58.597,19.768-68.532,49.19l-0.933,2.761l-2.9,0.279c-17.808,1.712-34.29,9.96-46.409,23.225
		c-12.198,13.35-18.916,30.669-18.916,48.768c0,18.317,6.862,35.791,19.322,49.2c12.394,13.338,29.181,21.466,47.268,22.888
		l1.82,0.144l1.206,1.371c14.126,16.061,34.468,25.271,55.81,25.271c19.272,0,37.551-7.364,51.468-20.737l2.506-2.408l2.963,1.816
		c9.661,5.922,20.783,9.052,32.163,9.052c20.542,0,39.669-10.188,51.165-27.253l2.157-3.202l3.493,1.645
		c6.55,3.085,13.559,4.649,20.832,4.649c27.002,0,48.97-21.968,48.97-48.97s-21.968-48.97-48.97-48.97
		c-3.434,0-6.889,0.366-10.269,1.087l-3.688,0.787l-1.42-3.493c-11.145-27.408-37.453-45.117-67.023-45.117
		c-1.004,0-2.103,0.028-3.361,0.085l-2.901,0.133l-1.316-2.589C-281.423,201.622-306.141,186.443-333.506,186.443z"/>
	<g>
		<path fill="#00C9FC" d="M678.088,478.16c-2.652,0-5.236,0.286-7.729,0.818c-7.88-19.379-26.886-33.048-49.095-33.048
			c-0.825,0-1.644,0.024-2.459,0.062c-8.752-17.215-26.617-29.015-47.251-29.015c-23.333,0-43.129,15.088-50.2,36.033
			c-26.856,2.582-47.856,25.203-47.856,52.735c0,27.848,21.487,50.661,48.782,52.807c9.961,11.326,24.55,18.481,40.818,18.481
			c14.616,0,27.874-5.779,37.643-15.166c6.93,4.248,15.078,6.699,23.801,6.699c15.769,0,29.666-8.001,37.858-20.163
			c4.762,2.242,10.076,3.502,15.688,3.502c20.363,0,36.873-16.509,36.873-36.873C714.961,494.668,698.451,478.16,678.088,478.16z"/>
		<path fill="#00C9FC" d="M678.088,478.16c-2.652,0-5.236,0.286-7.729,0.818c-7.88-19.379-26.886-33.048-49.095-33.048
			c-0.825,0-1.644,0.024-2.459,0.062c-8.752-17.215-26.617-29.015-47.251-29.015c-23.333,0-43.129,15.088-50.2,36.033
			c-26.856,2.582-47.856,25.203-47.856,52.735c0,27.848,21.487,50.661,48.782,52.807c9.961,11.326,24.55,18.481,40.818,18.481
			c14.616,0,27.874-5.779,37.643-15.166c6.93,4.248,15.078,6.699,23.801,6.699c15.769,0,29.666-8.001,37.858-20.163
			c4.762,2.242,10.076,3.502,15.688,3.502c20.363,0,36.873-16.509,36.873-36.873C714.961,494.668,698.451,478.16,678.088,478.16z"/>
		<linearGradient id="SVGID_13_" gradientUnits="userSpaceOnUse" x1="476.7402" y1="489.8325" x2="711.9375" y2="489.8325">
			<stop  offset="0" style="stop-color:#DAF5FD"/>
			<stop  offset="1" style="stop-color:#00C9FC"/>
		</linearGradient>
		<path fill="url(#SVGID_13_)" d="M678.088,475.495c-2.652,0-5.236,0.273-7.729,0.782c-7.88-18.534-26.886-31.607-49.095-31.607
			c-0.825,0-1.644,0.023-2.459,0.059c-8.752-16.463-26.617-27.75-47.251-27.75c-23.333,0-43.129,14.43-50.2,34.463
			c-26.856,2.471-44.613,24.106-44.613,50.439c0,26.634,21.905,38.248,49.201,40.3c9.961,10.833,20.888,20.508,37.156,20.508
			c14.616,0,27.639-9.072,37.408-18.05c6.929,4.062,16.68,8.587,25.403,8.587c15.767,0,27.04-10.61,35.233-22.243
			c4.762,2.146,16.786,8.194,22.397,8.194c20.364,0,30.317-16.115,28.091-28.415C708.163,491.596,698.451,475.495,678.088,475.495z"
			/>
		<linearGradient id="SVGID_14_" gradientUnits="userSpaceOnUse" x1="476.7402" y1="489.8325" x2="704.5713" y2="489.8325">
			<stop  offset="0" style="stop-color:#DAF5FD"/>
			<stop  offset="1" style="stop-color:#ABEBFE"/>
		</linearGradient>
		<path fill="url(#SVGID_14_)" d="M678.407,485.892c-2.651,0-8.489,1.7-10.982,2.209c-8.175-21.543-23.262-35.841-45.47-35.841
			c-0.826,0-5.786,0.715-6.603,0.751c-4.444-13.696-23.165-36.033-43.799-36.033c-23.333,0-43.129,14.43-50.2,34.463
			c-26.856,2.471-44.613,24.106-44.613,50.439c0,26.634,21.905,38.248,49.201,40.3c9.961,10.833,20.888,20.508,37.156,20.508
			c14.616,0,27.639-9.072,37.408-18.05c6.929,4.062,16.68,8.587,25.403,8.587c15.767,0,27.04-10.61,35.233-22.243
			c4.762,2.146,15.197,7.581,20.759,6.829c20.212-2.731,22.67-17.744,22.67-25.674C704.571,503.678,698.773,485.892,678.407,485.892
			z"/>
		<path fill="#017BC0" d="M563.098,580.483c-16.079,0-31.553-6.784-42.475-18.618c-13.571-1.401-26.172-7.695-35.497-17.729
			c-9.722-10.463-15.076-24.097-15.076-38.389c0-14.12,5.242-27.634,14.76-38.05c8.914-9.755,20.988-16.094,34.023-17.864
			c8.285-21.724,29.444-36.303,52.721-36.303c20.463,0,39.328,11.089,49.288,28.954c0.143-0.001,0.283-0.002,0.422-0.002
			c21.902,0,41.959,12.798,51.171,32.628c1.873-0.265,3.773-0.397,5.653-0.397c22.232,0,40.321,18.088,40.321,40.321
			c0,22.232-18.089,40.32-40.321,40.32c-5.007,0-9.885-0.905-14.5-2.691c-9.231,12.125-23.809,19.354-39.047,19.354
			c-8.138,0-16.201-2.038-23.332-5.896C590.671,575.383,577.145,580.483,563.098,580.483z M571.554,414.219
			c-23.059,0-44.016,14.487-52.149,36.049l-0.072,0.193l-0.205,0.027c-12.951,1.71-24.958,7.987-33.809,17.674
			c-9.402,10.288-14.58,23.637-14.58,37.584c0,14.117,5.29,27.584,14.895,37.919c9.239,9.943,21.735,16.167,35.188,17.526
			l0.131,0.013l0.089,0.098c10.798,11.751,26.126,18.491,42.057,18.491c13.96,0,27.398-5.097,37.837-14.351l0.181-0.161l0.213,0.117
			c7.082,3.878,15.109,5.928,23.213,5.928c15.109,0,29.561-7.211,38.654-19.288l0.158-0.209l0.243,0.097
			c4.606,1.817,9.483,2.738,14.491,2.738c21.853,0,39.631-17.779,39.631-39.631c0-21.854-17.778-39.633-39.631-39.633
			c-1.932,0-3.886,0.145-5.807,0.429l-0.258,0.038l-0.106-0.235c-9.052-19.719-28.935-32.461-50.653-32.461
			c-0.201,0-0.408,0.001-0.619,0.005l-0.206,0.003l-0.101-0.182C610.527,425.247,591.833,414.219,571.554,414.219z"/>
		<linearGradient id="SVGID_15_" gradientUnits="userSpaceOnUse" x1="482.3301" y1="521.2993" x2="714.9609" y2="521.2993">
			<stop  offset="0" style="stop-color:#ABEBFE"/>
			<stop  offset="1" style="stop-color:#00C9FC"/>
		</linearGradient>
		<path opacity="0.5" fill="url(#SVGID_15_)" d="M678.088,478.16c-2.652,0-5.236,0.286-7.729,0.818
			c-1.735-4.269-4.012-8.258-6.742-11.888c-82.696-11.204-152.727,42.045-181.286,67.928c8.764,13.184,23.266,22.225,39.949,23.535
			c9.961,11.326,24.55,18.481,40.818,18.481c14.616,0,27.874-5.779,37.643-15.166c6.93,4.248,15.078,6.699,23.801,6.699
			c15.769,0,29.666-8.001,37.858-20.163c4.762,2.242,10.076,3.502,15.688,3.502c20.363,0,36.873-16.509,36.873-36.873
			C714.961,494.668,698.451,478.16,678.088,478.16z"/>
		<radialGradient id="SVGID_16_" cx="573.4697" cy="475.1558" r="136.6063" gradientUnits="userSpaceOnUse">
			<stop  offset="0" style="stop-color:#FFFFFF"/>
			<stop  offset="1" style="stop-color:#FFFFFF;stop-opacity:0"/>
		</radialGradient>
		<path opacity="0.8" fill="url(#SVGID_16_)" d="M678.088,478.16c-2.652,0-5.236,0.286-7.729,0.818
			c-7.88-19.379-26.886-33.048-49.095-33.048c-0.825,0-1.644,0.024-2.459,0.062c-8.752-17.215-26.617-29.015-47.251-29.015
			c-23.333,0-43.129,15.088-50.2,36.033c-26.856,2.582-47.856,25.204-47.856,52.735c0,27.848,21.487,50.661,48.782,52.807
			c9.961,11.326,24.55,18.481,40.818,18.481c14.616,0,27.874-5.779,37.643-15.166c6.93,4.248,15.078,6.699,23.801,6.699
			c15.769,0,29.666-8.001,37.858-20.163c4.762,2.242,10.076,3.502,15.688,3.502c20.363,0,36.873-16.509,36.873-36.873
			C714.961,494.668,698.451,478.16,678.088,478.16z"/>
		<linearGradient id="SVGID_17_" gradientUnits="userSpaceOnUse" x1="572.0254" y1="413.6743" x2="606.4404" y2="564.99">
			<stop  offset="0" style="stop-color:#00C9FC"/>
			<stop  offset="1" style="stop-color:#017BC0"/>
		</linearGradient>
		<path fill="url(#SVGID_17_)" d="M563.098,580.137c-16.085,0-31.433-6.764-42.311-18.603c-13.552-1.368-26.084-7.601-35.407-17.634
			c-9.664-10.399-14.985-23.949-14.985-38.154c0-14.033,5.209-27.464,14.668-37.817c8.948-9.792,20.966-16.059,34.019-17.782
			c8.216-21.777,29.057-36.272,52.473-36.272c20.557,0,39.186,11.044,49.087,28.956c0.212-0.002,0.42-0.004,0.623-0.004
			c22.084,0,41.819,12.736,50.965,32.662c1.944-0.287,3.904-0.432,5.859-0.432c22.043,0,39.977,17.933,39.977,39.977
			c0,22.043-17.934,39.977-39.977,39.977c-5.062,0-9.967-0.929-14.617-2.764c-9.195,12.211-23.561,19.425-38.93,19.425
			c-8.2,0-16.233-2.058-23.378-5.971C590.641,575.029,577.215,580.137,563.098,580.137z M571.554,420.081
			c-21.416,0-40.409,13.633-47.261,33.923l-0.643,1.904l-2.001,0.192c-12.28,1.181-23.646,6.869-32.004,16.016
			c-8.411,9.207-13.044,21.15-13.044,33.631c0,12.633,4.732,24.683,13.324,33.929c8.548,9.199,20.123,14.805,32.598,15.784
			l1.254,0.099l0.832,0.946c9.742,11.075,23.771,17.428,38.488,17.428c13.29,0,25.895-5.079,35.492-14.301l1.729-1.661l2.043,1.253
			c6.662,4.084,14.332,6.242,22.18,6.242c14.166,0,27.356-7.026,35.284-18.794l1.487-2.208l2.409,1.134
			c4.517,2.128,9.35,3.206,14.366,3.206c18.619,0,33.771-15.148,33.771-33.77s-15.151-33.771-33.771-33.771
			c-2.368,0-4.751,0.252-7.082,0.75l-2.543,0.542l-0.979-2.408c-7.686-18.901-25.829-31.114-46.221-31.114
			c-0.691,0-1.451,0.02-2.317,0.059l-2.001,0.093l-0.907-1.785C607.471,430.548,590.426,420.081,571.554,420.081z"/>
	</g>
	<g>
		<path fill="#00C9FC" d="M1654.531-515.034c-6.989,0-13.798,0.754-20.368,2.157c-20.764-51.066-70.847-87.085-129.369-87.085
			c-2.175,0-4.331,0.064-6.48,0.165c-23.062-45.363-70.139-76.457-124.511-76.457c-61.485,0-113.649,39.758-132.283,94.952
			c-70.77,6.804-126.107,66.413-126.107,138.963c0,73.382,56.622,133.498,128.547,139.151c26.248,29.846,64.691,48.7,107.561,48.7
			c38.516,0,73.451-15.229,99.192-39.964c18.261,11.194,39.732,17.653,62.718,17.653c41.552,0,78.173-21.083,99.761-53.132
			c12.548,5.908,26.552,9.228,41.341,9.228c53.66,0,97.165-43.502,97.165-97.164
			C1751.696-471.531,1708.191-515.034,1654.531-515.034z"/>
		<radialGradient id="SVGID_18_" cx="1433.5547" cy="-465.3716" r="269.8943" gradientUnits="userSpaceOnUse">
			<stop  offset="0" style="stop-color:#FFFFFF"/>
			<stop  offset="1" style="stop-color:#DAF5FD"/>
		</radialGradient>
		<path fill="url(#SVGID_18_)" d="M1654.531-515.034c-6.989,0-13.798,0.754-20.368,2.157
			c-20.764-51.066-70.847-87.085-129.369-87.085c-2.175,0-4.331,0.064-6.48,0.165c-23.062-45.363-70.139-76.457-124.511-76.457
			c-61.485,0-113.649,39.758-132.283,94.952c-70.77,6.804-126.107,66.413-126.107,138.963c0,73.382,56.622,133.498,128.547,139.151
			c26.248,29.846,64.691,48.7,107.561,48.7c38.516,0,73.451-15.229,99.192-39.964c18.261,11.194,39.732,17.653,62.718,17.653
			c41.552,0,78.173-21.083,99.761-53.132c12.548,5.908,26.552,9.228,41.341,9.228c53.66,0,97.165-43.502,97.165-97.164
			C1751.696-471.531,1708.191-515.034,1654.531-515.034z"/>
		<path fill="#017BC0" d="M1351.52-245.401c-42.37,0-83.145-17.877-111.925-49.061c-35.762-3.693-68.966-20.278-93.538-46.72
			c-25.618-27.57-39.729-63.497-39.729-101.158c0-37.208,13.814-72.818,38.895-100.265c23.489-25.705,55.306-42.409,89.655-47.074
			c21.832-57.244,77.589-95.662,138.925-95.662c53.922,0,103.634,29.22,129.879,76.297c0.376-0.003,0.746-0.005,1.112-0.005
			c57.715,0,110.566,33.724,134.841,85.978c4.936-0.697,9.943-1.047,14.896-1.047c58.585,0,106.251,47.664,106.251,106.251
			c0,58.585-47.666,106.248-106.251,106.248c-13.193,0-26.047-2.385-38.209-7.092c-24.325,31.951-62.738,50.999-102.893,50.999
			c-21.443,0-42.691-5.371-61.482-15.538C1424.179-258.84,1388.535-245.401,1351.52-245.401z M1373.803-683.524
			c-60.762,0-115.986,38.175-137.42,94.993l-0.19,0.509l-0.54,0.072c-34.128,4.506-65.767,21.047-89.09,46.572
			c-24.775,27.11-38.42,62.286-38.42,99.038c0,37.2,13.94,72.687,39.249,99.921c24.347,26.201,57.275,42.602,92.726,46.184
			l0.345,0.033l0.234,0.258c28.453,30.965,68.845,48.727,110.823,48.727c36.786,0,72.198-13.431,99.705-37.815l0.476-0.425
			l0.562,0.309c18.661,10.219,39.814,15.62,61.168,15.62c39.814,0,77.896-19.001,101.858-50.826l0.417-0.551l0.641,0.255
			c12.139,4.789,24.989,7.216,38.186,7.216c57.584,0,104.432-46.851,104.432-104.432c0-57.586-46.848-104.437-104.432-104.437
			c-5.09,0-10.239,0.381-15.301,1.129l-0.68,0.101l-0.28-0.62c-23.853-51.961-76.246-85.538-133.477-85.538
			c-0.53,0-1.076,0.002-1.632,0.013l-0.543,0.008l-0.265-0.479C1476.502-654.466,1427.24-683.524,1373.803-683.524z"/>
		<linearGradient id="SVGID_19_" gradientUnits="userSpaceOnUse" x1="1375.0439" y1="-684.9595" x2="1465.7314" y2="-286.2254">
			<stop  offset="0" style="stop-color:#00C9FC"/>
			<stop  offset="1" style="stop-color:#017BC0"/>
		</linearGradient>
		<path fill="url(#SVGID_19_)" d="M1351.52-246.312c-42.385,0-82.828-17.823-111.492-49.02
			c-35.711-3.605-68.734-20.028-93.303-46.467c-25.465-27.403-39.487-63.109-39.487-100.541c0-36.979,13.726-72.37,38.651-99.653
			c23.579-25.803,55.247-42.316,89.643-46.858c21.649-57.386,76.567-95.582,138.271-95.582c54.169,0,103.258,29.102,129.349,76.303
			c0.559-0.005,1.107-0.011,1.643-0.011c58.193,0,110.198,33.562,134.298,86.068c5.123-0.756,10.288-1.137,15.439-1.137
			c58.086,0,105.343,47.254,105.343,105.342c0,58.086-47.257,105.343-105.343,105.343c-13.337,0-26.264-2.447-38.518-7.283
			c-24.23,32.178-62.085,51.187-102.584,51.187c-21.608,0-42.776-5.422-61.604-15.733
			C1424.099-259.773,1388.72-246.312,1351.52-246.312z M1373.803-668.079c-56.434,0-106.482,35.924-124.537,89.39l-1.693,5.018
			l-5.272,0.507c-32.36,3.111-62.309,18.101-84.334,42.203c-22.165,24.261-34.372,55.734-34.372,88.621
			c0,33.289,12.471,65.042,35.11,89.406c22.524,24.24,53.026,39.012,85.898,41.593l3.304,0.26l2.193,2.494
			c25.671,29.184,62.638,45.924,101.42,45.924c35.021,0,68.235-13.385,93.526-37.685l4.555-4.377l5.383,3.302
			c17.556,10.762,37.767,16.448,58.446,16.448c37.329,0,72.087-18.515,92.978-49.523l3.919-5.818l6.349,2.987
			c11.902,5.607,24.638,8.448,37.856,8.448c49.063,0,88.989-39.918,88.989-88.986s-39.926-88.989-88.989-88.989
			c-6.24,0-12.519,0.664-18.661,1.977l-6.701,1.429l-2.579-6.346c-20.252-49.807-68.062-81.989-121.796-81.989
			c-1.822,0-3.824,0.051-6.106,0.154l-5.273,0.245l-2.391-4.704C1468.447-640.495,1423.532-668.079,1373.803-668.079z"/>
	</g>
	<linearGradient id="SVGID_20_" gradientUnits="userSpaceOnUse" x1="927.6006" y1="644.2935" x2="1590.3828" y2="644.2935">
		<stop  offset="0" style="stop-color:#ABEBFE"/>
		<stop  offset="1" style="stop-color:#00C9FC"/>
	</linearGradient>
	<path opacity="0.5" fill="url(#SVGID_20_)" d="M1186.613,502.145c-1.597,3.967-3.002,8.032-4.163,12.201
		c-8.317-5.74-17.521-10.236-27.315-13.266c-21.798-0.146-44.47,0.904-68.024,3.303c-33.783,14.107-57.605,45.998-61.029,82.981
		c-8.797-4.016-18.565-6.271-28.866-6.271c-38.446,0-69.614,31.168-69.614,69.615s31.168,69.615,69.614,69.615
		c15.647,0,30.088-5.165,41.714-13.879c20.35,40.075,61.956,67.536,109.979,67.536c38.237,0,72.408-17.411,95.021-44.737
		c21.752,34.982,60.529,58.275,104.755,58.275c47.927,0,89.465-27.352,109.858-67.296c33.966,26.743,81.007,34.818,123.76,17.041
		c2.759-1.146,5.45-2.389,8.081-3.709C1548.532,671.027,1422.025,516.491,1186.613,502.145z"/>
	<radialGradient id="SVGID_21_" cx="1392.5527" cy="556.9155" r="477.2809" gradientUnits="userSpaceOnUse">
		<stop  offset="0" style="stop-color:#FFFFFF"/>
		<stop  offset="1" style="stop-color:#FFFFFF;stop-opacity:0"/>
	</radialGradient>
	<path opacity="0.8" fill="url(#SVGID_21_)" d="M1648.83,576.019c-11.539-27.747-32.039-49.044-56.746-61.942
		c-3.482-65.457-57.659-117.462-123.982-117.462c-43.2,0-81.242,22.066-103.483,55.538c-19.456-14.526-43.596-23.128-69.744-23.128
		c-53.58,0-98.72,36.11-112.424,85.321c-18.789-12.967-42.078-19.623-66.575-17.21c-48.5,4.776-85.462,43.442-89.794,90.229
		c-8.797-4.016-18.565-6.271-28.866-6.271c-38.446,0-69.614,31.168-69.614,69.615s31.168,69.615,69.614,69.615
		c15.647,0,30.088-5.165,41.714-13.879c20.35,40.075,61.956,67.536,109.979,67.536c38.237,0,72.408-17.411,95.021-44.737
		c21.752,34.982,60.529,58.275,104.755,58.275c47.927,0,89.465-27.352,109.858-67.296c33.966,26.743,81.007,34.818,123.76,17.041
		C1645.198,711.109,1674.984,638.917,1648.83,576.019z"/>
	<linearGradient id="SVGID_22_" gradientUnits="userSpaceOnUse" x1="1533.6064" y1="413.8452" x2="1148.8981" y2="788.7897">
		<stop  offset="0" style="stop-color:#00C9FC"/>
		<stop  offset="1" style="stop-color:#017BC0"/>
	</linearGradient>
	<path fill="url(#SVGID_22_)" d="M1348.684,797.285c-42.027,0-80.723-19.364-105.818-52.385
		c-24.861,24.829-58.451,38.847-93.958,38.847c-46.765,0-89.304-24.06-113.425-63.467c-11.659,6.445-24.7,9.81-38.268,9.81
		c-43.77,0-79.379-35.609-79.379-79.38s35.609-79.38,79.379-79.38c7.17,0,14.191,0.943,20.994,2.814
		c9.688-46.351,48.619-81.989,96.709-86.726c3.605-0.355,7.261-0.535,10.866-0.535c18.01,0,35.514,4.387,51.288,12.778
		c18.749-47.916,65.509-80.401,117.802-80.401c24.144,0,47.249,6.689,67.398,19.434c25.312-32.637,64.179-51.844,105.829-51.844
		c69.368,0,126.904,52.811,133.33,121.221c25.26,14.559,45.175,37.172,56.414,64.199c28.18,67.769-4.026,145.829-71.795,174.011
		c-16.327,6.79-33.502,10.232-51.043,10.232c0,0-0.001,0-0.004,0c-25.992-0.001-51.632-7.752-73.32-22.005
		C1437.487,773.5,1395.149,797.285,1348.684,797.285z M1245.057,712.566l7.164,11.523c20.895,33.604,56.955,53.666,96.463,53.666
		c42.883,0,81.646-23.747,101.162-61.972l5.402-10.582l9.335,7.351c20.009,15.754,45.019,24.431,70.423,24.432
		c14.954,0,29.606-2.938,43.547-8.734c57.824-24.047,85.307-90.655,61.262-148.481c-10.193-24.511-28.749-44.767-52.249-57.035
		l-4.937-2.578l-0.295-5.56c-3.229-60.682-53.406-108.216-114.232-108.216c-38.412,0-74.057,19.132-95.35,51.178l-5.71,8.591
		l-8.266-6.171c-18.565-13.861-40.662-21.188-63.902-21.188c-47.837,0-90.199,32.146-103.017,78.176l-3.677,13.2l-11.276-7.782
		c-15.139-10.448-32.817-15.971-51.12-15.971c-2.968,0-5.98,0.148-8.951,0.441c-42.977,4.232-77.054,38.471-81.029,81.411
		l-1.268,13.693l-12.51-5.711c-7.833-3.575-16.181-5.389-24.812-5.389c-33.002,0-59.85,26.849-59.85,59.851
		c0,33.001,26.848,59.851,59.85,59.851c13.047,0,25.447-4.125,35.858-11.928l9.3-6.971l5.263,10.363
		c19.479,38.361,58.284,62.192,101.271,62.192c33.941,0,65.833-15.016,87.498-41.197L1245.057,712.566z"/>
	<path fill="#00C9FC" d="M731.649,112.662c-5.079-12.214-14.103-21.588-24.979-27.266c-1.533-28.813-25.381-51.705-54.575-51.705
		c-19.017,0-35.762,9.713-45.553,24.447c-8.563-6.394-19.189-10.18-30.7-10.18c-23.585,0-43.455,15.895-49.487,37.557
		c-8.271-5.708-18.522-8.638-29.306-7.576c-21.349,2.103-37.619,19.123-39.525,39.717c-3.873-1.768-8.173-2.76-12.707-2.76
		c-16.924,0-30.644,13.72-30.644,30.644c0,16.924,13.72,30.644,30.644,30.644c6.888,0,13.244-2.273,18.362-6.109
		c8.957,17.641,27.271,29.729,48.411,29.729c16.831,0,31.873-7.664,41.827-19.693c9.574,15.399,26.644,25.652,46.111,25.652
		c21.097,0,39.381-12.04,48.358-29.623c14.951,11.772,35.658,15.327,54.478,7.501C730.051,172.127,743.162,140.349,731.649,112.662z
		"/>
	<linearGradient id="SVGID_23_" gradientUnits="userSpaceOnUse" x1="414.1738" y1="111.3955" x2="735.29" y2="111.3955">
		<stop  offset="0" style="stop-color:#DAF5FD"/>
		<stop  offset="1" style="stop-color:#00C9FC"/>
	</linearGradient>
	<path fill="url(#SVGID_23_)" d="M731.649,112.662c-5.079-12.214-14.103-21.588-24.979-27.266
		c-1.533-28.813-25.381-51.705-54.575-51.705c-19.017,0-35.762,9.713-45.553,24.447c-8.563-6.394-19.189-10.18-30.7-10.18
		c-23.585,0-43.455,15.895-49.487,37.557c-8.271-5.708-18.522-8.638-29.306-7.576c-21.349,2.103-37.619,19.123-39.525,39.717
		c-3.873-1.768-8.173-2.76-12.707-2.76c-16.924,0-30.644,13.72-30.644,30.644c0,16.924,13.618,22.714,30.541,22.714
		c6.888,0,15.515-8.008,20.632-11.844c8.957,17.641,26.056,25.042,47.194,25.042c16.832,0,31.873-12.249,41.827-24.277
		c9.575,15.399,25.998,31.926,45.466,31.926c21.097,0,37.254-18.164,46.23-35.747c14.951,11.772,33.524,24.637,52.344,16.812
		C726.094,158.651,743.162,140.349,731.649,112.662z"/>
	<path fill="#DAF5FD" d="M731.649,112.662c-5.079-12.214-14.103-21.588-24.979-27.266c-1.533-28.813-22.318-47.312-51.513-47.312
		c-19.017,0-37.509,16.863-47.3,31.597c-8.564-6.394-19.19-10.181-30.7-10.181c-23.585,0-45.713,18.586-46.478,43.42
		c-8.271-5.708-20.164-10.996-30.947-9.934c-21.35,2.103-32.097,20.287-34.004,40.882c-30.501-19.289-41.646,1.91-41.646,10.697
		c0,8.788,8.1,22.786,25.022,22.786c6.888,0,11.123-7.106,16.24-10.942c8.957,17.641,26.056,25.042,47.194,25.042
		c16.832,0,31.873-12.249,41.827-24.277c9.575,15.399,25.998,31.926,45.466,31.926c21.097,0,37.254-18.164,46.23-35.747
		c14.951,11.772,33.524,24.637,52.344,16.812C726.094,158.651,743.162,140.349,731.649,112.662z"/>
	<linearGradient id="SVGID_24_" gradientUnits="userSpaceOnUse" x1="414.1738" y1="142.7158" x2="705.9219" y2="142.7158">
		<stop  offset="0" style="stop-color:#ABEBFE"/>
		<stop  offset="1" style="stop-color:#00C9FC"/>
	</linearGradient>
	<path opacity="0.5" fill="url(#SVGID_24_)" d="M528.188,80.144c-0.703,1.747-1.322,3.536-1.833,5.371
		c-3.661-2.527-7.712-4.506-12.023-5.839c-9.596-0.064-19.575,0.398-29.943,1.454c-14.871,6.21-25.357,20.248-26.864,36.527
		c-3.873-1.768-8.173-2.76-12.707-2.76c-16.924,0-30.644,13.72-30.644,30.644c0,16.924,13.72,30.644,30.644,30.644
		c6.888,0,13.244-2.273,18.362-6.109c8.957,17.641,27.271,29.729,48.411,29.729c16.831,0,31.873-7.664,41.827-19.693
		c9.574,15.399,26.644,25.652,46.111,25.652c21.097,0,39.381-12.04,48.358-29.623c14.951,11.772,35.658,15.327,54.478,7.501
		c1.214-0.505,2.398-1.052,3.557-1.633C687.5,154.483,631.813,86.458,528.188,80.144z"/>
	<radialGradient id="SVGID_25_" cx="618.8398" cy="104.2534" r="210.0926" gradientUnits="userSpaceOnUse">
		<stop  offset="0" style="stop-color:#FFFFFF"/>
		<stop  offset="1" style="stop-color:#FFFFFF;stop-opacity:0"/>
	</radialGradient>
	<path opacity="0.8" fill="url(#SVGID_25_)" d="M731.649,112.662c-5.079-12.214-14.103-21.588-24.979-27.266
		c-1.533-28.813-25.381-51.705-54.575-51.705c-19.017,0-35.762,9.713-45.553,24.447c-8.563-6.394-19.189-10.18-30.7-10.18
		c-23.585,0-43.455,15.895-49.487,37.557c-8.271-5.708-18.522-8.638-29.306-7.576c-21.349,2.103-37.619,19.123-39.525,39.717
		c-3.873-1.768-8.173-2.76-12.707-2.76c-16.924,0-30.644,13.72-30.644,30.644c0,16.924,13.72,30.644,30.644,30.644
		c6.888,0,13.244-2.273,18.362-6.109c8.957,17.641,27.271,29.729,48.411,29.729c16.831,0,31.873-7.664,41.827-19.693
		c9.574,15.399,26.644,25.652,46.111,25.652c21.097,0,39.381-12.04,48.358-29.623c14.951,11.772,35.658,15.327,54.478,7.501
		C730.051,172.127,743.162,140.349,731.649,112.662z"/>
	<linearGradient id="SVGID_26_" gradientUnits="userSpaceOnUse" x1="680.9297" y1="41.2754" x2="511.5864" y2="206.3208">
		<stop  offset="0" style="stop-color:#00C9FC"/>
		<stop  offset="1" style="stop-color:#017BC0"/>
	</linearGradient>
	<path fill="url(#SVGID_26_)" d="M599.529,210.06c-18.5,0-35.533-8.524-46.58-23.059c-10.943,10.93-25.729,17.1-41.358,17.1
		c-20.586,0-39.311-10.591-49.929-27.938c-5.132,2.837-10.872,4.318-16.845,4.318c-19.267,0-34.941-15.675-34.941-34.942
		c0-19.268,15.675-34.942,34.941-34.942c3.156,0,6.247,0.416,9.241,1.239c4.265-20.403,21.401-36.091,42.57-38.176
		c1.587-0.156,3.196-0.235,4.783-0.235c7.928,0,15.633,1.931,22.576,5.625c8.253-21.092,28.836-35.392,51.854-35.392
		c10.628,0,20.799,2.944,29.668,8.554c11.143-14.366,28.251-22.821,46.585-22.821c30.534,0,55.861,23.247,58.689,53.36
		c11.119,6.408,19.886,16.362,24.833,28.259c12.404,29.831-1.772,64.192-31.604,76.597c-7.187,2.989-14.747,4.504-22.468,4.504
		h-0.002c-11.441,0-22.728-3.413-32.274-9.687C638.619,199.59,619.982,210.06,599.529,210.06z M553.914,172.768l3.153,5.073
		c9.197,14.792,25.071,23.623,42.462,23.623c18.876,0,35.939-10.453,44.53-27.279l2.378-4.658l4.109,3.236
		c8.808,6.935,19.816,10.754,30.999,10.754c6.582,0,13.032-1.293,19.169-3.845c25.453-10.585,37.551-39.905,26.966-65.359
		c-4.486-10.79-12.654-19.706-22.999-25.106l-2.173-1.135l-0.13-2.447c-1.421-26.711-23.509-47.635-50.283-47.635
		c-16.909,0-32.599,8.421-41.972,22.527l-2.514,3.782l-3.639-2.716c-8.172-6.102-17.898-9.326-28.129-9.326
		c-21.057,0-39.704,14.15-45.347,34.412l-1.618,5.811l-4.964-3.426c-6.664-4.599-14.445-7.03-22.502-7.03
		c-1.307,0-2.633,0.065-3.94,0.194c-18.918,1.863-33.918,16.934-35.668,35.836l-0.558,6.027l-5.507-2.514
		c-3.448-1.574-7.123-2.372-10.922-2.372c-14.527,0-26.345,11.818-26.345,26.346c0,14.526,11.817,26.345,26.345,26.345
		c5.743,0,11.201-1.816,15.784-5.25l4.094-3.068l2.316,4.562c8.574,16.886,25.656,27.376,44.579,27.376
		c14.94,0,28.979-6.61,38.515-18.134L553.914,172.768z"/>
	<radialGradient id="SVGID_27_" cx="351.0049" cy="-670.5884" r="292.9913" gradientUnits="userSpaceOnUse">
		<stop  offset="0" style="stop-color:#FFFFFF"/>
		<stop  offset="1" style="stop-color:#DAF5FD"/>
	</radialGradient>
	<path fill="url(#SVGID_27_)" d="M706.877-686.637c-11.539-27.747-32.039-49.044-56.746-61.942
		c-3.482-65.457-57.659-117.462-123.982-117.462c-43.2,0-81.242,22.066-103.483,55.538c-19.456-14.526-43.596-23.128-69.744-23.128
		c-53.58,0-98.72,36.11-112.424,85.321c-18.789-12.967-42.078-19.623-66.575-17.21c-48.5,4.776-85.462,43.442-89.794,90.229
		c-8.797-4.016-18.565-6.271-28.866-6.271c-38.446,0-69.614,31.168-69.614,69.615s31.168,69.615,69.614,69.615
		c15.647,0,30.088-5.165,41.714-13.879c20.35,40.075,61.956,67.536,109.979,67.536c38.237,0,72.408-17.411,95.021-44.737
		c21.752,34.982,60.529,58.275,104.755,58.275c47.927,0,89.465-27.352,109.858-67.296c33.966,26.743,81.007,34.818,123.76,17.041
		C703.245-551.547,733.031-623.739,706.877-686.637z"/>
	<linearGradient id="SVGID_28_" gradientUnits="userSpaceOnUse" x1="591.6533" y1="-848.8101" x2="206.9449" y2="-473.8655">
		<stop  offset="0" style="stop-color:#00C9FC"/>
		<stop  offset="1" style="stop-color:#017BC0"/>
	</linearGradient>
	<path fill="url(#SVGID_28_)" d="M406.73-465.371c-42.027,0-80.723-19.364-105.818-52.385
		c-24.861,24.829-58.451,38.847-93.958,38.847c-46.765,0-89.304-24.06-113.425-63.467c-11.659,6.445-24.7,9.81-38.268,9.81
		c-43.77,0-79.379-35.609-79.379-79.38s35.609-79.38,79.379-79.38c7.17,0,14.191,0.943,20.994,2.814
		c9.688-46.351,48.619-81.989,96.709-86.726c3.605-0.355,7.261-0.535,10.866-0.535c18.01,0,35.514,4.387,51.288,12.778
		c18.749-47.916,65.509-80.401,117.802-80.401c24.144,0,47.249,6.689,67.398,19.434c25.312-32.637,64.179-51.844,105.829-51.844
		c69.368,0,126.904,52.811,133.33,121.221c25.26,14.559,45.175,37.172,56.414,64.199c28.18,67.769-4.026,145.829-71.795,174.011
		c-16.327,6.79-33.502,10.232-51.043,10.232c-0.001,0-0.001,0-0.004,0c-25.992-0.001-51.632-7.752-73.32-22.005
		C495.534-489.156,453.196-465.371,406.73-465.371z M303.104-550.09l7.164,11.523c20.895,33.604,56.955,53.666,96.463,53.666
		c42.883,0,81.646-23.747,101.162-61.972l5.402-10.582l9.335,7.351c20.009,15.754,45.019,24.431,70.423,24.432
		c14.954,0,29.606-2.938,43.547-8.734c57.824-24.047,85.307-90.655,61.262-148.481c-10.193-24.511-28.749-44.767-52.249-57.035
		l-4.937-2.578l-0.295-5.56c-3.229-60.682-53.406-108.216-114.232-108.216c-38.412,0-74.057,19.132-95.35,51.178l-5.71,8.591
		l-8.266-6.171c-18.565-13.861-40.662-21.188-63.902-21.188c-47.837,0-90.199,32.146-103.017,78.176l-3.677,13.2l-11.276-7.782
		c-15.139-10.448-32.817-15.971-51.12-15.971c-2.968,0-5.98,0.148-8.951,0.441c-42.977,4.232-77.054,38.471-81.029,81.411
		l-1.268,13.693l-12.51-5.711c-7.833-3.575-16.181-5.389-24.812-5.389c-33.002,0-59.85,26.849-59.85,59.851
		c0,33.001,26.848,59.851,59.85,59.851c13.047,0,25.447-4.125,35.858-11.928l9.3-6.971l5.263,10.363
		c19.479,38.361,58.284,62.192,101.271,62.192c33.941,0,65.833-15.016,87.498-41.197L303.104-550.09z"/>
	<linearGradient id="SVGID_29_" gradientUnits="userSpaceOnUse" x1="71.1973" y1="322.5825" x2="303.2129" y2="322.5825">
		<stop  offset="0" style="stop-color:#ABEBFE"/>
		<stop  offset="1" style="stop-color:#00C9FC"/>
	</linearGradient>
	<path opacity="0.5" fill="url(#SVGID_29_)" d="M282.374,369.838c8.133-0.801,15.343-4.306,20.839-9.534
		c-25.245-24.574-91.586-83.971-150.699-92.175c-0.612,1-1.191,2.024-1.724,3.075c-2.406-1.623-5.019-2.95-7.779-3.943
		c-12.441-0.52-24.435,1.512-35.506,6.94c-6.926,6.223-11.32,15.106-11.704,24.85c-0.013,0-0.025-0.001-0.037-0.001
		c-13.568,0-24.566,10.999-24.566,24.567c0,13.567,10.999,24.565,24.566,24.565c0.884,0,1.758-0.049,2.619-0.141
		c5.744,14.096,20.227,23.365,36.148,21.797c4.362-0.431,8.457-1.642,12.169-3.476c7.764,7.21,18.161,11.621,29.592,11.621
		c10.178,0,19.538-3.497,26.948-9.353c5.104,2.102,10.692,3.264,16.554,3.264c12.789,0,24.288-5.519,32.248-14.305
		C259.284,366.083,270.423,371.015,282.374,369.838z"/>
	<radialGradient id="SVGID_30_" cx="232.3311" cy="309.9751" r="155.101" gradientUnits="userSpaceOnUse">
		<stop  offset="0" style="stop-color:#FFFFFF"/>
		<stop  offset="1" style="stop-color:#FFFFFF;stop-opacity:0"/>
	</radialGradient>
	<path opacity="0.8" fill="url(#SVGID_30_)" d="M314.219,303.828c-0.363,0-0.724,0.012-1.083,0.027
		c-3.843-15.237-17.443-26.174-33.216-26.604c-6.257-14.769-20.887-25.13-37.936-25.13c-8.265,0-15.959,2.437-22.409,6.628
		c-7.806-7.19-18.229-11.584-29.678-11.584c-17.083,0-31.881,9.778-39.107,24.041c-6.575-4.433-14.674-6.689-23.181-5.851
		c-17.753,1.749-31.125,16.362-31.809,33.697c-0.013,0-0.025-0.001-0.037-0.001c-13.568,0-24.566,10.999-24.566,24.567
		c0,13.567,10.999,24.565,24.566,24.565c0.884,0,1.758-0.049,2.619-0.141c5.744,14.096,20.227,23.365,36.148,21.797
		c4.362-0.431,8.457-1.642,12.169-3.476c7.764,7.21,18.161,11.621,29.592,11.621c10.178,0,19.538-3.497,26.948-9.353
		c5.104,2.102,10.692,3.264,16.554,3.264c12.789,0,24.288-5.519,32.248-14.305c7.243,8.492,18.382,13.425,30.333,12.248
		c11.713-1.154,21.515-7.912,27.031-17.354c1.557,0.31,3.165,0.476,4.813,0.476c13.567,0,24.566-10.999,24.566-24.566
		C338.785,314.826,327.786,303.828,314.219,303.828z"/>
	<linearGradient id="SVGID_31_" gradientUnits="userSpaceOnUse" x1="231.0938" y1="240.895" x2="187.5997" y2="382.7112">
		<stop  offset="0" style="stop-color:#00C9FC"/>
		<stop  offset="1" style="stop-color:#017BC0"/>
	</linearGradient>
	<path fill="url(#SVGID_31_)" d="M176.291,381.888c-11.125,0-21.777-3.863-30.278-10.93c-3.537,1.459-7.26,2.388-11.1,2.766
		c-1.29,0.127-2.597,0.192-3.885,0.192c-15.043,0-28.534-8.48-35.108-21.829c-0.053,0.001-0.104,0.001-0.157,0.001
		c-15.699,0-28.472-12.772-28.472-28.472c0-14.493,10.883-26.492,24.907-28.251c2.343-17.816,16.841-32.108,35.027-33.899
		c1.288-0.127,2.595-0.191,3.884-0.191c6.398,0,12.629,1.553,18.242,4.521c8.677-14.001,23.857-22.538,40.545-22.538
		c11.021,0,21.597,3.774,30.088,10.682c6.703-3.754,14.249-5.725,21.999-5.725c17.328,0,32.971,9.843,40.514,25.278
		c15.395,1.404,28.637,11.878,33.565,26.489c14.843,0.953,26.627,13.332,26.627,28.412c0,15.699-12.772,28.472-28.472,28.472
		c-0.956,0-1.916-0.049-2.872-0.146c-6.51,9.57-17.014,15.864-28.59,17.005c-1.289,0.127-2.595,0.191-3.882,0.191
		c-10.052,0-19.643-3.864-26.892-10.723c-8.721,8.056-20.235,12.606-32.19,12.606c-5.479,0-10.829-0.923-15.934-2.748
		C195.794,378.841,186.311,381.888,176.291,381.888z M147.383,361.669l1.974,1.832c7.344,6.82,16.909,10.577,26.935,10.577
		c9,0,17.481-2.944,24.527-8.512l1.794-1.417l2.114,0.87c4.785,1.971,9.854,2.97,15.066,2.97c11.157,0,21.855-4.746,29.354-13.021
		l2.981-3.292l2.884,3.379c5.99,7.022,14.688,11.049,23.863,11.049c1.033,0,2.081-0.052,3.116-0.153
		c9.98-0.983,18.969-6.754,24.042-15.437l1.403-2.403l2.73,0.543c1.333,0.265,2.696,0.399,4.052,0.399
		c11.392,0,20.661-9.269,20.661-20.66c0-11.393-9.27-20.661-20.661-20.661c-0.306,0-0.609,0.01-0.912,0.023l-3.179,0.139
		l-0.778-3.085c-3.416-13.546-15.562-23.274-29.536-23.655l-2.51-0.068l-0.979-2.312c-5.854-13.819-19.333-22.749-34.34-22.749
		c-7.23,0-14.243,2.074-20.281,5.997l-2.542,1.653l-2.231-2.055c-7.387-6.804-16.987-10.552-27.032-10.552
		c-15.129,0-28.779,8.392-35.625,21.901l-1.999,3.946l-3.667-2.474c-5.197-3.504-11.247-5.356-17.496-5.356
		c-1.034,0-2.083,0.052-3.118,0.154c-15.514,1.528-27.676,14.41-28.29,29.965l-0.148,3.751l-3.848-0.001
		c-11.366,0.03-20.604,9.287-20.604,20.662c0,11.392,9.269,20.66,20.661,20.66c0.72,0,1.462-0.039,2.207-0.118l2.92-0.31l1.108,2.72
		c4.837,11.868,16.232,19.536,29.03,19.536c1.033,0,2.083-0.052,3.119-0.153c3.785-0.373,7.426-1.412,10.821-3.09L147.383,361.669z"
		/>
	<rect x="-2094.011" y="789.667" fill="#DAF5FD" width="413.016" height="86.885"/>
	<path fill="#00C9FC" d="M47.699,144.867c0-14.59,6.811-27.589,17.426-35.993c-1.19-3.069-1.851-6.402-1.851-9.892
		c0-15.118,12.255-27.374,27.373-27.374c0.293,0,0.584,0.013,0.875,0.022c4.315-22.55,24.14-39.593,47.946-39.593
		c25.823,0,46.96,20.048,48.703,45.427c4.925-7.249,13.234-12.012,22.658-12.012c14.946,0,27.087,11.982,27.36,26.864
		c8.036-7.989,19.445-12.462,31.604-11.265c21.62,2.13,37.42,21.382,35.291,43.003c-0.426,4.324-1.547,8.41-3.225,12.171
		c1.12-0.14,2.26-0.22,3.417-0.22c15.118,0,27.373,12.255,27.373,27.374c0,15.117-12.255,27.373-27.373,27.373
		c-0.086,0-0.17-0.005-0.256-0.006v0.006H93.584l0,0C68.243,190.752,47.699,170.208,47.699,144.867z"/>
	<linearGradient id="SVGID_32_" gradientUnits="userSpaceOnUse" x1="52.2549" y1="104.7407" x2="327.3584" y2="104.7407">
		<stop  offset="0" style="stop-color:#DAF5FD"/>
		<stop  offset="1" style="stop-color:#ABEBFE"/>
	</linearGradient>
	<path fill="url(#SVGID_32_)" d="M52.255,142.716c0-14.59,2.255-25.438,12.87-33.842c-1.19-3.069-1.851-6.402-1.851-9.892
		c0-15.118,12.255-27.374,27.373-27.374c0.293,0,0.584,0.013,0.875,0.022c4.315-22.55,24.14-39.593,47.946-39.593
		c25.823,0,46.96,20.048,48.703,45.427c4.925-7.249,13.234-12.012,22.658-12.012c14.946,0,27.087,11.982,27.36,26.864
		c8.036-7.989,19.445-12.462,31.604-11.265c21.62,2.13,37.42,21.382,35.291,43.003c-0.426,4.324-1.547,8.41-3.225,12.171
		c1.12-0.14,2.26-0.22,3.417-0.22c15.118,0,22.081,6.298,22.081,21.416c0,15.117-6.963,19.521-22.081,19.521
		c-0.086,0-211.693,0.5-211.693,0.5C68.243,177.443,52.255,168.058,52.255,142.716z"/>
	<path fill="#00C9FC" d="M736.325,307.272c-4.017-9.657-10.754-17.354-18.952-22.579c-0.771-26.682-22.643-48.074-49.51-48.074
		c-22.236,0-41.049,14.651-47.312,34.827c-7.311-4.776-16.044-7.555-25.428-7.555c-16.637,0-31.232,8.729-39.464,21.854
		c-8.19-8.697-20.173-13.646-32.981-12.385c-21.935,2.161-37.965,21.693-35.804,43.628c0.183,1.854,0.499,3.661,0.92,5.423
		c-3.55-1.647-7.502-2.573-11.673-2.573c-15.338,0-27.771,12.434-27.771,27.771c0,15.337,12.433,27.771,27.771,27.771
		c0.087,0,0.172-0.005,0.26-0.006v0.006h214.512v-0.002c6.303,0.002,12.71-1.211,18.893-3.782
		C734.876,361.163,746.758,332.363,736.325,307.272z"/>
	<linearGradient id="SVGID_33_" gradientUnits="userSpaceOnUse" x1="454.8896" y1="298.4927" x2="733.4932" y2="298.4927">
		<stop  offset="0" style="stop-color:#DAF5FD"/>
		<stop  offset="1" style="stop-color:#00C9FC"/>
	</linearGradient>
	<path fill="url(#SVGID_33_)" d="M727.999,301.417c-4.017-9.657-2.428-11.499-10.626-16.724
		c-0.771-26.682-22.643-48.074-49.51-48.074c-22.236,0-41.049,14.651-47.312,34.827c-7.311-4.776-16.044-7.555-25.428-7.555
		c-16.637,0-31.232,8.729-39.464,21.854c-8.19-8.697-20.173-13.646-32.981-12.385c-21.935,2.161-37.965,21.693-35.804,43.628
		c0.183,1.854,0.499,3.661,0.92,5.423c-3.55-1.647-7.502-2.573-11.673-2.573c-15.338,0-21.231,5.708-21.231,21.046
		c0,15.337,5.894,19.483,21.231,19.483c0.087,0,214.771,0,214.771,0c6.303,0.002,12.71-0.713,18.893-3.284
		C734.876,346.65,738.432,326.507,727.999,301.417z"/>
	<path fill="#DAF5FD" d="M726.69,312.688c-3.681-9.79-10.492-16.214-18.69-21.438c-0.771-26.682-13.27-54.631-40.137-54.631
		c-22.236,0-41.049,14.651-47.312,34.827c-7.311-4.776-16.044-7.555-25.428-7.555c-16.637,0-31.232,8.729-39.464,21.854
		c-8.19-8.697-20.173-13.646-32.981-12.385c-21.935,2.161-37.965,21.693-35.804,43.628c0.183,1.854,0.499,3.661,0.92,5.423
		c-3.55-1.647-7.502-2.573-11.673-2.573c-15.338,0-21.231,5.708-21.231,21.046c0,15.337,5.894,19.483,21.231,19.483
		c0.087,0,214.771,0,214.771,0c6.303,0.002,12.71-0.713,18.893-3.284C734.876,346.65,730.198,322.018,726.69,312.688z"/>
	<linearGradient id="SVGID_34_" gradientUnits="userSpaceOnUse" x1="448.3506" y1="335.0708" x2="723.21" y2="335.0708">
		<stop  offset="0" style="stop-color:#ABEBFE"/>
		<stop  offset="1" style="stop-color:#00C9FC"/>
	</linearGradient>
	<path opacity="0.5" fill="url(#SVGID_34_)" d="M487.528,304.863c-0.816,3.888-1.064,7.963-0.654,12.126
		c0.183,1.854,0.499,3.661,0.92,5.423c-3.55-1.647-7.502-2.573-11.673-2.573c-15.338,0-27.771,12.434-27.771,27.771
		c0,15.337,12.433,27.771,27.771,27.771c0.087,0,0.172-0.005,0.26-0.006v0.006h214.512v-0.002c6.303,0.002,12.71-1.211,18.893-3.782
		c5.035-2.094,9.527-4.938,13.425-8.332c-9.518-9.67-18.701-18.558-27.565-26.742C653.524,306.961,584.494,279.258,487.528,304.863z
		"/>
	<radialGradient id="SVGID_35_" cx="665.0635" cy="305.8384" r="190.3728" gradientUnits="userSpaceOnUse">
		<stop  offset="0" style="stop-color:#FFFFFF"/>
		<stop  offset="1" style="stop-color:#FFFFFF;stop-opacity:0"/>
	</radialGradient>
	<path opacity="0.8" fill="url(#SVGID_35_)" d="M736.325,307.272c-4.017-9.657-10.754-17.354-18.952-22.579
		c-0.771-26.682-22.643-48.074-49.51-48.074c-22.236,0-41.049,14.651-47.312,34.827c-7.311-4.776-16.044-7.555-25.428-7.555
		c-16.637,0-31.232,8.729-39.464,21.854c-8.19-8.697-20.173-13.646-32.981-12.385c-21.935,2.161-37.965,21.693-35.804,43.628
		c0.183,1.854,0.499,3.661,0.92,5.423c-3.55-1.647-7.502-2.573-11.673-2.573c-15.338,0-27.771,12.434-27.771,27.771
		c0,15.337,12.433,27.771,27.771,27.771c0.087,0,0.172-0.005,0.26-0.006v0.006h214.512v-0.002c6.303,0.002,12.71-1.211,18.893-3.782
		C734.876,361.163,746.758,332.363,736.325,307.272z"/>
	<linearGradient id="SVGID_36_" gradientUnits="userSpaceOnUse" x1="594.2236" y1="242.2495" x2="594.2236" y2="365.8951">
		<stop  offset="0" style="stop-color:#00C9FC"/>
		<stop  offset="1" style="stop-color:#017BC0"/>
	</linearGradient>
	<path fill="url(#SVGID_36_)" d="M690.893,380.88H470.881v-0.412c-15.864-2.521-28.03-16.296-28.03-32.858
		c0-18.346,14.925-33.271,33.271-33.271c1.719,0,3.417,0.129,5.089,0.386c-0.418-11.085,3.181-21.805,10.278-30.453
		c7.694-9.376,18.579-15.194,30.65-16.384c11.722-1.151,23.52,2.39,32.663,9.627c9.832-12.079,24.482-19.123,40.321-19.123
		c7.868,0,15.551,1.759,22.551,5.129c8.793-19.626,28.205-32.401,50.189-32.401c14.417,0,28.046,5.537,38.377,15.59
		c9.619,9.361,15.404,21.683,16.474,34.955c8.308,5.924,14.737,13.994,18.689,23.496c11.581,27.853-1.655,59.934-29.507,71.515
		c-6.706,2.79-13.769,4.204-20.988,4.204l0,0l-0.016-5.5V380.88z M481.881,369.88l209.027-0.002c5.763,0,11.403-1.131,16.765-3.36
		c22.251-9.253,32.826-34.883,23.574-57.135c-3.453-8.302-9.273-15.236-16.83-20.052l-2.457-1.566l-0.085-2.913
		c-0.692-23.963-20.025-42.733-44.012-42.733c-19.408,0-36.312,12.441-42.06,30.958l-2.161,6.959l-6.1-3.985
		c-6.668-4.356-14.421-6.659-22.42-6.659c-14.224,0-27.234,7.206-34.805,19.276l-3.782,6.032l-4.881-5.184
		c-7.274-7.725-17.877-11.717-28.438-10.682c-9.146,0.901-17.395,5.31-23.226,12.414c-5.83,7.104-8.545,16.055-7.644,25.201
		c0.15,1.527,0.418,3.104,0.796,4.684l2.64,11.05l-10.305-4.782c-2.948-1.369-6.097-2.062-9.357-2.062
		c-12.28,0-22.271,9.991-22.271,22.271s9.99,22.271,22.271,22.271l0.197-0.006l5.562-0.062V369.88z"/>
	
		<linearGradient id="SVGID_37_" gradientUnits="userSpaceOnUse" x1="117.7983" y1="304.1724" x2="176.5898" y2="304.1724" gradientTransform="matrix(0.9052 0.425 -0.425 0.9052 149.8482 -30.1055)">
		<stop  offset="0" style="stop-color:#FFFFFF;stop-opacity:0"/>
		<stop  offset="0.5008" style="stop-color:#FFFFFF"/>
		<stop  offset="1" style="stop-color:#FFFFFF;stop-opacity:0"/>
	</linearGradient>
	<path fill="url(#SVGID_37_)" d="M145.217,297.083c17.509,0.786,31.107,15.453,30.655,32.896c0.105-0.834,0.181-1.68,0.219-2.534
		c0.765-17.043-12.431-31.479-29.474-32.244c-9.395-0.422-17.996,3.4-23.953,9.77C128.669,299.727,136.624,296.698,145.217,297.083z
		"/>
	
		<linearGradient id="SVGID_38_" gradientUnits="userSpaceOnUse" x1="216.6016" y1="326.897" x2="260.9551" y2="326.897" gradientTransform="matrix(0.8968 -0.4425 0.4425 0.8968 -127.2512 101.1194)">
		<stop  offset="0" style="stop-color:#FFFFFF;stop-opacity:0"/>
		<stop  offset="0.5008" style="stop-color:#FFFFFF"/>
		<stop  offset="1" style="stop-color:#FFFFFF;stop-opacity:0"/>
	</linearGradient>
	<path fill="url(#SVGID_38_)" d="M221.176,288.654c8.702-9.955,23.751-11.073,33.824-2.599c-0.442-0.455-0.906-0.897-1.393-1.322
		c-9.691-8.471-24.413-7.481-32.882,2.209c-4.67,5.342-6.463,12.213-5.511,18.723C214.948,299.656,216.906,293.539,221.176,288.654z
		"/>
	
		<linearGradient id="SVGID_39_" gradientUnits="userSpaceOnUse" x1="161.6904" y1="547.1411" x2="206.0439" y2="547.1411" gradientTransform="matrix(0.8968 -0.4425 0.4425 0.8968 -127.2512 101.1194)">
		<stop  offset="0" style="stop-color:#FFFFFF;stop-opacity:0"/>
		<stop  offset="0.5008" style="stop-color:#FFFFFF"/>
		<stop  offset="1" style="stop-color:#FFFFFF;stop-opacity:0"/>
	</linearGradient>
	<path fill="url(#SVGID_39_)" d="M269.39,510.465c8.702-9.955,23.751-11.072,33.824-2.598c-0.442-0.455-0.906-0.898-1.393-1.322
		c-9.691-8.471-24.413-7.482-32.882,2.209c-4.67,5.342-6.463,12.213-5.511,18.723C263.162,521.467,265.12,515.35,269.39,510.465z"/>
	
		<linearGradient id="SVGID_40_" gradientUnits="userSpaceOnUse" x1="456.9482" y1="675.6626" x2="513.8662" y2="675.6626" gradientTransform="matrix(0.8968 -0.4425 0.4425 0.8968 -127.2512 101.1194)">
		<stop  offset="0" style="stop-color:#FFFFFF;stop-opacity:0"/>
		<stop  offset="0.5008" style="stop-color:#FFFFFF"/>
		<stop  offset="1" style="stop-color:#FFFFFF;stop-opacity:0"/>
	</linearGradient>
	<path fill="url(#SVGID_40_)" d="M593.747,492.301c11.167-12.775,30.479-14.209,43.405-3.334c-0.567-0.584-1.162-1.152-1.786-1.697
		c-12.437-10.869-31.329-9.6-42.197,2.836c-5.993,6.854-8.294,15.672-7.071,24.025C585.755,506.42,588.268,498.571,593.747,492.301z
		"/>
	
		<linearGradient id="SVGID_41_" gradientUnits="userSpaceOnUse" x1="396.333" y1="623.8452" x2="453.2549" y2="623.8452" gradientTransform="matrix(0.8534 0.5212 -0.5212 0.8534 496.0756 -283.803)">
		<stop  offset="0" style="stop-color:#FFFFFF;stop-opacity:0"/>
		<stop  offset="0.5008" style="stop-color:#FFFFFF"/>
		<stop  offset="1" style="stop-color:#FFFFFF;stop-opacity:0"/>
	</linearGradient>
	<path fill="url(#SVGID_41_)" d="M526.304,458.778c16.767,2.605,28.304,18.158,26.026,34.896c0.189-0.792,0.352-1.599,0.479-2.417
		c2.535-16.321-8.64-31.607-24.959-34.142c-8.996-1.4-17.678,1.37-24.084,6.87C510.099,459.574,518.076,457.5,526.304,458.778z"/>
	<linearGradient id="SVGID_42_" gradientUnits="userSpaceOnUse" x1="47.6987" y1="145.4829" x2="332.6504" y2="145.4829">
		<stop  offset="0" style="stop-color:#ABEBFE"/>
		<stop  offset="1" style="stop-color:#00C9FC"/>
	</linearGradient>
	<path opacity="0.5" fill="url(#SVGID_42_)" d="M332.65,163.38c0-15.118-12.255-27.374-27.373-27.374
		c-1.157,0-2.297,0.081-3.417,0.22c1.584-3.552,2.664-7.396,3.14-11.455C182.696,83.1,98.471,102.854,53.395,122.731
		c-3.624,6.565-5.696,14.106-5.696,22.135c0,25.342,20.544,45.886,45.885,45.886h211.438v-0.006c0.086,0.001,0.17,0.006,0.256,0.006
		C320.396,190.752,332.65,178.497,332.65,163.38z"/>
	<radialGradient id="SVGID_43_" cx="138.001" cy="83.3345" r="210.828" gradientUnits="userSpaceOnUse">
		<stop  offset="0" style="stop-color:#FFFFFF"/>
		<stop  offset="1" style="stop-color:#FFFFFF;stop-opacity:0"/>
	</radialGradient>
	<path opacity="0.8" fill="url(#SVGID_43_)" d="M47.699,144.867c0-14.59,6.811-27.589,17.426-35.993
		c-1.19-3.069-1.851-6.402-1.851-9.892c0-15.118,12.255-27.374,27.373-27.374c0.293,0,0.584,0.013,0.875,0.022
		c4.315-22.55,24.14-39.593,47.946-39.593c25.823,0,46.96,20.048,48.703,45.427c4.925-7.249,13.234-12.012,22.658-12.012
		c14.946,0,27.087,11.982,27.36,26.864c8.036-7.989,19.445-12.462,31.604-11.265c21.62,2.13,37.42,21.382,35.291,43.003
		c-0.426,4.324-1.547,8.41-3.225,12.171c1.12-0.14,2.26-0.22,3.417-0.22c15.118,0,27.373,12.255,27.373,27.374
		c0,15.117-12.255,27.373-27.373,27.373c-0.086,0-0.17-0.005-0.256-0.006v0.006H93.584l0,0
		C68.243,190.752,47.699,170.208,47.699,144.867z"/>
	<linearGradient id="SVGID_44_" gradientUnits="userSpaceOnUse" x1="43.1987" y1="111.395" x2="337.1504" y2="111.395">
		<stop  offset="0" style="stop-color:#00C9FC"/>
		<stop  offset="1" style="stop-color:#017BC0"/>
	</linearGradient>
	<path fill="url(#SVGID_44_)" d="M305.277,195.252c-0.02,0-0.039,0-0.059,0l-0.197,0H93.584c-27.783,0-50.385-22.603-50.385-50.386
		c0-14.427,6.05-27.913,16.704-37.474c-0.75-2.734-1.128-5.551-1.128-8.411c0-16.654,12.837-30.365,29.136-31.757
		c6.11-23.202,27.237-39.687,51.558-39.687c24.681,0,45.804,17.034,51.689,40.21c5.542-4.349,12.441-6.795,19.672-6.795
		c14.351,0,26.654,9.713,30.567,22.908c7.188-4.878,15.649-7.501,24.495-7.501c1.44,0,2.901,0.072,4.343,0.214
		c24.054,2.37,41.696,23.868,39.328,47.922c-0.238,2.422-0.677,4.811-1.309,7.148c16.184,1.507,28.896,15.165,28.896,31.736
		c0,16.136-12.053,29.51-27.629,31.591v0.275l-4.04,0.006C305.413,195.252,305.346,195.252,305.277,195.252z M300.521,186.202
		l4.771,0.05l-0.016,0c12.612,0,22.873-10.261,22.873-22.873c0-12.612-10.261-22.874-22.873-22.874c-0.91,0-1.872,0.062-2.86,0.186
		l-7.916,0.987l3.25-7.285c1.527-3.426,2.488-7.053,2.855-10.779c1.883-19.116-12.138-36.201-31.254-38.083
		c-1.148-0.113-2.313-0.171-3.46-0.171c-9.235,0-17.946,3.604-24.529,10.148l-7.479,7.434l-0.193-10.543
		c-0.228-12.377-10.483-22.446-22.861-22.446c-7.586,0-14.664,3.753-18.936,10.041l-7.319,10.773l-0.893-12.994
		c-1.588-23.123-21.01-41.236-44.214-41.236c-21.236,0-39.542,15.114-43.526,35.938l-0.722,3.774l-4.054-0.13
		c-0.172-0.006-0.345-0.013-0.519-0.013c-12.612,0-22.873,10.261-22.873,22.874c0,2.839,0.52,5.62,1.546,8.264l1.201,3.095
		l-2.603,2.061c-9.99,7.91-15.72,19.743-15.72,32.465c0,22.82,18.565,41.386,41.385,41.386h206.938V186.202z"/>
	<rect x="2105.018" y="218.8" fill="#DAF5FD" width="491.788" height="87.994"/>
	<path fill="#00C9FC" d="M332.034,504.988c-0.378,0-0.752,0.013-1.126,0.029c-4.001-15.865-18.161-27.25-34.582-27.699
		c-6.514-15.376-21.745-26.163-39.494-26.163c-8.605,0-16.616,2.537-23.331,6.9c-8.127-7.486-18.978-12.061-30.898-12.061
		c-17.785,0-33.191,10.18-40.715,25.029c-6.845-4.615-15.276-6.965-24.133-6.093c-20.201,1.99-34.964,19.979-32.975,40.181
		c0.027,0.285,0.07,0.565,0.105,0.849c-2.221-0.629-4.561-0.973-6.983-0.973c-14.125,0-25.576,11.451-25.576,25.575
		c0,13.756,10.858,24.969,24.47,25.549v0.028h235.237c14.126,0,25.577-11.45,25.577-25.577
		C357.611,516.439,346.16,504.988,332.034,504.988z"/>
	<path fill="#FFFFFF" d="M332.034,504.988c-0.378,0-0.752,0.013-1.126,0.029c-4.001-15.865-18.161-27.25-34.582-27.699
		c-6.514-15.376-21.745-26.163-39.494-26.163c-8.605,0-16.616,2.537-23.331,6.9c-8.127-7.486-18.978-12.061-30.898-12.061
		c-17.785,0-33.191,10.18-40.715,25.029c-6.845-4.615-15.276-6.965-24.133-6.093c-20.201,1.99-34.964,19.979-32.975,40.181
		c0.027,0.285,0.07,0.565,0.105,0.849c-2.221-0.629-4.561-0.973-6.983-0.973c-14.125,0-19.431,0.982-19.431,15.106
		c0,13.756,4.713,25.43,18.325,26.01l235.237,0.028c14.126,0,18.858-12.908,18.858-27.035
		C350.893,504.973,346.16,504.988,332.034,504.988z"/>
	<path fill="#DAF5FD" d="M333.25,505.917c-0.378,0-1.968-0.914-2.342-0.899c-4.001-14.169-18.161-19.941-34.582-20.343
		c-6.514-13.732-21.745-23.366-39.494-23.366c-8.605,0-16.616,2.267-23.331,6.162c-8.127-6.686-18.978-10.771-30.898-10.771
		c-17.785,0-33.191,9.092-40.715,22.354c-6.845-4.122-15.276-6.22-24.133-5.441c-20.201,1.778-33.495,15.763-31.505,33.805
		c0.027,0.256-1.399-1.708-1.364-1.456c-2.221-0.561-4.561-0.973-6.983-0.973c-14.125,0-21.267,7.057-21.267,19.67
		c0,12.286,6.55,20.932,20.161,21.449l235.237,0.025c14.126,0,22.633-10.849,22.633-23.466
		C354.667,510.053,347.376,505.917,333.25,505.917z"/>
	<linearGradient id="SVGID_45_" gradientUnits="userSpaceOnUse" x1="72.3271" y1="521.2642" x2="309.4746" y2="521.2642">
		<stop  offset="0" style="stop-color:#ABEBFE"/>
		<stop  offset="1" style="stop-color:#00C9FC"/>
	</linearGradient>
	<path opacity="0.5" fill="url(#SVGID_45_)" d="M309.475,556.14c-50.237-70.378-141.172-74.324-202.633-67.283
		c-1.85,5.036-2.622,10.558-2.061,16.255c0.027,0.285,0.07,0.565,0.105,0.849c-2.221-0.629-4.561-0.973-6.983-0.973
		c-14.125,0-25.576,11.451-25.576,25.575c0,13.756,10.858,24.969,24.47,25.549v0.028H309.475z"/>
	<radialGradient id="SVGID_46_" cx="251" cy="506.1665" r="179.4617" gradientUnits="userSpaceOnUse">
		<stop  offset="0" style="stop-color:#FFFFFF"/>
		<stop  offset="1" style="stop-color:#FFFFFF;stop-opacity:0"/>
	</radialGradient>
	<path opacity="0.8" fill="url(#SVGID_46_)" d="M332.034,504.988c-0.378,0-0.752,0.013-1.126,0.029
		c-4.001-15.865-18.161-27.25-34.582-27.699c-6.514-15.376-21.745-26.163-39.494-26.163c-8.605,0-16.616,2.537-23.331,6.9
		c-8.127-7.486-18.978-12.061-30.898-12.061c-17.785,0-33.191,10.18-40.715,25.029c-6.845-4.615-15.276-6.965-24.133-6.093
		c-20.201,1.99-34.964,19.979-32.975,40.181c0.027,0.285,0.07,0.565,0.105,0.849c-2.221-0.629-4.561-0.973-6.983-0.973
		c-14.125,0-25.576,11.451-25.576,25.575c0,13.756,10.858,24.969,24.47,25.549v0.028h235.237c14.126,0,25.577-11.45,25.577-25.577
		C357.611,516.439,346.16,504.988,332.034,504.988z"/>
	<linearGradient id="SVGID_47_" gradientUnits="userSpaceOnUse" x1="68.8271" y1="501.0669" x2="361.1113" y2="501.0669">
		<stop  offset="0" style="stop-color:#00C9FC"/>
		<stop  offset="1" style="stop-color:#017BC0"/>
	</linearGradient>
	<path fill="url(#SVGID_47_)" d="M332.034,559.64H93.297v-0.365c-13.964-2.204-24.47-14.227-24.47-28.712
		c0-16.032,13.043-29.075,29.076-29.075c1.068,0,2.136,0.06,3.198,0.177c-0.097-20.509,15.491-38.165,36.311-40.217
		c8.076-0.791,16.146,0.857,23.183,4.697c8.881-14.68,24.653-23.65,42.008-23.65c11.475,0,22.477,3.973,31.267,11.238
		c6.979-3.984,14.862-6.078,22.963-6.078c17.929,0,34.105,10.246,41.809,26.287c16.067,1.336,29.903,12.296,34.899,27.584
		c15.337,0.786,27.571,13.51,27.571,29.037C361.111,546.596,348.067,559.64,332.034,559.64z M97.536,552.64h234.499
		c12.174,0,22.077-9.903,22.077-22.077c0-12.172-9.903-22.075-22.077-22.075c-0.326,0-0.648,0.012-0.971,0.025l-2.852,0.127
		l-0.697-2.768c-3.618-14.348-16.483-24.651-31.284-25.056l-2.249-0.062l-0.878-2.072c-6.184-14.597-20.421-24.028-36.271-24.028
		c-7.638,0-15.046,2.19-21.424,6.335l-2.279,1.481l-1.999-1.842c-7.795-7.181-17.926-11.135-28.527-11.135
		c-15.966,0-30.37,8.855-37.593,23.111l-1.792,3.536l-3.287-2.216c-6.415-4.326-14.103-6.278-21.833-5.512
		c-18.248,1.798-31.631,18.106-29.834,36.354c0.015,0.155,0.035,0.3,0.054,0.444l0.692,5.553l-5.078-1.438
		c-1.969-0.558-3.998-0.84-6.029-0.84c-12.172,0-22.076,9.903-22.076,22.075c0,11.861,9.276,21.547,21.119,22.052L97.536,552.64z"/>
	
		<linearGradient id="SVGID_48_" gradientUnits="userSpaceOnUse" x1="220.7148" y1="478.52" x2="279.5059" y2="478.52" gradientTransform="matrix(0.9052 0.425 -0.425 0.9052 149.8482 -30.1055)">
		<stop  offset="0" style="stop-color:#FFFFFF;stop-opacity:0"/>
		<stop  offset="0.5008" style="stop-color:#FFFFFF"/>
		<stop  offset="1" style="stop-color:#FFFFFF;stop-opacity:0"/>
	</linearGradient>
	<path fill="url(#SVGID_48_)" d="M164.278,498.641c17.509,0.786,31.107,15.453,30.655,32.896c0.105-0.834,0.181-1.68,0.219-2.534
		c0.765-17.043-12.431-31.479-29.474-32.244c-9.395-0.422-17.996,3.4-23.953,9.77C147.73,501.285,155.686,498.255,164.278,498.641z"
		/>
</g>
</svg>
