<svg height="512pt" viewBox="0 -35 512 512" width="512pt" xmlns="http://www.w3.org/2000/svg"><path d="m43.59375 300.265625h424.8125l43.59375-44.265625-53.457031-54.28125 19.195312-73.765625-73.492187-20.195313-20.199219-73.492187-73.765625 19.191406-54.28125-53.457031-54.28125 53.457031-73.765625-19.191406-20.195313 73.492187-73.496093 20.195313 19.195312 73.765625-53.457031 54.28125zm0 0" fill="#ff0059"/><path d="m468.40625 300.265625 43.59375-44.265625-53.457031-54.28125 19.195312-73.765625-73.492187-20.195313-20.199219-73.492187-73.765625 19.191406-54.28125-53.457031v300.265625zm0 0" fill="#d20041"/><path d="m382.722656 300.265625c4.859375-13.867187 7.511719-28.761719 7.511719-44.265625 0-74.015625-60.21875-134.234375-134.234375-134.234375s-134.234375 60.21875-134.234375 134.234375c0 15.503906 2.652344 30.398438 7.511719 44.265625zm0 0" fill="#ffda2d"/><path d="m382.722656 300.265625c4.859375-13.867187 7.511719-28.761719 7.511719-44.265625 0-74.015625-60.21875-134.234375-134.234375-134.234375v178.5zm0 0" fill="#fdbf00"/><path d="m0 292.015625h512v30h-512zm0 0" fill="#00aadf"/><path d="m0 351.625h451.996094v30h-451.996094zm0 0" fill="#00d7df"/><path d="m60.003906 411.628906h451.996094v30h-451.996094zm0 0" fill="#00aadf"/><path d="m256 292.015625h256v30h-256zm0 0" fill="#007fc5"/><path d="m256 351.625h195.996094v30h-195.996094zm0 0" fill="#00b6be"/><path d="m256 411.628906h256v30h-256zm0 0" fill="#007fc5"/></svg>