<?xml version="1.0" encoding="UTF-8" standalone="no"?>
<svg
   xmlns:dc="http://purl.org/dc/elements/1.1/"
   xmlns:cc="http://creativecommons.org/ns#"
   xmlns:rdf="http://www.w3.org/1999/02/22-rdf-syntax-ns#"
   xmlns:svg="http://www.w3.org/2000/svg"
   xmlns="http://www.w3.org/2000/svg"
   xmlns:sodipodi="http://sodipodi.sourceforge.net/DTD/sodipodi-0.dtd"
   xmlns:inkscape="http://www.inkscape.org/namespaces/inkscape"
   height="511pt"
   version="1.1"
   viewBox="-8 1 511 511.99996"
   width="511pt"
   id="svg31"
   sodipodi:docname="rain.svg"
   inkscape:version="0.92.3 (d244b95, 2018-08-02)">
  <metadata
     id="metadata37">
    <rdf:RDF>
      <cc:Work
         rdf:about="">
        <dc:format>image/svg+xml</dc:format>
        <dc:type
           rdf:resource="http://purl.org/dc/dcmitype/StillImage" />
      </cc:Work>
    </rdf:RDF>
  </metadata>
  <defs
     id="defs35">
    <linearGradient
       y2="573.14111"
       x2="1657.1016"
       y1="573.14111"
       x1="927.60059"
       gradientUnits="userSpaceOnUse"
       id="SVGID_9_"
       gradientTransform="matrix(0.75146766,0,0,0.75146767,-304.58168,117.89203)">
      <stop
         id="stop1695"
         style="stop-color:#DAF5FD"
         offset="0" />
      <stop
         id="stop1697"
         style="stop-color:#00C9FC"
         offset="1" />
    </linearGradient>
    <linearGradient
       y2="644.29352"
       x2="1590.3828"
       y1="644.29352"
       x1="927.60059"
       gradientUnits="userSpaceOnUse"
       id="SVGID_20_"
       gradientTransform="matrix(0.75146766,0,0,0.75146767,-304.58168,117.89203)">
      <stop
         id="stop1788"
         style="stop-color:#ABEBFE"
         offset="0" />
      <stop
         id="stop1790"
         style="stop-color:#00C9FC"
         offset="1" />
    </linearGradient>
    <radialGradient
       gradientUnits="userSpaceOnUse"
       r="477.28091"
       cy="556.91553"
       cx="1392.5527"
       id="SVGID_21_"
       gradientTransform="matrix(0.75146766,0,0,0.75146767,-304.58168,117.89203)">
      <stop
         id="stop1795"
         style="stop-color:#FFFFFF"
         offset="0" />
      <stop
         id="stop1797"
         style="stop-color:#FFFFFF;stop-opacity:0"
         offset="1" />
    </radialGradient>
    <linearGradient
       y2="788.78967"
       x2="1148.8981"
       y1="413.84521"
       x1="1533.6064"
       gradientUnits="userSpaceOnUse"
       id="SVGID_22_"
       gradientTransform="matrix(0.75146766,0,0,0.75146767,-304.58168,117.89203)">
      <stop
         id="stop1802"
         style="stop-color:#00C9FC"
         offset="0" />
      <stop
         id="stop1804"
         style="stop-color:#017BC0"
         offset="1" />
    </linearGradient>
  </defs>
  <sodipodi:namedview
     pagecolor="#ffffff"
     bordercolor="#666666"
     borderopacity="1"
     objecttolerance="10"
     gridtolerance="10"
     guidetolerance="10"
     inkscape:pageopacity="0"
     inkscape:pageshadow="2"
     inkscape:window-width="1301"
     inkscape:window-height="744"
     id="namedview33"
     showgrid="false"
     inkscape:zoom="0.34637965"
     inkscape:cx="463.22034"
     inkscape:cy="404.64258"
     inkscape:window-x="65"
     inkscape:window-y="24"
     inkscape:window-maximized="1"
     inkscape:current-layer="svg31" />
  <g
     id="g912"
     transform="translate(-7.59322,-39.050846)"
     style="fill:#5fbcd3">
    <path
       d="m 89.136719,435.37109 c -3.359375,0 -6.4375,-2.24218 -7.347657,-5.64453 l -10.199218,-38.0664 c -1.089844,-4.0586 1.320312,-8.23438 5.382812,-9.32422 4.0625,-1.08203 8.234375,1.32422 9.320313,5.38281 l 10.203125,38.06641 c 1.085937,4.0625 -1.324219,8.23437 -5.382813,9.32421 -0.660156,0.17579 -1.324219,0.26172 -1.976562,0.26172 z m 0,0"
       style="fill:#5fbcd3;fill-opacity:1;fill-rule:nonzero;stroke:none"
       id="path6"
       inkscape:connector-curvature="0" />
    <path
       d="m 162.01953,435.37109 c -3.36328,0 -6.4375,-2.24218 -7.34766,-5.64453 l -10.19921,-38.0664 c -1.08985,-4.0586 1.32031,-8.23438 5.38281,-9.32422 4.05859,-1.08203 8.23437,1.32422 9.32031,5.38281 l 10.20313,38.06641 c 1.08593,4.0625 -1.32422,8.23437 -5.38282,9.32421 -0.66015,0.17579 -1.32422,0.26172 -1.97656,0.26172 z m 0,0"
       style="fill:#5fbcd3;fill-opacity:1;fill-rule:nonzero;stroke:none"
       id="path8"
       inkscape:connector-curvature="0" />
    <path
       d="m 234.90234,435.37109 c -3.35937,0 -6.4375,-2.24218 -7.34765,-5.64453 l -10.19922,-38.0664 c -1.08985,-4.0586 1.32031,-8.23438 5.38281,-9.32422 4.05859,-1.08203 8.23438,1.32422 9.32422,5.38281 l 10.19922,38.06641 c 1.08594,4.0625 -1.32031,8.23437 -5.38281,9.32421 -0.66016,0.17579 -1.32422,0.26172 -1.97657,0.26172 z m 0,0"
       style="fill:#5fbcd3;fill-opacity:1;fill-rule:nonzero;stroke:none"
       id="path10"
       inkscape:connector-curvature="0" />
    <path
       d="m 307.78516,434.28634 c -3.35938,0 -6.4375,-2.24218 -7.34766,-5.64453 l -10.19922,-38.0664 c -1.08984,-4.0586 1.32031,-8.23438 5.38281,-9.32422 4.0586,-1.08203 8.23438,1.32422 9.32422,5.38281 l 10.19922,38.06641 c 1.08594,4.0625 -1.32031,8.23437 -5.38281,9.32421 -0.66016,0.17579 -1.32422,0.26172 -1.97656,0.26172 z m 0,0"
       style="fill:#5fbcd3;fill-opacity:1;fill-rule:nonzero;stroke:none"
       id="path12"
       inkscape:connector-curvature="0" />
    <path
       d="m 380.66797,435.37109 c -3.35938,0 -6.4375,-2.24218 -7.34766,-5.64453 l -1.25781,-4.69531 c -1.08594,-4.0625 1.32422,-8.23438 5.38281,-9.32422 4.0586,-1.08203 8.23438,1.32422 9.32422,5.38281 l 1.25781,4.69532 c 1.08594,4.0625 -1.32422,8.23828 -5.38281,9.32421 -0.66016,0.17579 -1.32422,0.26172 -1.97656,0.26172 z m 0,0"
       style="fill:#5fbcd3;fill-opacity:1;fill-rule:nonzero;stroke:none"
       id="path14"
       inkscape:connector-curvature="0" />
    <path
       d="m 371.3125,400.44531 c -3.36328,0 -6.4375,-2.24219 -7.34766,-5.64453 l -0.84375,-3.14062 c -1.08984,-4.0586 1.32032,-8.23438 5.38282,-9.32422 4.05468,-1.08594 8.23437,1.32031 9.32421,5.38281 l 0.83985,3.14062 c 1.08984,4.0625 -1.32031,8.23438 -5.38281,9.32422 -0.65625,0.17578 -1.32032,0.26172 -1.97266,0.26172 z m 0,0"
       style="fill:#5fbcd3;fill-opacity:1;fill-rule:nonzero;stroke:none"
       id="path16"
       inkscape:connector-curvature="0" />
    <path
       d="m 453.55078,435.37109 c -3.35937,0 -6.43359,-2.24218 -7.34766,-5.64453 l -10.19921,-38.0664 c -1.08594,-4.0586 1.32031,-8.23438 5.38281,-9.32422 4.05859,-1.08203 8.23437,1.32422 9.32422,5.38281 l 10.19922,38.06641 c 1.08984,4.0625 -1.32032,8.23437 -5.38282,9.32421 -0.66015,0.17579 -1.32422,0.26172 -1.97656,0.26172 z m 0,0"
       style="fill:#5fbcd3;fill-opacity:1;fill-rule:nonzero;stroke:none"
       id="path18"
       inkscape:connector-curvature="0" />
    <path
       d="m 137.9375,512 c -3.36328,0 -6.4375,-2.24219 -7.34766,-5.64453 l -10.20312,-38.06641 c -1.08594,-4.05859 1.32422,-8.23437 5.38281,-9.32422 4.05859,-1.08593 8.23828,1.32422 9.32422,5.38672 l 10.19922,38.0625 c 1.08984,4.0625 -1.32031,8.23438 -5.38281,9.32422 C 139.25,511.91406 138.58594,512 137.9375,512 Z m 0,0"
       style="fill:#5fbcd3;fill-opacity:1;fill-rule:nonzero;stroke:none"
       id="path20"
       inkscape:connector-curvature="0" />
    <path
       d="m 210.82031,512 c -3.36328,0 -6.4375,-2.24219 -7.34765,-5.64453 l -10.20313,-38.06641 c -1.08594,-4.05859 1.32422,-8.23437 5.38672,-9.32422 4.05469,-1.08593 8.23047,1.32422 9.32031,5.38672 l 10.19922,38.0625 c 1.08984,4.0625 -1.32031,8.23438 -5.38281,9.32422 C 212.13281,511.91406 211.47266,512 210.82031,512 Z m 0,0"
       style="fill:#5fbcd3;fill-opacity:1;fill-rule:nonzero;stroke:none"
       id="path22"
       inkscape:connector-curvature="0" />
    <path
       d="m 283.70312,512 c -3.36328,0 -6.4375,-2.24219 -7.34765,-5.64453 l -10.20313,-38.06641 c -1.08593,-4.05859 1.32422,-8.23437 5.38282,-9.32422 4.05859,-1.08593 8.23437,1.32422 9.32421,5.38672 l 10.19922,38.0625 c 1.08985,4.0625 -1.32031,8.23438 -5.38281,9.32422 C 285.01562,511.91406 284.35547,512 283.70312,512 Z m 0,0"
       style="fill:#5fbcd3;fill-opacity:1;fill-rule:nonzero;stroke:none"
       id="path24"
       inkscape:connector-curvature="0" />
    <path
       d="m 356.58594,512 c -3.36328,0 -6.4375,-2.24219 -7.34766,-5.64453 l -10.20312,-38.06641 c -1.08594,-4.05859 1.32421,-8.23437 5.38281,-9.32422 4.0625,-1.08593 8.23437,1.32422 9.32422,5.38282 l 10.19922,38.0664 c 1.08984,4.0625 -1.32032,8.23438 -5.38282,9.32422 C 357.89844,511.91406 357.23828,512 356.58594,512 Z m 0,0"
       style="fill:#5fbcd3;fill-opacity:1;fill-rule:nonzero;stroke:none"
       id="path26"
       inkscape:connector-curvature="0" />
    <path
       d="m 429.46875,512 c -3.36328,0 -6.4375,-2.24219 -7.34766,-5.64453 l -10.19922,-38.06641 c -1.08984,-4.05859 1.32032,-8.23437 5.38282,-9.32422 4.05468,-1.08593 8.23437,1.32422 9.32031,5.38672 l 10.20312,38.0625 c 1.08594,4.0625 -1.32421,8.23438 -5.38281,9.32422 C 430.78516,511.91406 430.12109,512 429.46875,512 Z m 0,0"
       style="fill:#5fbcd3;fill-opacity:1;fill-rule:nonzero;stroke:none"
       id="path28"
       inkscape:connector-curvature="0" />
  </g>
  <path
     id="path1693"
     d="m 487.15059,168.57688 c -7.77023,-19.00545 -21.57467,-33.59295 -38.21207,-42.42751 -2.34474,-44.835127 -38.82688,-80.456245 -83.488,-80.456245 -29.09036,0 -54.7074,15.114238 -69.68423,38.041058 -13.10143,-9.94967 -29.35704,-15.841641 -46.96478,-15.841641 -36.08014,0 -66.47688,24.73373 -75.70499,58.441068 -12.65227,-8.88181 -28.33481,-13.44088 -44.8308,-11.78808 -32.659318,3.27135 -57.549091,29.75584 -60.466221,61.80284 -5.923797,-2.75076 -12.501452,-4.29535 -19.438015,-4.29535 -25.889077,0 -46.8772289,21.34869 -46.8772289,47.68318 0,26.33447 20.9881519,47.68318 46.8772289,47.68318 10.536515,0 20.260893,-3.53781 28.089714,-9.50649 13.703445,27.44957 41.720422,46.25915 74.058552,46.25915 25.74833,0 48.75868,-11.92579 63.986,-30.64287 14.64755,23.9611 40.75952,39.91577 70.54078,39.91577 32.27346,0 60.24467,-18.73489 73.97705,-46.09476 22.87231,18.31778 54.54917,23.8488 83.33853,11.67234 42.35275,-17.91502 62.41027,-67.36332 44.79848,-110.44564 z"
     inkscape:connector-curvature="0"
     style="fill:#00c9fc;stroke-width:0.75146765" />
  <path
     id="path1700"
     d="m 487.15059,168.57688 c -7.77023,-19.00545 -21.57467,-33.59295 -38.21207,-42.42751 -2.34474,-44.835127 -38.82688,-80.456245 -83.488,-80.456245 -29.09036,0 -54.7074,15.114238 -69.68423,38.041058 -13.10143,-9.94967 -29.35704,-15.841641 -46.96478,-15.841641 -36.08014,0 -66.47688,24.73373 -75.70499,58.441068 -12.65227,-8.88181 -28.33481,-13.44088 -44.8308,-11.78808 -32.659318,3.27135 -57.549091,29.75584 -60.466221,61.80284 -5.923797,-2.75076 -12.501452,-4.29535 -19.438015,-4.29535 -25.889077,0 -46.8772289,21.34869 -46.8772289,47.68318 0,26.33447 20.8319339,35.34507 46.7210109,35.34507 10.535829,0 23.732878,-12.4607 31.561699,-18.42941 13.702758,27.4496 39.859175,38.96576 72.197305,38.96576 25.74833,0 48.75868,-19.06026 63.986,-37.77667 14.64755,23.9611 39.77164,49.67845 69.5529,49.67845 32.27348,0 56.98953,-28.26401 70.72191,-55.62455 22.87165,18.31843 51.2839,38.33626 80.07326,26.1598 42.35343,-17.91569 68.46404,-46.39545 50.85225,-89.47777 z"
     inkscape:connector-curvature="0"
     style="fill:url(#SVGID_9_);stroke-width:0.75146765" />
  <path
     id="path1702"
     d="m 487.15059,168.57688 c -7.77023,-19.00545 -21.57467,-33.59295 -38.21207,-42.42751 -2.34474,-44.835127 -34.14145,-73.619022 -78.80257,-73.619022 -29.09036,0 -57.38076,26.239977 -72.35759,49.166102 -13.10209,-9.949648 -29.3577,-15.841645 -46.96544,-15.841645 -36.07946,0 -69.93067,28.920865 -71.09968,67.564705 -12.6523,-8.88184 -30.84724,-17.11021 -47.34323,-15.45741 -32.659321,3.27135 -49.101436,31.56686 -52.01854,63.61387 -46.659751,-30.01407 -63.707902,2.97203 -63.707902,16.6458 0,13.67512 12.390333,35.45741 38.27941,35.45741 10.536515,0 17.015166,-11.05794 24.843987,-17.02595 13.702758,27.4496 39.859175,38.96573 72.197305,38.96573 25.74833,0 48.75868,-19.06025 63.986,-37.77666 14.64755,23.96113 39.77164,49.67845 69.5529,49.67845 32.27348,0 56.98953,-28.26399 70.72191,-55.62453 22.87165,18.31843 51.2839,38.33626 80.07326,26.1598 42.35343,-17.91706 68.46404,-46.39682 50.85225,-89.47914 z"
     inkscape:connector-curvature="0"
     style="fill:#daf5fd;stroke-width:0.75146765" />
  <path
     id="path1793"
     d="m 175.89917,117.97648 c -1.0754,2.71721 -2.02151,5.50155 -2.80331,8.35713 -5.60057,-3.93164 -11.79845,-7.01119 -18.39361,-9.08661 -14.6785,-0.0999 -29.94557,0.61919 -45.80654,2.26241 -22.749073,9.66268 -38.790513,31.50657 -41.096211,56.83829 -5.923797,-2.75079 -12.501452,-4.29535 -19.438015,-4.29535 -25.889077,0 -46.8772289,21.34868 -46.8772289,47.68315 0,26.3345 20.9881519,47.68318 46.8772289,47.68318 10.536515,0 20.260893,-3.53779 28.089714,-9.50649 13.703445,27.4496 41.720422,46.25915 74.058552,46.25915 25.74833,0 48.75868,-11.92576 63.986,-30.64284 14.64755,23.9611 40.75952,39.91577 70.54078,39.91577 32.27346,0 60.24467,-18.73489 73.97705,-46.09476 22.87231,18.31775 54.54917,23.84877 83.33853,11.67231 1.85787,-0.78495 3.66997,-1.63633 5.44163,-2.54047 C 419.61111,233.65312 334.42281,127.80284 175.89917,117.97648 Z"
     inkscape:connector-curvature="0"
     style="opacity:0.5;fill:url(#SVGID_20_);stroke-width:0.75146765" />
  <path
     id="path1800"
     d="m 487.15059,168.57688 c -7.77023,-19.00545 -21.57467,-33.59295 -38.21207,-42.42751 -2.34474,-44.835127 -38.82688,-80.456245 -83.488,-80.456245 -29.09036,0 -54.7074,15.114238 -69.68423,38.041058 -13.10143,-9.94967 -29.35704,-15.841641 -46.96478,-15.841641 -36.08014,0 -66.47688,24.73373 -75.70499,58.441068 -12.65227,-8.88181 -28.33481,-13.44088 -44.8308,-11.78808 -32.659318,3.27135 -57.549091,29.75584 -60.466221,61.80284 -5.923797,-2.75076 -12.501452,-4.29535 -19.438015,-4.29535 -25.889077,0 -46.8772289,21.34869 -46.8772289,47.68318 0,26.33447 20.9881519,47.68318 46.8772289,47.68318 10.536515,0 20.260893,-3.53781 28.089714,-9.50649 13.703445,27.44957 41.720422,46.25915 74.058552,46.25915 25.74833,0 48.75868,-11.92579 63.986,-30.64287 14.64755,23.9611 40.75952,39.91577 70.54078,39.91577 32.27346,0 60.24467,-18.73489 73.97705,-46.09476 22.87231,18.31778 54.54917,23.8488 83.33853,11.67234 42.35275,-17.91502 62.41027,-67.36332 44.79848,-110.44564 z"
     inkscape:connector-curvature="0"
     style="opacity:0.8;fill:#b7c8c4;stroke-width:0.75146765" />
  <path
     id="path1807"
     d="m 285.03584,320.13424 c -28.30047,0 -54.35791,-13.2635 -71.25656,-35.8814 -16.74111,17.00676 -39.36023,26.60847 -63.27022,26.60847 -31.49097,0 -60.136252,-16.48004 -76.379034,-43.47207 -7.85104,4.41454 -16.632691,6.71941 -25.769204,6.71941 -29.474216,0 -53.452873,-24.39058 -53.452873,-54.37178 0,-29.98116 23.978657,-54.37175 53.452873,-54.37175 4.828187,0 9.556046,0.64591 14.137104,1.92747 6.523775,-31.74839 32.739438,-56.15883 65.122694,-59.40346 2.42755,-0.24309 4.88947,-0.36644 7.31703,-0.36644 12.12773,0 23.91469,3.0049 34.53672,8.75237 12.62535,-32.820339 44.11299,-55.071118 79.32646,-55.071118 16.25828,0 31.81692,4.581672 45.38501,13.311418 17.04482,-22.354875 43.21739,-35.510809 71.26399,-35.510809 46.7116,0 85.45564,36.173181 89.78285,83.030969 17.00977,9.97227 30.4203,25.46116 37.98851,43.97347 18.97608,46.41872 -2.71106,99.88636 -48.3459,119.18978 -10.9944,4.65084 -22.55985,7.00844 -34.37176,7.00844 0,0 -6.6e-4,0 0,0 -17.5027,-6.7e-4 -34.76836,-5.30977 -49.37281,-15.07242 -16.29328,26.70777 -44.80319,42.99945 -76.09218,42.99945 z m -69.78117,-58.02875 4.82414,7.89273 c 14.07045,23.01725 38.35284,36.75882 64.95703,36.75882 28.87691,0 54.97944,-16.26564 68.12129,-42.44806 l 3.63765,-7.2482 6.28609,5.03513 c 13.47382,10.79077 30.31524,16.73413 47.422,16.73483 10.06985,0 19.93632,-2.01241 29.32403,-5.9824 38.938,-16.47113 57.44472,-62.09466 41.25309,-101.70287 -6.86382,-16.78894 -19.35922,-30.6634 -35.18384,-39.06644 l -3.32452,-1.76582 -0.19877,-3.80835 c -2.17438,-41.564474 -35.96298,-74.123135 -76.92247,-74.123135 -25.86619,0 -49.8691,13.104571 -64.20755,35.054634 l -3.84507,5.884465 -5.56621,-4.226851 C 279.33011,79.599805 264.45025,74.581116 248.8007,74.581116 c -32.21286,0 -60.73893,22.018588 -69.37042,53.547084 l -2.47604,9.04141 -7.59312,-5.33033 c -10.19443,-7.15639 -22.09858,-10.93942 -34.4236,-10.93942 -1.99861,0 -4.02687,0.10148 -6.02751,0.30206 -28.94018,2.89874 -51.887236,26.35094 -54.563957,55.76293 l -0.853852,9.37909 -8.424092,-3.91179 c -5.274646,-2.4487 -10.896085,-3.69122 -16.708101,-3.69122 -22.223156,0 -40.3022718,18.39037 -40.3022718,40.99527 0,22.6042 18.0791158,40.99528 40.3022718,40.99528 8.785698,0 17.135702,-2.82545 24.146353,-8.17015 l 6.262496,-4.77482 3.544062,7.09817 c 13.11693,26.27557 39.247741,42.59876 68.194691,42.59876 22.85546,0 44.33115,-10.28528 58.92011,-28.21811 z"
     inkscape:connector-curvature="0"
     style="fill:#999999;stroke-width:0.75146765" />
</svg>
