<?xml version="1.0" encoding="UTF-8" standalone="no"?>
<!-- Created with Inkscape (http://www.inkscape.org/) -->

<svg
   xmlns:dc="http://purl.org/dc/elements/1.1/"
   xmlns:cc="http://creativecommons.org/ns#"
   xmlns:rdf="http://www.w3.org/1999/02/22-rdf-syntax-ns#"
   xmlns:svg="http://www.w3.org/2000/svg"
   xmlns="http://www.w3.org/2000/svg"
   xmlns:xlink="http://www.w3.org/1999/xlink"
   xmlns:sodipodi="http://sodipodi.sourceforge.net/DTD/sodipodi-0.dtd"
   xmlns:inkscape="http://www.inkscape.org/namespaces/inkscape"
   width="210mm"
   height="210mm"
   viewBox="0 0 210 210"
   version="1.1"
   id="svg8"
   inkscape:version="0.92.3 (d244b95, 2018-08-02)"
   sodipodi:docname="scattered_cloudsoriginal.svg">
  <defs
     id="defs2">
    <linearGradient
       y2="573.14111"
       x2="1657.1016"
       y1="573.14111"
       x1="927.60059"
       gradientUnits="userSpaceOnUse"
       id="SVGID_9_"
       gradientTransform="matrix(0.65209169,0,0,0.65209169,-396.74392,204.85074)">
      <stop
         id="stop1695"
         style="stop-color:#DAF5FD"
         offset="0" />
      <stop
         id="stop1697"
         style="stop-color:#00C9FC"
         offset="1" />
    </linearGradient>
    <linearGradient
       y2="644.29352"
       x2="1590.3828"
       y1="644.29352"
       x1="927.60059"
       gradientUnits="userSpaceOnUse"
       id="SVGID_20_"
       gradientTransform="matrix(0.65209169,0,0,0.65209169,-396.74392,204.85074)">
      <stop
         id="stop1788"
         style="stop-color:#ABEBFE"
         offset="0" />
      <stop
         id="stop1790"
         style="stop-color:#00C9FC"
         offset="1" />
    </linearGradient>
    <radialGradient
       gradientUnits="userSpaceOnUse"
       r="477.28091"
       cy="556.91553"
       cx="1392.5527"
       id="SVGID_21_"
       gradientTransform="matrix(0.65209169,0,0,0.65209169,-396.74392,204.85074)">
      <stop
         id="stop1795"
         style="stop-color:#FFFFFF"
         offset="0" />
      <stop
         id="stop1797"
         style="stop-color:#FFFFFF;stop-opacity:0"
         offset="1" />
    </radialGradient>
    <linearGradient
       y2="788.78967"
       x2="1148.8981"
       y1="413.84521"
       x1="1533.6064"
       gradientUnits="userSpaceOnUse"
       id="SVGID_22_"
       gradientTransform="matrix(0.65209169,0,0,0.65209169,-396.74392,204.85074)">
      <stop
         id="stop1802"
         style="stop-color:#00C9FC"
         offset="0" />
      <stop
         id="stop1804"
         style="stop-color:#017BC0"
         offset="1" />
    </linearGradient>
    <linearGradient
       inkscape:collect="always"
       xlink:href="#SVGID_9_"
       id="linearGradient3492"
       gradientUnits="userSpaceOnUse"
       gradientTransform="matrix(-1.209821,0,0,1.209821,992.34221,-285.2994)"
       x1="927.60059"
       y1="573.14111"
       x2="1657.1016"
       y2="573.14111" />
    <linearGradient
       inkscape:collect="always"
       xlink:href="#SVGID_20_"
       id="linearGradient3494"
       gradientUnits="userSpaceOnUse"
       gradientTransform="matrix(-1.209821,0,0,1.209821,992.34221,-285.2994)"
       x1="927.60059"
       y1="644.29352"
       x2="1590.3828"
       y2="644.29352" />
    <radialGradient
       inkscape:collect="always"
       xlink:href="#SVGID_21_"
       id="radialGradient3496"
       gradientUnits="userSpaceOnUse"
       gradientTransform="matrix(-1.209821,0,0,1.209821,992.34221,-285.2994)"
       cx="1392.5527"
       cy="556.91553"
       r="477.28091" />
    <linearGradient
       inkscape:collect="always"
       xlink:href="#SVGID_22_"
       id="linearGradient3498"
       gradientUnits="userSpaceOnUse"
       gradientTransform="matrix(-1.209821,0,0,1.209821,992.34221,-285.2994)"
       x1="1533.6064"
       y1="413.84521"
       x2="1148.8981"
       y2="788.78967" />
    <linearGradient
       inkscape:collect="always"
       xlink:href="#SVGID_9_"
       id="linearGradient3516"
       gradientUnits="userSpaceOnUse"
       gradientTransform="matrix(0.86031394,0,0,0.86031394,-270.72431,-234.33369)"
       x1="927.60059"
       y1="573.14111"
       x2="1657.1016"
       y2="573.14111" />
    <linearGradient
       inkscape:collect="always"
       xlink:href="#SVGID_20_"
       id="linearGradient3518"
       gradientUnits="userSpaceOnUse"
       gradientTransform="matrix(0.86031394,0,0,0.86031394,-270.72431,-234.33369)"
       x1="927.60059"
       y1="644.29352"
       x2="1590.3828"
       y2="644.29352" />
    <radialGradient
       inkscape:collect="always"
       xlink:href="#SVGID_21_"
       id="radialGradient3520"
       gradientUnits="userSpaceOnUse"
       gradientTransform="matrix(0.86031394,0,0,0.86031394,-270.72431,-234.33369)"
       cx="1392.5527"
       cy="556.91553"
       r="477.28091" />
    <linearGradient
       inkscape:collect="always"
       xlink:href="#SVGID_22_"
       id="linearGradient3522"
       gradientUnits="userSpaceOnUse"
       gradientTransform="matrix(0.86031394,0,0,0.86031394,-270.72431,-234.33369)"
       x1="1533.6064"
       y1="413.84521"
       x2="1148.8981"
       y2="788.78967" />
    <linearGradient
       inkscape:collect="always"
       xlink:href="#SVGID_9_"
       id="linearGradient3540"
       gradientUnits="userSpaceOnUse"
       gradientTransform="matrix(1.1756088,0,0,-1.059583,-867.63663,305.88684)"
       x1="927.60059"
       y1="573.14111"
       x2="1657.1016"
       y2="573.14111" />
    <linearGradient
       inkscape:collect="always"
       xlink:href="#SVGID_20_"
       id="linearGradient3542"
       gradientUnits="userSpaceOnUse"
       gradientTransform="matrix(1.1756088,0,0,-1.059583,-867.63663,305.88684)"
       x1="927.60059"
       y1="644.29352"
       x2="1590.3828"
       y2="644.29352" />
    <radialGradient
       inkscape:collect="always"
       xlink:href="#SVGID_21_"
       id="radialGradient3544"
       gradientUnits="userSpaceOnUse"
       gradientTransform="matrix(1.1756088,0,0,-1.059583,-867.63663,305.88684)"
       cx="1392.5527"
       cy="556.91553"
       r="477.28091" />
    <linearGradient
       inkscape:collect="always"
       xlink:href="#SVGID_22_"
       id="linearGradient3546"
       gradientUnits="userSpaceOnUse"
       gradientTransform="matrix(1.1756088,0,0,-1.059583,-867.63663,305.88684)"
       x1="1533.6064"
       y1="413.84521"
       x2="1148.8981"
       y2="788.78967" />
    <linearGradient
       inkscape:collect="always"
       xlink:href="#SVGID_9_"
       id="linearGradient3564"
       gradientUnits="userSpaceOnUse"
       gradientTransform="matrix(-2.0299762,0,0,2.0299762,1386.2903,-211.06874)"
       x1="927.60059"
       y1="573.14111"
       x2="1657.1016"
       y2="573.14111" />
    <linearGradient
       inkscape:collect="always"
       xlink:href="#SVGID_20_"
       id="linearGradient3566"
       gradientUnits="userSpaceOnUse"
       gradientTransform="matrix(-2.0299762,0,0,2.0299762,1386.2903,-211.06874)"
       x1="927.60059"
       y1="644.29352"
       x2="1590.3828"
       y2="644.29352" />
    <radialGradient
       inkscape:collect="always"
       xlink:href="#SVGID_21_"
       id="radialGradient3568"
       gradientUnits="userSpaceOnUse"
       gradientTransform="matrix(-2.0299762,0,0,2.0299762,1386.2903,-211.06874)"
       cx="1392.5527"
       cy="556.91553"
       r="477.28091" />
    <linearGradient
       inkscape:collect="always"
       xlink:href="#SVGID_22_"
       id="linearGradient3570"
       gradientUnits="userSpaceOnUse"
       gradientTransform="matrix(-2.0299762,0,0,2.0299762,1386.2903,-211.06874)"
       x1="1533.6064"
       y1="413.84521"
       x2="1148.8981"
       y2="788.78967" />
    <linearGradient
       inkscape:collect="always"
       xlink:href="#SVGID_9_"
       id="linearGradient3588"
       gradientUnits="userSpaceOnUse"
       gradientTransform="matrix(-1.4758773,0,0,1.4758773,1035.7215,299.52069)"
       x1="927.60059"
       y1="573.14111"
       x2="1657.1016"
       y2="573.14111" />
    <linearGradient
       inkscape:collect="always"
       xlink:href="#SVGID_20_"
       id="linearGradient3590"
       gradientUnits="userSpaceOnUse"
       gradientTransform="matrix(-1.4758773,0,0,1.4758773,1035.7215,299.52069)"
       x1="927.60059"
       y1="644.29352"
       x2="1590.3828"
       y2="644.29352" />
    <radialGradient
       inkscape:collect="always"
       xlink:href="#SVGID_21_"
       id="radialGradient3592"
       gradientUnits="userSpaceOnUse"
       gradientTransform="matrix(-1.4758773,0,0,1.4758773,1035.7215,299.52069)"
       cx="1392.5527"
       cy="556.91553"
       r="477.28091" />
    <linearGradient
       inkscape:collect="always"
       xlink:href="#SVGID_22_"
       id="linearGradient3594"
       gradientUnits="userSpaceOnUse"
       gradientTransform="matrix(-1.4758773,0,0,1.4758773,1035.7215,299.52069)"
       x1="1533.6064"
       y1="413.84521"
       x2="1148.8981"
       y2="788.78967" />
    <linearGradient
       inkscape:collect="always"
       xlink:href="#SVGID_9_"
       id="linearGradient917"
       gradientUnits="userSpaceOnUse"
       gradientTransform="matrix(0.65209169,0,0,0.65209169,-438.90149,189.04165)"
       x1="927.60059"
       y1="573.14111"
       x2="1657.1016"
       y2="573.14111" />
    <linearGradient
       inkscape:collect="always"
       xlink:href="#SVGID_20_"
       id="linearGradient919"
       gradientUnits="userSpaceOnUse"
       gradientTransform="matrix(0.65209169,0,0,0.65209169,-438.90149,189.04165)"
       x1="927.60059"
       y1="644.29352"
       x2="1590.3828"
       y2="644.29352" />
    <radialGradient
       inkscape:collect="always"
       xlink:href="#SVGID_21_"
       id="radialGradient921"
       gradientUnits="userSpaceOnUse"
       gradientTransform="matrix(0.65209169,0,0,0.65209169,-438.90149,189.04165)"
       cx="1392.5527"
       cy="556.91553"
       r="477.28091" />
    <linearGradient
       inkscape:collect="always"
       xlink:href="#SVGID_22_"
       id="linearGradient923"
       gradientUnits="userSpaceOnUse"
       gradientTransform="matrix(0.65209169,0,0,0.65209169,-438.90149,189.04165)"
       x1="1533.6064"
       y1="413.84521"
       x2="1148.8981"
       y2="788.78967" />
    <linearGradient
       inkscape:collect="always"
       xlink:href="#SVGID_22_"
       id="linearGradient1050"
       gradientUnits="userSpaceOnUse"
       gradientTransform="matrix(-1.4758773,0,0,1.4758773,1035.7215,299.52069)"
       x1="1533.6064"
       y1="413.84521"
       x2="1148.8981"
       y2="788.78967" />
    <linearGradient
       inkscape:collect="always"
       xlink:href="#SVGID_9_"
       id="linearGradient1068"
       gradientUnits="userSpaceOnUse"
       gradientTransform="matrix(-1.0543868,0,0,1.0543868,1175.4179,-450.72119)"
       x1="927.60059"
       y1="573.14111"
       x2="1657.1016"
       y2="573.14111" />
    <linearGradient
       inkscape:collect="always"
       xlink:href="#SVGID_20_"
       id="linearGradient1070"
       gradientUnits="userSpaceOnUse"
       gradientTransform="matrix(-1.0543868,0,0,1.0543868,1175.4179,-450.72119)"
       x1="927.60059"
       y1="644.29352"
       x2="1590.3828"
       y2="644.29352" />
    <radialGradient
       inkscape:collect="always"
       xlink:href="#SVGID_21_"
       id="radialGradient1072"
       gradientUnits="userSpaceOnUse"
       gradientTransform="matrix(-1.0543868,0,0,1.0543868,1175.4179,-450.72119)"
       cx="1392.5527"
       cy="556.91553"
       r="477.28091" />
    <linearGradient
       inkscape:collect="always"
       xlink:href="#SVGID_22_"
       id="linearGradient1074"
       gradientUnits="userSpaceOnUse"
       gradientTransform="matrix(-1.0543868,0,0,1.0543868,1175.4179,-450.72119)"
       x1="1533.6064"
       y1="413.84521"
       x2="1148.8981"
       y2="788.78967" />
    <linearGradient
       inkscape:collect="always"
       xlink:href="#SVGID_9_"
       id="linearGradient1096"
       gradientUnits="userSpaceOnUse"
       gradientTransform="matrix(0.99640498,0,0,0.99640498,-222.66694,89.635734)"
       x1="927.60059"
       y1="573.14111"
       x2="1657.1016"
       y2="573.14111" />
    <linearGradient
       inkscape:collect="always"
       xlink:href="#SVGID_20_"
       id="linearGradient1098"
       gradientUnits="userSpaceOnUse"
       gradientTransform="matrix(0.99640498,0,0,0.99640498,-222.66694,89.635734)"
       x1="927.60059"
       y1="644.29352"
       x2="1590.3828"
       y2="644.29352" />
    <radialGradient
       inkscape:collect="always"
       xlink:href="#SVGID_21_"
       id="radialGradient1100"
       gradientUnits="userSpaceOnUse"
       gradientTransform="matrix(0.99640498,0,0,0.99640498,-222.66694,89.635734)"
       cx="1392.5527"
       cy="556.91553"
       r="477.28091" />
    <linearGradient
       inkscape:collect="always"
       xlink:href="#SVGID_22_"
       id="linearGradient1102"
       gradientUnits="userSpaceOnUse"
       gradientTransform="matrix(0.99640498,0,0,0.99640498,-222.66694,89.635734)"
       x1="1533.6064"
       y1="413.84521"
       x2="1148.8981"
       y2="788.78967" />
  </defs>
  <sodipodi:namedview
     id="base"
     pagecolor="#ffffff"
     bordercolor="#666666"
     borderopacity="1.0"
     inkscape:pageopacity="0.0"
     inkscape:pageshadow="2"
     inkscape:zoom="0.35"
     inkscape:cx="-196.45005"
     inkscape:cy="615.03164"
     inkscape:document-units="mm"
     inkscape:current-layer="layer1"
     showgrid="false"
     inkscape:object-paths="true"
     inkscape:snap-intersection-paths="true"
     inkscape:snap-bbox="true"
     inkscape:window-width="1301"
     inkscape:window-height="744"
     inkscape:window-x="65"
     inkscape:window-y="24"
     inkscape:window-maximized="1"
     inkscape:snap-global="true" />
  <metadata
     id="metadata5">
    <rdf:RDF>
      <cc:Work
         rdf:about="">
        <dc:format>image/svg+xml</dc:format>
        <dc:type
           rdf:resource="http://purl.org/dc/dcmitype/StillImage" />
        <dc:title></dc:title>
      </cc:Work>
    </rdf:RDF>
  </metadata>
  <g
     inkscape:label="Layer 1"
     inkscape:groupmode="layer"
     id="layer1"
     transform="translate(0,-87)">
    <rect
       style="opacity:1;fill:#80b3ff;fill-opacity:1;stroke:#ffff00;stroke-width:0;stroke-linecap:round;stroke-miterlimit:4;stroke-dasharray:none;paint-order:stroke fill markers"
       id="rect881"
       width="210.07385"
       height="210.07385"
       x="0.53453904"
       y="87.460693"
       rx="0.95294714"
       ry="0.95294714" />
    <g
       id="g3474"
       transform="matrix(0.4057456,0,0,0.4057456,213.93368,86.032634)"
       style="stroke-width:2.46459842">
      <g
         transform="translate(-345.28626,-85.223553)"
         id="g2842"
         style="stroke-width:2.46459842">
        <path
           id="path1693"
           d="m 332.00588,193.56141 c -3.05303,-7.34139 -8.47698,-12.97622 -15.01404,-16.38882 -0.92128,-17.31883 -15.25561,-31.07849 -32.80357,-31.07849 -11.43,0 -21.49528,5.8383 -27.37988,14.69443 -5.14773,-3.84334 -11.53478,-6.11928 -18.4531,-6.11928 -14.17638,0 -26.11967,9.5541 -29.74552,22.57451 -4.97125,-3.43085 -11.13313,-5.19192 -17.61463,-4.55348 -12.83229,1.26365 -22.61182,11.49403 -23.758,23.87309 -2.32754,-1.06256 -4.91199,-1.6592 -7.63746,-1.6592 -10.17217,0 -18.4187,8.24653 -18.4187,18.41897 0,10.17243 8.24653,18.41897 18.4187,18.41897 4.13994,0 7.96078,-1.36658 11.03683,-3.67215 5.38427,10.60317 16.39252,17.8689 29.09861,17.8689 10.11687,0 19.15795,-4.60667 25.14097,-11.83667 5.75522,9.25565 16.01497,15.41859 27.71643,15.41859 12.68068,0 23.67095,-7.23688 29.06659,-17.8054 8.98684,7.07576 21.43311,9.21227 32.74484,4.50877 16.64097,-6.92018 24.52184,-26.02098 17.60193,-42.66274 z"
           inkscape:connector-curvature="0"
           style="fill:#00c9fc;stroke-width:0.65209168" />
        <path
           id="path1700"
           d="m 332.00588,193.56141 c -3.05303,-7.34139 -8.47698,-12.97622 -15.01404,-16.38882 -0.92128,-17.31883 -15.25561,-31.07849 -32.80357,-31.07849 -11.43,0 -21.49528,5.8383 -27.37988,14.69443 -5.14773,-3.84334 -11.53478,-6.11928 -18.4531,-6.11928 -14.17638,0 -26.11967,9.5541 -29.74552,22.57451 -4.97125,-3.43085 -11.13313,-5.19192 -17.61463,-4.55348 -12.83229,1.26365 -22.61182,11.49403 -23.758,23.87309 -2.32754,-1.06256 -4.91199,-1.6592 -7.63746,-1.6592 -10.17217,0 -18.4187,8.24653 -18.4187,18.41897 0,10.17243 8.18515,13.65303 18.35732,13.65303 4.13967,0 9.32497,-4.8133 12.40102,-7.11888 5.384,10.60318 15.66121,15.05162 28.3673,15.05162 10.11687,0 19.15795,-7.36256 25.14097,-14.5923 5.75522,9.25565 15.62682,19.1897 27.32828,19.1897 12.68069,0 22.39196,-10.91777 27.7876,-21.48655 8.98658,7.07601 20.15014,14.80846 31.46187,10.10496 16.64124,-6.92044 26.90045,-17.92155 19.98054,-34.56331 z"
           inkscape:connector-curvature="0"
           style="fill:url(#linearGradient917);stroke-width:0.65209168" />
        <path
           id="path1702"
           d="m 332.00588,193.56141 c -3.05303,-7.34139 -8.47698,-12.97622 -15.01404,-16.38882 -0.92128,-17.31883 -13.41464,-28.43742 -30.9626,-28.43742 -11.43,0 -22.54568,10.13593 -28.43028,18.99179 -5.14799,-3.84333 -11.53504,-6.11928 -18.45336,-6.11928 -14.17611,0 -27.47671,11.1715 -27.93603,26.09877 -4.97126,-3.43086 -12.1203,-6.6093 -18.6018,-5.97086 -12.83229,1.26365 -19.29262,12.19359 -20.43879,24.57265 -18.33325,-11.59378 -25.0317,1.14803 -25.0317,6.42991 0,5.2824 4.86833,13.69642 15.0405,13.69642 4.13994,0 6.68549,-4.27144 9.76154,-6.57675 5.384,10.60318 15.66121,15.05161 28.3673,15.05161 10.11687,0 19.15795,-7.36256 25.14097,-14.5923 5.75522,9.25566 15.62682,19.1897 27.32828,19.1897 12.68069,0 22.39196,-10.91776 27.7876,-21.48654 8.98658,7.07601 20.15014,14.80846 31.46187,10.10496 16.64124,-6.92097 26.90045,-17.92208 19.98054,-34.56384 z"
           inkscape:connector-curvature="0"
           style="fill:#daf5fd;stroke-width:0.65209168" />
        <path
           id="path1793"
           d="m 209.71097,174.01558 c -0.42254,1.0496 -0.79428,2.12513 -1.10146,3.22818 -2.20054,-1.51871 -4.63577,-2.70827 -7.2271,-3.50996 -5.76738,-0.0386 -11.76602,0.23918 -17.99801,0.87392 -8.93842,3.73248 -15.24132,12.1703 -16.14726,21.95539 -2.32754,-1.06257 -4.91199,-1.6592 -7.63746,-1.6592 -10.17217,0 -18.4187,8.24653 -18.4187,18.41896 0,10.17244 8.24653,18.41897 18.4187,18.41897 4.13994,0 7.96078,-1.36657 11.03683,-3.67215 5.38427,10.60318 16.39252,17.8689 29.09861,17.8689 10.11687,0 19.15795,-4.60666 25.14097,-11.83666 5.75522,9.25565 16.01497,15.41859 27.71643,15.41859 12.68068,0 23.67095,-7.23688 29.06659,-17.8054 8.98684,7.07575 21.43311,9.21226 32.74484,4.50876 0.72998,-0.30321 1.44198,-0.63208 2.13809,-0.98133 -11.07334,-16.54361 -44.54498,-57.43126 -106.83107,-61.22697 z"
           inkscape:connector-curvature="0"
           style="opacity:0.5;fill:url(#linearGradient919);stroke-width:0.65209168" />
        <path
           id="path1800"
           d="m 332.00588,193.56141 c -3.05303,-7.34139 -8.47698,-12.97622 -15.01404,-16.38882 -0.92128,-17.31883 -15.25561,-31.07849 -32.80357,-31.07849 -11.43,0 -21.49528,5.8383 -27.37988,14.69443 -5.14773,-3.84334 -11.53478,-6.11928 -18.4531,-6.11928 -14.17638,0 -26.11967,9.5541 -29.74552,22.57451 -4.97125,-3.43085 -11.13313,-5.19192 -17.61463,-4.55348 -12.83229,1.26365 -22.61182,11.49403 -23.758,23.87309 -2.32754,-1.06256 -4.91199,-1.6592 -7.63746,-1.6592 -10.17217,0 -18.4187,8.24653 -18.4187,18.41897 0,10.17243 8.24653,18.41897 18.4187,18.41897 4.13994,0 7.96078,-1.36658 11.03683,-3.67215 5.38427,10.60317 16.39252,17.8689 29.09861,17.8689 10.11687,0 19.15795,-4.60667 25.14097,-11.83667 5.75522,9.25565 16.01497,15.41859 27.71643,15.41859 12.68068,0 23.67095,-7.23688 29.06659,-17.8054 8.98684,7.07576 21.43311,9.21227 32.74484,4.50877 16.64097,-6.92018 24.52184,-26.02098 17.60193,-42.66274 z"
           inkscape:connector-curvature="0"
           style="opacity:0.8;fill:url(#radialGradient921);stroke-width:0.65209168" />
        <path
           id="path1807"
           d="m 252.59225,252.10471 c -11.11964,0 -21.35796,-5.1234 -27.99767,-13.8602 -6.57781,6.56934 -15.46517,10.27827 -24.85973,10.27827 -12.37323,0 -23.62835,-6.36588 -30.01036,-16.79231 -3.08478,1.70524 -6.53521,2.59556 -10.12507,2.59556 -11.58082,0 -21.00236,-9.42155 -21.00236,-21.00263 0,-11.58107 9.42154,-21.00262 21.00236,-21.00262 1.89706,0 3.7547,0.2495 5.55466,0.74454 2.56328,-12.26371 12.86377,-21.69293 25.58759,-22.94626 0.95382,-0.0939 1.92114,-0.14155 2.87496,-0.14155 4.76515,0 9.39641,1.16073 13.56995,3.38085 4.96067,-12.67778 17.33259,-21.27277 31.16844,-21.27277 6.3881,0 12.5013,1.7698 17.83239,5.14191 6.69714,-8.6352 16.9807,-13.71705 28.00059,-13.71705 18.35362,0 33.57668,13.97291 35.2769,32.07305 6.68337,3.85207 11.95255,9.83509 14.9262,16.98599 7.45596,17.93054 -1.06521,38.58392 -18.99576,46.04041 -4.31985,1.79652 -8.86407,2.70721 -13.50513,2.70721 0,0 -2.6e-4,0 0,0 -6.87705,-2.6e-4 -13.66096,-2.05105 -19.39925,-5.82215 -6.40185,10.31663 -17.60378,16.60975 -29.89765,16.60975 z m -27.41797,-22.41524 1.89547,3.04879 c 5.52847,8.89106 15.06935,14.19913 25.5225,14.19913 11.34613,0 21.60217,-6.28306 26.76578,-16.39676 l 1.42928,-2.79982 2.46989,1.94496 c 5.29405,4.16824 11.91127,6.46403 18.63275,6.4643 3.95658,0 7.83325,-0.77735 11.52181,-2.31087 15.29927,-6.36244 22.57081,-23.98581 16.2089,-39.2856 -2.69689,-6.4852 -7.6065,-11.8446 -13.82421,-15.09051 l -1.30625,-0.6821 -0.0781,-1.47108 c -0.85434,-16.05545 -14.13034,-28.63215 -30.22388,-28.63215 -10.16318,0 -19.59425,5.06201 -25.22802,13.54084 l -1.51078,2.27304 -2.18704,-1.63274 c -4.91199,-3.66739 -10.75849,-5.606 -16.90741,-5.606 -12.65687,0 -23.86515,8.5053 -27.25658,20.68407 l -0.97287,3.4925 -2.98344,-2.05899 c -4.00553,-2.76436 -8.68283,-4.22566 -13.5255,-4.22566 -0.78528,0 -1.58221,0.0392 -2.36829,0.11668 -11.37099,1.11972 -20.3872,10.17879 -21.43892,21.54 l -0.33549,3.62294 -3.30994,-1.51104 c -2.07248,-0.94588 -4.28122,-1.42584 -6.56484,-1.42584 -8.73178,0 -15.83531,7.1038 -15.83531,15.83558 0,8.73151 7.10353,15.83558 15.83531,15.83558 3.45202,0 6.73285,-1.09141 9.48743,-3.15595 l 2.46062,-1.84441 1.39251,2.74187 c 5.15382,10.14968 15.42097,16.45497 26.79462,16.45497 8.98022,0 17.41831,-3.97298 23.15051,-10.90004 z"
           inkscape:connector-curvature="0"
           style="fill:url(#linearGradient923);stroke-width:0.65209168" />
      </g>
    </g>
    <g
       style="stroke-width:4.57255173"
       transform="matrix(-0.21869627,0,0,0.21869627,37.261673,209.18837)"
       id="g3490">
      <g
         style="stroke-width:4.57255173"
         id="g3488"
         transform="translate(-345.28626,-85.223553)">
        <path
           style="fill:#00c9fc;stroke-width:1.20982099"
           inkscape:connector-curvature="0"
           d="m 332.00588,193.56141 c -3.05303,-7.34139 -8.47698,-12.97622 -15.01404,-16.38882 -0.92128,-17.31883 -15.25561,-31.07849 -32.80357,-31.07849 -11.43,0 -21.49528,5.8383 -27.37988,14.69443 -5.14773,-3.84334 -11.53478,-6.11928 -18.4531,-6.11928 -14.17638,0 -26.11967,9.5541 -29.74552,22.57451 -4.97125,-3.43085 -11.13313,-5.19192 -17.61463,-4.55348 -12.83229,1.26365 -22.61182,11.49403 -23.758,23.87309 -2.32754,-1.06256 -4.91199,-1.6592 -7.63746,-1.6592 -10.17217,0 -18.4187,8.24653 -18.4187,18.41897 0,10.17243 8.24653,18.41897 18.4187,18.41897 4.13994,0 7.96078,-1.36658 11.03683,-3.67215 5.38427,10.60317 16.39252,17.8689 29.09861,17.8689 10.11687,0 19.15795,-4.60667 25.14097,-11.83667 5.75522,9.25565 16.01497,15.41859 27.71643,15.41859 12.68068,0 23.67095,-7.23688 29.06659,-17.8054 8.98684,7.07576 21.43311,9.21227 32.74484,4.50877 16.64097,-6.92018 24.52184,-26.02098 17.60193,-42.66274 z"
           id="path3476" />
        <path
           style="fill:url(#linearGradient3492);stroke-width:1.20982099"
           inkscape:connector-curvature="0"
           d="m 332.00588,193.56141 c -3.05303,-7.34139 -8.47698,-12.97622 -15.01404,-16.38882 -0.92128,-17.31883 -15.25561,-31.07849 -32.80357,-31.07849 -11.43,0 -21.49528,5.8383 -27.37988,14.69443 -5.14773,-3.84334 -11.53478,-6.11928 -18.4531,-6.11928 -14.17638,0 -26.11967,9.5541 -29.74552,22.57451 -4.97125,-3.43085 -11.13313,-5.19192 -17.61463,-4.55348 -12.83229,1.26365 -22.61182,11.49403 -23.758,23.87309 -2.32754,-1.06256 -4.91199,-1.6592 -7.63746,-1.6592 -10.17217,0 -18.4187,8.24653 -18.4187,18.41897 0,10.17243 8.18515,13.65303 18.35732,13.65303 4.13967,0 9.32497,-4.8133 12.40102,-7.11888 5.384,10.60318 15.66121,15.05162 28.3673,15.05162 10.11687,0 19.15795,-7.36256 25.14097,-14.5923 5.75522,9.25565 15.62682,19.1897 27.32828,19.1897 12.68069,0 22.39196,-10.91777 27.7876,-21.48655 8.98658,7.07601 20.15014,14.80846 31.46187,10.10496 16.64124,-6.92044 26.90045,-17.92155 19.98054,-34.56331 z"
           id="path3478" />
        <path
           style="fill:#daf5fd;stroke-width:1.20982099"
           inkscape:connector-curvature="0"
           d="m 332.00588,193.56141 c -3.05303,-7.34139 -8.47698,-12.97622 -15.01404,-16.38882 -0.92128,-17.31883 -13.41464,-28.43742 -30.9626,-28.43742 -11.43,0 -22.54568,10.13593 -28.43028,18.99179 -5.14799,-3.84333 -11.53504,-6.11928 -18.45336,-6.11928 -14.17611,0 -27.47671,11.1715 -27.93603,26.09877 -4.97126,-3.43086 -12.1203,-6.6093 -18.6018,-5.97086 -12.83229,1.26365 -19.29262,12.19359 -20.43879,24.57265 -18.33325,-11.59378 -25.0317,1.14803 -25.0317,6.42991 0,5.2824 4.86833,13.69642 15.0405,13.69642 4.13994,0 6.68549,-4.27144 9.76154,-6.57675 5.384,10.60318 15.66121,15.05161 28.3673,15.05161 10.11687,0 19.15795,-7.36256 25.14097,-14.5923 5.75522,9.25566 15.62682,19.1897 27.32828,19.1897 12.68069,0 22.39196,-10.91776 27.7876,-21.48654 8.98658,7.07601 20.15014,14.80846 31.46187,10.10496 16.64124,-6.92097 26.90045,-17.92208 19.98054,-34.56384 z"
           id="path3480" />
        <path
           style="opacity:0.5;fill:url(#linearGradient3494);stroke-width:1.20982099"
           inkscape:connector-curvature="0"
           d="m 209.71097,174.01558 c -0.42254,1.0496 -0.79428,2.12513 -1.10146,3.22818 -2.20054,-1.51871 -4.63577,-2.70827 -7.2271,-3.50996 -5.76738,-0.0386 -11.76602,0.23918 -17.99801,0.87392 -8.93842,3.73248 -15.24132,12.1703 -16.14726,21.95539 -2.32754,-1.06257 -4.91199,-1.6592 -7.63746,-1.6592 -10.17217,0 -18.4187,8.24653 -18.4187,18.41896 0,10.17244 8.24653,18.41897 18.4187,18.41897 4.13994,0 7.96078,-1.36657 11.03683,-3.67215 5.38427,10.60318 16.39252,17.8689 29.09861,17.8689 10.11687,0 19.15795,-4.60666 25.14097,-11.83666 5.75522,9.25565 16.01497,15.41859 27.71643,15.41859 12.68068,0 23.67095,-7.23688 29.06659,-17.8054 8.98684,7.07575 21.43311,9.21226 32.74484,4.50876 0.72998,-0.30321 1.44198,-0.63208 2.13809,-0.98133 -11.07334,-16.54361 -44.54498,-57.43126 -106.83107,-61.22697 z"
           id="path3482" />
        <path
           style="opacity:0.8;fill:url(#radialGradient3496);stroke-width:1.20982099"
           inkscape:connector-curvature="0"
           d="m 332.00588,193.56141 c -3.05303,-7.34139 -8.47698,-12.97622 -15.01404,-16.38882 -0.92128,-17.31883 -15.25561,-31.07849 -32.80357,-31.07849 -11.43,0 -21.49528,5.8383 -27.37988,14.69443 -5.14773,-3.84334 -11.53478,-6.11928 -18.4531,-6.11928 -14.17638,0 -26.11967,9.5541 -29.74552,22.57451 -4.97125,-3.43085 -11.13313,-5.19192 -17.61463,-4.55348 -12.83229,1.26365 -22.61182,11.49403 -23.758,23.87309 -2.32754,-1.06256 -4.91199,-1.6592 -7.63746,-1.6592 -10.17217,0 -18.4187,8.24653 -18.4187,18.41897 0,10.17243 8.24653,18.41897 18.4187,18.41897 4.13994,0 7.96078,-1.36658 11.03683,-3.67215 5.38427,10.60317 16.39252,17.8689 29.09861,17.8689 10.11687,0 19.15795,-4.60667 25.14097,-11.83667 5.75522,9.25565 16.01497,15.41859 27.71643,15.41859 12.68068,0 23.67095,-7.23688 29.06659,-17.8054 8.98684,7.07576 21.43311,9.21227 32.74484,4.50877 16.64097,-6.92018 24.52184,-26.02098 17.60193,-42.66274 z"
           id="path3484" />
        <path
           style="fill:url(#linearGradient3498);stroke-width:1.20982099"
           inkscape:connector-curvature="0"
           d="m 252.59225,252.10471 c -11.11964,0 -21.35796,-5.1234 -27.99767,-13.8602 -6.57781,6.56934 -15.46517,10.27827 -24.85973,10.27827 -12.37323,0 -23.62835,-6.36588 -30.01036,-16.79231 -3.08478,1.70524 -6.53521,2.59556 -10.12507,2.59556 -11.58082,0 -21.00236,-9.42155 -21.00236,-21.00263 0,-11.58107 9.42154,-21.00262 21.00236,-21.00262 1.89706,0 3.7547,0.2495 5.55466,0.74454 2.56328,-12.26371 12.86377,-21.69293 25.58759,-22.94626 0.95382,-0.0939 1.92114,-0.14155 2.87496,-0.14155 4.76515,0 9.39641,1.16073 13.56995,3.38085 4.96067,-12.67778 17.33259,-21.27277 31.16844,-21.27277 6.3881,0 12.5013,1.7698 17.83239,5.14191 6.69714,-8.6352 16.9807,-13.71705 28.00059,-13.71705 18.35362,0 33.57668,13.97291 35.2769,32.07305 6.68337,3.85207 11.95255,9.83509 14.9262,16.98599 7.45596,17.93054 -1.06521,38.58392 -18.99576,46.04041 -4.31985,1.79652 -8.86407,2.70721 -13.50513,2.70721 0,0 -2.6e-4,0 0,0 -6.87705,-2.6e-4 -13.66096,-2.05105 -19.39925,-5.82215 -6.40185,10.31663 -17.60378,16.60975 -29.89765,16.60975 z m -27.41797,-22.41524 1.89547,3.04879 c 5.52847,8.89106 15.06935,14.19913 25.5225,14.19913 11.34613,0 21.60217,-6.28306 26.76578,-16.39676 l 1.42928,-2.79982 2.46989,1.94496 c 5.29405,4.16824 11.91127,6.46403 18.63275,6.4643 3.95658,0 7.83325,-0.77735 11.52181,-2.31087 15.29927,-6.36244 22.57081,-23.98581 16.2089,-39.2856 -2.69689,-6.4852 -7.6065,-11.8446 -13.82421,-15.09051 l -1.30625,-0.6821 -0.0781,-1.47108 c -0.85434,-16.05545 -14.13034,-28.63215 -30.22388,-28.63215 -10.16318,0 -19.59425,5.06201 -25.22802,13.54084 l -1.51078,2.27304 -2.18704,-1.63274 c -4.91199,-3.66739 -10.75849,-5.606 -16.90741,-5.606 -12.65687,0 -23.86515,8.5053 -27.25658,20.68407 l -0.97287,3.4925 -2.98344,-2.05899 c -4.00553,-2.76436 -8.68283,-4.22566 -13.5255,-4.22566 -0.78528,0 -1.58221,0.0392 -2.36829,0.11668 -11.37099,1.11972 -20.3872,10.17879 -21.43892,21.54 l -0.33549,3.62294 -3.30994,-1.51104 c -2.07248,-0.94588 -4.28122,-1.42584 -6.56484,-1.42584 -8.73178,0 -15.83531,7.1038 -15.83531,15.83558 0,8.73151 7.10353,15.83558 15.83531,15.83558 3.45202,0 6.73285,-1.09141 9.48743,-3.15595 l 2.46062,-1.84441 1.39251,2.74187 c 5.15382,10.14968 15.42097,16.45497 26.79462,16.45497 8.98022,0 17.41831,-3.97298 23.15051,-10.90004 z"
           id="path3486" />
      </g>
    </g>
    <g
       id="g3514"
       transform="matrix(0.30754278,0,0,0.30754278,85.202562,226.4339)"
       style="stroke-width:3.25158024">
      <g
         transform="translate(-345.28626,-85.223553)"
         id="g3512"
         style="stroke-width:3.25158024">
        <path
           id="path3500"
           d="m 332.00588,193.56141 c -3.05303,-7.34139 -8.47698,-12.97622 -15.01404,-16.38882 -0.92128,-17.31883 -15.25561,-31.07849 -32.80357,-31.07849 -11.43,0 -21.49528,5.8383 -27.37988,14.69443 -5.14773,-3.84334 -11.53478,-6.11928 -18.4531,-6.11928 -14.17638,0 -26.11967,9.5541 -29.74552,22.57451 -4.97125,-3.43085 -11.13313,-5.19192 -17.61463,-4.55348 -12.83229,1.26365 -22.61182,11.49403 -23.758,23.87309 -2.32754,-1.06256 -4.91199,-1.6592 -7.63746,-1.6592 -10.17217,0 -18.4187,8.24653 -18.4187,18.41897 0,10.17243 8.24653,18.41897 18.4187,18.41897 4.13994,0 7.96078,-1.36658 11.03683,-3.67215 5.38427,10.60317 16.39252,17.8689 29.09861,17.8689 10.11687,0 19.15795,-4.60667 25.14097,-11.83667 5.75522,9.25565 16.01497,15.41859 27.71643,15.41859 12.68068,0 23.67095,-7.23688 29.06659,-17.8054 8.98684,7.07576 21.43311,9.21227 32.74484,4.50877 16.64097,-6.92018 24.52184,-26.02098 17.60193,-42.66274 z"
           inkscape:connector-curvature="0"
           style="fill:#00c9fc;stroke-width:0.86031395" />
        <path
           id="path3502"
           d="m 332.00588,193.56141 c -3.05303,-7.34139 -8.47698,-12.97622 -15.01404,-16.38882 -0.92128,-17.31883 -15.25561,-31.07849 -32.80357,-31.07849 -11.43,0 -21.49528,5.8383 -27.37988,14.69443 -5.14773,-3.84334 -11.53478,-6.11928 -18.4531,-6.11928 -14.17638,0 -26.11967,9.5541 -29.74552,22.57451 -4.97125,-3.43085 -11.13313,-5.19192 -17.61463,-4.55348 -12.83229,1.26365 -22.61182,11.49403 -23.758,23.87309 -2.32754,-1.06256 -4.91199,-1.6592 -7.63746,-1.6592 -10.17217,0 -18.4187,8.24653 -18.4187,18.41897 0,10.17243 8.18515,13.65303 18.35732,13.65303 4.13967,0 9.32497,-4.8133 12.40102,-7.11888 5.384,10.60318 15.66121,15.05162 28.3673,15.05162 10.11687,0 19.15795,-7.36256 25.14097,-14.5923 5.75522,9.25565 15.62682,19.1897 27.32828,19.1897 12.68069,0 22.39196,-10.91777 27.7876,-21.48655 8.98658,7.07601 20.15014,14.80846 31.46187,10.10496 16.64124,-6.92044 26.90045,-17.92155 19.98054,-34.56331 z"
           inkscape:connector-curvature="0"
           style="fill:url(#linearGradient3516);stroke-width:0.86031395" />
        <path
           id="path3504"
           d="m 332.00588,193.56141 c -3.05303,-7.34139 -8.47698,-12.97622 -15.01404,-16.38882 -0.92128,-17.31883 -13.41464,-28.43742 -30.9626,-28.43742 -11.43,0 -22.54568,10.13593 -28.43028,18.99179 -5.14799,-3.84333 -11.53504,-6.11928 -18.45336,-6.11928 -14.17611,0 -27.47671,11.1715 -27.93603,26.09877 -4.97126,-3.43086 -12.1203,-6.6093 -18.6018,-5.97086 -12.83229,1.26365 -19.29262,12.19359 -20.43879,24.57265 -18.33325,-11.59378 -25.0317,1.14803 -25.0317,6.42991 0,5.2824 4.86833,13.69642 15.0405,13.69642 4.13994,0 6.68549,-4.27144 9.76154,-6.57675 5.384,10.60318 15.66121,15.05161 28.3673,15.05161 10.11687,0 19.15795,-7.36256 25.14097,-14.5923 5.75522,9.25566 15.62682,19.1897 27.32828,19.1897 12.68069,0 22.39196,-10.91776 27.7876,-21.48654 8.98658,7.07601 20.15014,14.80846 31.46187,10.10496 16.64124,-6.92097 26.90045,-17.92208 19.98054,-34.56384 z"
           inkscape:connector-curvature="0"
           style="fill:#daf5fd;stroke-width:0.86031395" />
        <path
           id="path3506"
           d="m 209.71097,174.01558 c -0.42254,1.0496 -0.79428,2.12513 -1.10146,3.22818 -2.20054,-1.51871 -4.63577,-2.70827 -7.2271,-3.50996 -5.76738,-0.0386 -11.76602,0.23918 -17.99801,0.87392 -8.93842,3.73248 -15.24132,12.1703 -16.14726,21.95539 -2.32754,-1.06257 -4.91199,-1.6592 -7.63746,-1.6592 -10.17217,0 -18.4187,8.24653 -18.4187,18.41896 0,10.17244 8.24653,18.41897 18.4187,18.41897 4.13994,0 7.96078,-1.36657 11.03683,-3.67215 5.38427,10.60318 16.39252,17.8689 29.09861,17.8689 10.11687,0 19.15795,-4.60666 25.14097,-11.83666 5.75522,9.25565 16.01497,15.41859 27.71643,15.41859 12.68068,0 23.67095,-7.23688 29.06659,-17.8054 8.98684,7.07575 21.43311,9.21226 32.74484,4.50876 0.72998,-0.30321 1.44198,-0.63208 2.13809,-0.98133 -11.07334,-16.54361 -44.54498,-57.43126 -106.83107,-61.22697 z"
           inkscape:connector-curvature="0"
           style="opacity:0.5;fill:url(#linearGradient3518);stroke-width:0.86031395" />
        <path
           id="path3508"
           d="m 332.00588,193.56141 c -3.05303,-7.34139 -8.47698,-12.97622 -15.01404,-16.38882 -0.92128,-17.31883 -15.25561,-31.07849 -32.80357,-31.07849 -11.43,0 -21.49528,5.8383 -27.37988,14.69443 -5.14773,-3.84334 -11.53478,-6.11928 -18.4531,-6.11928 -14.17638,0 -26.11967,9.5541 -29.74552,22.57451 -4.97125,-3.43085 -11.13313,-5.19192 -17.61463,-4.55348 -12.83229,1.26365 -22.61182,11.49403 -23.758,23.87309 -2.32754,-1.06256 -4.91199,-1.6592 -7.63746,-1.6592 -10.17217,0 -18.4187,8.24653 -18.4187,18.41897 0,10.17243 8.24653,18.41897 18.4187,18.41897 4.13994,0 7.96078,-1.36658 11.03683,-3.67215 5.38427,10.60317 16.39252,17.8689 29.09861,17.8689 10.11687,0 19.15795,-4.60667 25.14097,-11.83667 5.75522,9.25565 16.01497,15.41859 27.71643,15.41859 12.68068,0 23.67095,-7.23688 29.06659,-17.8054 8.98684,7.07576 21.43311,9.21227 32.74484,4.50877 16.64097,-6.92018 24.52184,-26.02098 17.60193,-42.66274 z"
           inkscape:connector-curvature="0"
           style="opacity:0.8;fill:url(#radialGradient3520);stroke-width:0.86031395" />
        <path
           id="path3510"
           d="m 252.59225,252.10471 c -11.11964,0 -21.35796,-5.1234 -27.99767,-13.8602 -6.57781,6.56934 -15.46517,10.27827 -24.85973,10.27827 -12.37323,0 -23.62835,-6.36588 -30.01036,-16.79231 -3.08478,1.70524 -6.53521,2.59556 -10.12507,2.59556 -11.58082,0 -21.00236,-9.42155 -21.00236,-21.00263 0,-11.58107 9.42154,-21.00262 21.00236,-21.00262 1.89706,0 3.7547,0.2495 5.55466,0.74454 2.56328,-12.26371 12.86377,-21.69293 25.58759,-22.94626 0.95382,-0.0939 1.92114,-0.14155 2.87496,-0.14155 4.76515,0 9.39641,1.16073 13.56995,3.38085 4.96067,-12.67778 17.33259,-21.27277 31.16844,-21.27277 6.3881,0 12.5013,1.7698 17.83239,5.14191 6.69714,-8.6352 16.9807,-13.71705 28.00059,-13.71705 18.35362,0 33.57668,13.97291 35.2769,32.07305 6.68337,3.85207 11.95255,9.83509 14.9262,16.98599 7.45596,17.93054 -1.06521,38.58392 -18.99576,46.04041 -4.31985,1.79652 -8.86407,2.70721 -13.50513,2.70721 0,0 -2.6e-4,0 0,0 -6.87705,-2.6e-4 -13.66096,-2.05105 -19.39925,-5.82215 -6.40185,10.31663 -17.60378,16.60975 -29.89765,16.60975 z m -27.41797,-22.41524 1.89547,3.04879 c 5.52847,8.89106 15.06935,14.19913 25.5225,14.19913 11.34613,0 21.60217,-6.28306 26.76578,-16.39676 l 1.42928,-2.79982 2.46989,1.94496 c 5.29405,4.16824 11.91127,6.46403 18.63275,6.4643 3.95658,0 7.83325,-0.77735 11.52181,-2.31087 15.29927,-6.36244 22.57081,-23.98581 16.2089,-39.2856 -2.69689,-6.4852 -7.6065,-11.8446 -13.82421,-15.09051 l -1.30625,-0.6821 -0.0781,-1.47108 c -0.85434,-16.05545 -14.13034,-28.63215 -30.22388,-28.63215 -10.16318,0 -19.59425,5.06201 -25.22802,13.54084 l -1.51078,2.27304 -2.18704,-1.63274 c -4.91199,-3.66739 -10.75849,-5.606 -16.90741,-5.606 -12.65687,0 -23.86515,8.5053 -27.25658,20.68407 l -0.97287,3.4925 -2.98344,-2.05899 c -4.00553,-2.76436 -8.68283,-4.22566 -13.5255,-4.22566 -0.78528,0 -1.58221,0.0392 -2.36829,0.11668 -11.37099,1.11972 -20.3872,10.17879 -21.43892,21.54 l -0.33549,3.62294 -3.30994,-1.51104 c -2.07248,-0.94588 -4.28122,-1.42584 -6.56484,-1.42584 -8.73178,0 -15.83531,7.1038 -15.83531,15.83558 0,8.73151 7.10353,15.83558 15.83531,15.83558 3.45202,0 6.73285,-1.09141 9.48743,-3.15595 l 2.46062,-1.84441 1.39251,2.74187 c 5.15382,10.14968 15.42097,16.45497 26.79462,16.45497 8.98022,0 17.41831,-3.97298 23.15051,-10.90004 z"
           inkscape:connector-curvature="0"
           style="fill:url(#linearGradient3522);stroke-width:0.86031395" />
      </g>
    </g>
    <g
       style="stroke-width:4.21828985"
       transform="matrix(0.22506071,0,0,-0.24970515,168.73424,183.25715)"
       id="g3538">
      <g
         style="stroke-width:4.21828985"
         id="g3536"
         transform="translate(-345.28626,-85.223553)">
        <path
           style="fill:#00c9fc;stroke-width:1.11608922"
           inkscape:connector-curvature="0"
           d="m 332.00588,193.56141 c -3.05303,-7.34139 -8.47698,-12.97622 -15.01404,-16.38882 -0.92128,-17.31883 -15.25561,-31.07849 -32.80357,-31.07849 -11.43,0 -21.49528,5.8383 -27.37988,14.69443 -5.14773,-3.84334 -11.53478,-6.11928 -18.4531,-6.11928 -14.17638,0 -26.11967,9.5541 -29.74552,22.57451 -4.97125,-3.43085 -11.13313,-5.19192 -17.61463,-4.55348 -12.83229,1.26365 -22.61182,11.49403 -23.758,23.87309 -2.32754,-1.06256 -4.91199,-1.6592 -7.63746,-1.6592 -10.17217,0 -18.4187,8.24653 -18.4187,18.41897 0,10.17243 8.24653,18.41897 18.4187,18.41897 4.13994,0 7.96078,-1.36658 11.03683,-3.67215 5.38427,10.60317 16.39252,17.8689 29.09861,17.8689 10.11687,0 19.15795,-4.60667 25.14097,-11.83667 5.75522,9.25565 16.01497,15.41859 27.71643,15.41859 12.68068,0 23.67095,-7.23688 29.06659,-17.8054 8.98684,7.07576 21.43311,9.21227 32.74484,4.50877 16.64097,-6.92018 24.52184,-26.02098 17.60193,-42.66274 z"
           id="path3524" />
        <path
           style="fill:url(#linearGradient3540);stroke-width:1.11608922"
           inkscape:connector-curvature="0"
           d="m 332.00588,193.56141 c -3.05303,-7.34139 -8.47698,-12.97622 -15.01404,-16.38882 -0.92128,-17.31883 -15.25561,-31.07849 -32.80357,-31.07849 -11.43,0 -21.49528,5.8383 -27.37988,14.69443 -5.14773,-3.84334 -11.53478,-6.11928 -18.4531,-6.11928 -14.17638,0 -26.11967,9.5541 -29.74552,22.57451 -4.97125,-3.43085 -11.13313,-5.19192 -17.61463,-4.55348 -12.83229,1.26365 -22.61182,11.49403 -23.758,23.87309 -2.32754,-1.06256 -4.91199,-1.6592 -7.63746,-1.6592 -10.17217,0 -18.4187,8.24653 -18.4187,18.41897 0,10.17243 8.18515,13.65303 18.35732,13.65303 4.13967,0 9.32497,-4.8133 12.40102,-7.11888 5.384,10.60318 15.66121,15.05162 28.3673,15.05162 10.11687,0 19.15795,-7.36256 25.14097,-14.5923 5.75522,9.25565 15.62682,19.1897 27.32828,19.1897 12.68069,0 22.39196,-10.91777 27.7876,-21.48655 8.98658,7.07601 20.15014,14.80846 31.46187,10.10496 16.64124,-6.92044 26.90045,-17.92155 19.98054,-34.56331 z"
           id="path3526" />
        <path
           style="fill:#daf5fd;stroke-width:1.11608922"
           inkscape:connector-curvature="0"
           d="m 332.00588,193.56141 c -3.05303,-7.34139 -8.47698,-12.97622 -15.01404,-16.38882 -0.92128,-17.31883 -13.41464,-28.43742 -30.9626,-28.43742 -11.43,0 -22.54568,10.13593 -28.43028,18.99179 -5.14799,-3.84333 -11.53504,-6.11928 -18.45336,-6.11928 -14.17611,0 -27.47671,11.1715 -27.93603,26.09877 -4.97126,-3.43086 -12.1203,-6.6093 -18.6018,-5.97086 -12.83229,1.26365 -19.29262,12.19359 -20.43879,24.57265 -18.33325,-11.59378 -25.0317,1.14803 -25.0317,6.42991 0,5.2824 4.86833,13.69642 15.0405,13.69642 4.13994,0 6.68549,-4.27144 9.76154,-6.57675 5.384,10.60318 15.66121,15.05161 28.3673,15.05161 10.11687,0 19.15795,-7.36256 25.14097,-14.5923 5.75522,9.25566 15.62682,19.1897 27.32828,19.1897 12.68069,0 22.39196,-10.91776 27.7876,-21.48654 8.98658,7.07601 20.15014,14.80846 31.46187,10.10496 16.64124,-6.92097 26.90045,-17.92208 19.98054,-34.56384 z"
           id="path3528" />
        <path
           style="opacity:0.5;fill:url(#linearGradient3542);stroke-width:1.11608922"
           inkscape:connector-curvature="0"
           d="m 209.71097,174.01558 c -0.42254,1.0496 -0.79428,2.12513 -1.10146,3.22818 -2.20054,-1.51871 -4.63577,-2.70827 -7.2271,-3.50996 -5.76738,-0.0386 -11.76602,0.23918 -17.99801,0.87392 -8.93842,3.73248 -15.24132,12.1703 -16.14726,21.95539 -2.32754,-1.06257 -4.91199,-1.6592 -7.63746,-1.6592 -10.17217,0 -18.4187,8.24653 -18.4187,18.41896 0,10.17244 8.24653,18.41897 18.4187,18.41897 4.13994,0 7.96078,-1.36657 11.03683,-3.67215 5.38427,10.60318 16.39252,17.8689 29.09861,17.8689 10.11687,0 19.15795,-4.60666 25.14097,-11.83666 5.75522,9.25565 16.01497,15.41859 27.71643,15.41859 12.68068,0 23.67095,-7.23688 29.06659,-17.8054 8.98684,7.07575 21.43311,9.21226 32.74484,4.50876 0.72998,-0.30321 1.44198,-0.63208 2.13809,-0.98133 -11.07334,-16.54361 -44.54498,-57.43126 -106.83107,-61.22697 z"
           id="path3530" />
        <path
           style="opacity:0.8;fill:url(#radialGradient3544);stroke-width:1.11608922"
           inkscape:connector-curvature="0"
           d="m 332.00588,193.56141 c -3.05303,-7.34139 -8.47698,-12.97622 -15.01404,-16.38882 -0.92128,-17.31883 -15.25561,-31.07849 -32.80357,-31.07849 -11.43,0 -21.49528,5.8383 -27.37988,14.69443 -5.14773,-3.84334 -11.53478,-6.11928 -18.4531,-6.11928 -14.17638,0 -26.11967,9.5541 -29.74552,22.57451 -4.97125,-3.43085 -11.13313,-5.19192 -17.61463,-4.55348 -12.83229,1.26365 -22.61182,11.49403 -23.758,23.87309 -2.32754,-1.06256 -4.91199,-1.6592 -7.63746,-1.6592 -10.17217,0 -18.4187,8.24653 -18.4187,18.41897 0,10.17243 8.24653,18.41897 18.4187,18.41897 4.13994,0 7.96078,-1.36658 11.03683,-3.67215 5.38427,10.60317 16.39252,17.8689 29.09861,17.8689 10.11687,0 19.15795,-4.60667 25.14097,-11.83667 5.75522,9.25565 16.01497,15.41859 27.71643,15.41859 12.68068,0 23.67095,-7.23688 29.06659,-17.8054 8.98684,7.07576 21.43311,9.21227 32.74484,4.50877 16.64097,-6.92018 24.52184,-26.02098 17.60193,-42.66274 z"
           id="path3532" />
        <path
           style="fill:url(#linearGradient3546);stroke-width:1.11608922"
           inkscape:connector-curvature="0"
           d="m 252.59225,252.10471 c -11.11964,0 -21.35796,-5.1234 -27.99767,-13.8602 -6.57781,6.56934 -15.46517,10.27827 -24.85973,10.27827 -12.37323,0 -23.62835,-6.36588 -30.01036,-16.79231 -3.08478,1.70524 -6.53521,2.59556 -10.12507,2.59556 -11.58082,0 -21.00236,-9.42155 -21.00236,-21.00263 0,-11.58107 9.42154,-21.00262 21.00236,-21.00262 1.89706,0 3.7547,0.2495 5.55466,0.74454 2.56328,-12.26371 12.86377,-21.69293 25.58759,-22.94626 0.95382,-0.0939 1.92114,-0.14155 2.87496,-0.14155 4.76515,0 9.39641,1.16073 13.56995,3.38085 4.96067,-12.67778 17.33259,-21.27277 31.16844,-21.27277 6.3881,0 12.5013,1.7698 17.83239,5.14191 6.69714,-8.6352 16.9807,-13.71705 28.00059,-13.71705 18.35362,0 33.57668,13.97291 35.2769,32.07305 6.68337,3.85207 11.95255,9.83509 14.9262,16.98599 7.45596,17.93054 -1.06521,38.58392 -18.99576,46.04041 -4.31985,1.79652 -8.86407,2.70721 -13.50513,2.70721 0,0 -2.6e-4,0 0,0 -6.87705,-2.6e-4 -13.66096,-2.05105 -19.39925,-5.82215 -6.40185,10.31663 -17.60378,16.60975 -29.89765,16.60975 z m -27.41797,-22.41524 1.89547,3.04879 c 5.52847,8.89106 15.06935,14.19913 25.5225,14.19913 11.34613,0 21.60217,-6.28306 26.76578,-16.39676 l 1.42928,-2.79982 2.46989,1.94496 c 5.29405,4.16824 11.91127,6.46403 18.63275,6.4643 3.95658,0 7.83325,-0.77735 11.52181,-2.31087 15.29927,-6.36244 22.57081,-23.98581 16.2089,-39.2856 -2.69689,-6.4852 -7.6065,-11.8446 -13.82421,-15.09051 l -1.30625,-0.6821 -0.0781,-1.47108 c -0.85434,-16.05545 -14.13034,-28.63215 -30.22388,-28.63215 -10.16318,0 -19.59425,5.06201 -25.22802,13.54084 l -1.51078,2.27304 -2.18704,-1.63274 c -4.91199,-3.66739 -10.75849,-5.606 -16.90741,-5.606 -12.65687,0 -23.86515,8.5053 -27.25658,20.68407 l -0.97287,3.4925 -2.98344,-2.05899 c -4.00553,-2.76436 -8.68283,-4.22566 -13.5255,-4.22566 -0.78528,0 -1.58221,0.0392 -2.36829,0.11668 -11.37099,1.11972 -20.3872,10.17879 -21.43892,21.54 l -0.33549,3.62294 -3.30994,-1.51104 c -2.07248,-0.94588 -4.28122,-1.42584 -6.56484,-1.42584 -8.73178,0 -15.83531,7.1038 -15.83531,15.83558 0,8.73151 7.10353,15.83558 15.83531,15.83558 3.45202,0 6.73285,-1.09141 9.48743,-3.15595 l 2.46062,-1.84441 1.39251,2.74187 c 5.15382,10.14968 15.42097,16.45497 26.79462,16.45497 8.98022,0 17.41831,-3.97298 23.15051,-10.90004 z"
           id="path3534" />
        <path
           id="path1076"
           d="m 332.00588,193.56141 c -3.05303,-7.34139 -8.47698,-12.97622 -15.01404,-16.38882 -0.92128,-17.31883 -15.25561,-31.07849 -32.80357,-31.07849 -11.43,0 -21.49528,5.8383 -27.37988,14.69443 -5.14773,-3.84334 -11.53478,-6.11928 -18.4531,-6.11928 -14.17638,0 -26.11967,9.5541 -29.74552,22.57451 -4.97125,-3.43085 -11.13313,-5.19192 -17.61463,-4.55348 -12.83229,1.26365 -22.61182,11.49403 -23.758,23.87309 -2.32754,-1.06256 -4.91199,-1.6592 -7.63746,-1.6592 -10.17217,0 -18.4187,8.24653 -18.4187,18.41897 0,10.17243 8.24653,18.41897 18.4187,18.41897 4.13994,0 7.96078,-1.36658 11.03683,-3.67215 5.38427,10.60317 16.39252,17.8689 29.09861,17.8689 10.11687,0 19.15795,-4.60667 25.14097,-11.83667 5.75522,9.25565 16.01497,15.41859 27.71643,15.41859 12.68068,0 23.67095,-7.23688 29.06659,-17.8054 8.98684,7.07576 21.43311,9.21227 32.74484,4.50877 16.64097,-6.92018 24.52184,-26.02098 17.60193,-42.66274 z"
           inkscape:connector-curvature="0"
           style="opacity:0.8;fill:url(#radialGradient3544);stroke-width:1.11608922" />
      </g>
    </g>
    <g
       id="g3562"
       transform="matrix(-0.13033815,0,0,0.13033815,31.435496,166.77456)"
       style="stroke-width:7.67235088">
      <g
         transform="translate(-345.28626,-85.223553)"
         id="g3560"
         style="stroke-width:7.67235088">
        <path
           id="path3548"
           d="m 332.00588,193.56141 c -3.05303,-7.34139 -8.47698,-12.97622 -15.01404,-16.38882 -0.92128,-17.31883 -15.25561,-31.07849 -32.80357,-31.07849 -11.43,0 -21.49528,5.8383 -27.37988,14.69443 -5.14773,-3.84334 -11.53478,-6.11928 -18.4531,-6.11928 -14.17638,0 -26.11967,9.5541 -29.74552,22.57451 -4.97125,-3.43085 -11.13313,-5.19192 -17.61463,-4.55348 -12.83229,1.26365 -22.61182,11.49403 -23.758,23.87309 -2.32754,-1.06256 -4.91199,-1.6592 -7.63746,-1.6592 -10.17217,0 -18.4187,8.24653 -18.4187,18.41897 0,10.17243 8.24653,18.41897 18.4187,18.41897 4.13994,0 7.96078,-1.36658 11.03683,-3.67215 5.38427,10.60317 16.39252,17.8689 29.09861,17.8689 10.11687,0 19.15795,-4.60667 25.14097,-11.83667 5.75522,9.25565 16.01497,15.41859 27.71643,15.41859 12.68068,0 23.67095,-7.23688 29.06659,-17.8054 8.98684,7.07576 21.43311,9.21227 32.74484,4.50877 16.64097,-6.92018 24.52184,-26.02098 17.60193,-42.66274 z"
           inkscape:connector-curvature="0"
           style="fill:#00c9fc;stroke-width:2.02997637" />
        <path
           id="path3550"
           d="m 332.00588,193.56141 c -3.05303,-7.34139 -8.47698,-12.97622 -15.01404,-16.38882 -0.92128,-17.31883 -15.25561,-31.07849 -32.80357,-31.07849 -11.43,0 -21.49528,5.8383 -27.37988,14.69443 -5.14773,-3.84334 -11.53478,-6.11928 -18.4531,-6.11928 -14.17638,0 -26.11967,9.5541 -29.74552,22.57451 -4.97125,-3.43085 -11.13313,-5.19192 -17.61463,-4.55348 -12.83229,1.26365 -22.61182,11.49403 -23.758,23.87309 -2.32754,-1.06256 -4.91199,-1.6592 -7.63746,-1.6592 -10.17217,0 -18.4187,8.24653 -18.4187,18.41897 0,10.17243 8.18515,13.65303 18.35732,13.65303 4.13967,0 9.32497,-4.8133 12.40102,-7.11888 5.384,10.60318 15.66121,15.05162 28.3673,15.05162 10.11687,0 19.15795,-7.36256 25.14097,-14.5923 5.75522,9.25565 15.62682,19.1897 27.32828,19.1897 12.68069,0 22.39196,-10.91777 27.7876,-21.48655 8.98658,7.07601 20.15014,14.80846 31.46187,10.10496 16.64124,-6.92044 26.90045,-17.92155 19.98054,-34.56331 z"
           inkscape:connector-curvature="0"
           style="fill:url(#linearGradient3564);stroke-width:2.02997637" />
        <path
           id="path3552"
           d="m 332.00588,193.56141 c -3.05303,-7.34139 -8.47698,-12.97622 -15.01404,-16.38882 -0.92128,-17.31883 -13.41464,-28.43742 -30.9626,-28.43742 -11.43,0 -22.54568,10.13593 -28.43028,18.99179 -5.14799,-3.84333 -11.53504,-6.11928 -18.45336,-6.11928 -14.17611,0 -27.47671,11.1715 -27.93603,26.09877 -4.97126,-3.43086 -12.1203,-6.6093 -18.6018,-5.97086 -12.83229,1.26365 -19.29262,12.19359 -20.43879,24.57265 -18.33325,-11.59378 -25.0317,1.14803 -25.0317,6.42991 0,5.2824 4.86833,13.69642 15.0405,13.69642 4.13994,0 6.68549,-4.27144 9.76154,-6.57675 5.384,10.60318 15.66121,15.05161 28.3673,15.05161 10.11687,0 19.15795,-7.36256 25.14097,-14.5923 5.75522,9.25566 15.62682,19.1897 27.32828,19.1897 12.68069,0 22.39196,-10.91776 27.7876,-21.48654 8.98658,7.07601 20.15014,14.80846 31.46187,10.10496 16.64124,-6.92097 26.90045,-17.92208 19.98054,-34.56384 z"
           inkscape:connector-curvature="0"
           style="fill:#daf5fd;stroke-width:2.02997637" />
        <path
           id="path3554"
           d="m 209.71097,174.01558 c -0.42254,1.0496 -0.79428,2.12513 -1.10146,3.22818 -2.20054,-1.51871 -4.63577,-2.70827 -7.2271,-3.50996 -5.76738,-0.0386 -11.76602,0.23918 -17.99801,0.87392 -8.93842,3.73248 -15.24132,12.1703 -16.14726,21.95539 -2.32754,-1.06257 -4.91199,-1.6592 -7.63746,-1.6592 -10.17217,0 -18.4187,8.24653 -18.4187,18.41896 0,10.17244 8.24653,18.41897 18.4187,18.41897 4.13994,0 7.96078,-1.36657 11.03683,-3.67215 5.38427,10.60318 16.39252,17.8689 29.09861,17.8689 10.11687,0 19.15795,-4.60666 25.14097,-11.83666 5.75522,9.25565 16.01497,15.41859 27.71643,15.41859 12.68068,0 23.67095,-7.23688 29.06659,-17.8054 8.98684,7.07575 21.43311,9.21226 32.74484,4.50876 0.72998,-0.30321 1.44198,-0.63208 2.13809,-0.98133 -11.07334,-16.54361 -44.54498,-57.43126 -106.83107,-61.22697 z"
           inkscape:connector-curvature="0"
           style="opacity:0.5;fill:url(#linearGradient3566);stroke-width:2.02997637" />
        <path
           id="path3556"
           d="m 332.00588,193.56141 c -3.05303,-7.34139 -8.47698,-12.97622 -15.01404,-16.38882 -0.92128,-17.31883 -15.25561,-31.07849 -32.80357,-31.07849 -11.43,0 -21.49528,5.8383 -27.37988,14.69443 -5.14773,-3.84334 -11.53478,-6.11928 -18.4531,-6.11928 -14.17638,0 -26.11967,9.5541 -29.74552,22.57451 -4.97125,-3.43085 -11.13313,-5.19192 -17.61463,-4.55348 -12.83229,1.26365 -22.61182,11.49403 -23.758,23.87309 -2.32754,-1.06256 -4.91199,-1.6592 -7.63746,-1.6592 -10.17217,0 -18.4187,8.24653 -18.4187,18.41897 0,10.17243 8.24653,18.41897 18.4187,18.41897 4.13994,0 7.96078,-1.36658 11.03683,-3.67215 5.38427,10.60317 16.39252,17.8689 29.09861,17.8689 10.11687,0 19.15795,-4.60667 25.14097,-11.83667 5.75522,9.25565 16.01497,15.41859 27.71643,15.41859 12.68068,0 23.67095,-7.23688 29.06659,-17.8054 8.98684,7.07576 21.43311,9.21227 32.74484,4.50877 16.64097,-6.92018 24.52184,-26.02098 17.60193,-42.66274 z"
           inkscape:connector-curvature="0"
           style="opacity:0.8;fill:url(#radialGradient3568);stroke-width:2.02997637" />
        <path
           id="path3558"
           d="m 252.59225,252.10471 c -11.11964,0 -21.35796,-5.1234 -27.99767,-13.8602 -6.57781,6.56934 -15.46517,10.27827 -24.85973,10.27827 -12.37323,0 -23.62835,-6.36588 -30.01036,-16.79231 -3.08478,1.70524 -6.53521,2.59556 -10.12507,2.59556 -11.58082,0 -21.00236,-9.42155 -21.00236,-21.00263 0,-11.58107 9.42154,-21.00262 21.00236,-21.00262 1.89706,0 3.7547,0.2495 5.55466,0.74454 2.56328,-12.26371 12.86377,-21.69293 25.58759,-22.94626 0.95382,-0.0939 1.92114,-0.14155 2.87496,-0.14155 4.76515,0 9.39641,1.16073 13.56995,3.38085 4.96067,-12.67778 17.33259,-21.27277 31.16844,-21.27277 6.3881,0 12.5013,1.7698 17.83239,5.14191 6.69714,-8.6352 16.9807,-13.71705 28.00059,-13.71705 18.35362,0 33.57668,13.97291 35.2769,32.07305 6.68337,3.85207 11.95255,9.83509 14.9262,16.98599 7.45596,17.93054 -1.06521,38.58392 -18.99576,46.04041 -4.31985,1.79652 -8.86407,2.70721 -13.50513,2.70721 0,0 -2.6e-4,0 0,0 -6.87705,-2.6e-4 -13.66096,-2.05105 -19.39925,-5.82215 -6.40185,10.31663 -17.60378,16.60975 -29.89765,16.60975 z m -27.41797,-22.41524 1.89547,3.04879 c 5.52847,8.89106 15.06935,14.19913 25.5225,14.19913 11.34613,0 21.60217,-6.28306 26.76578,-16.39676 l 1.42928,-2.79982 2.46989,1.94496 c 5.29405,4.16824 11.91127,6.46403 18.63275,6.4643 3.95658,0 7.83325,-0.77735 11.52181,-2.31087 15.29927,-6.36244 22.57081,-23.98581 16.2089,-39.2856 -2.69689,-6.4852 -7.6065,-11.8446 -13.82421,-15.09051 l -1.30625,-0.6821 -0.0781,-1.47108 c -0.85434,-16.05545 -14.13034,-28.63215 -30.22388,-28.63215 -10.16318,0 -19.59425,5.06201 -25.22802,13.54084 l -1.51078,2.27304 -2.18704,-1.63274 c -4.91199,-3.66739 -10.75849,-5.606 -16.90741,-5.606 -12.65687,0 -23.86515,8.5053 -27.25658,20.68407 l -0.97287,3.4925 -2.98344,-2.05899 c -4.00553,-2.76436 -8.68283,-4.22566 -13.5255,-4.22566 -0.78528,0 -1.58221,0.0392 -2.36829,0.11668 -11.37099,1.11972 -20.3872,10.17879 -21.43892,21.54 l -0.33549,3.62294 -3.30994,-1.51104 c -2.07248,-0.94588 -4.28122,-1.42584 -6.56484,-1.42584 -8.73178,0 -15.83531,7.1038 -15.83531,15.83558 0,8.73151 7.10353,15.83558 15.83531,15.83558 3.45202,0 6.73285,-1.09141 9.48743,-3.15595 l 2.46062,-1.84441 1.39251,2.74187 c 5.15382,10.14968 15.42097,16.45497 26.79462,16.45497 8.98022,0 17.41831,-3.97298 23.15051,-10.90004 z"
           inkscape:connector-curvature="0"
           style="fill:url(#linearGradient3570);stroke-width:2.02997637" />
      </g>
    </g>
    <g
       transform="matrix(0.36729115,0,0,0.36729115,221.01473,52.871087)"
       id="g1010"
       style="stroke-width:2.72263575">
      <circle
         style="fill:#daf5fd;stroke-width:0.72036403"
         cx="-475.81912"
         cy="180.25313"
         r="20.330053"
         id="circle994" />
      <circle
         style="fill:#daf5fd;stroke-width:0.72036403"
         cx="-441.43573"
         cy="169.89442"
         r="23.714867"
         id="circle996" />
      <circle
         style="fill:#daf5fd;stroke-width:0.72036403"
         cx="-406.23242"
         cy="164.82607"
         r="25.232782"
         id="circle998" />
      <circle
         style="fill:#daf5fd;stroke-width:0.72036403"
         cx="-430.50052"
         cy="193.98157"
         r="25.051542"
         id="circle1000" />
      <circle
         style="fill:#daf5fd;stroke-width:0.72036403"
         cx="-471.09897"
         cy="191.23016"
         r="25.051542"
         id="circle1002" />
      <circle
         style="fill:#daf5fd;stroke-width:0.72036403"
         cx="-413.95984"
         cy="180.11105"
         r="17.500599"
         id="circle1004" />
      <circle
         style="fill:#daf5fd;stroke-width:0.72036403"
         cx="-392.64868"
         cy="185.67604"
         r="25.065302"
         id="circle1006" />
      <circle
         style="fill:#daf5fd;stroke-width:0.72036403"
         cx="-501.92584"
         cy="191.23016"
         r="14.147007"
         id="circle1008" />
    </g>
    <g
       style="stroke-width:5.5781188"
       transform="matrix(-0.17927191,0,0,0.17927191,19.528596,89.738922)"
       id="g3586">
      <g
         style="stroke-width:5.5781188"
         id="g3584"
         transform="translate(-345.28626,-85.223553)">
        <path
           style="fill:#00c9fc;stroke-width:1.47587729"
           inkscape:connector-curvature="0"
           d="m 332.00588,193.56141 c -3.05303,-7.34139 -8.47698,-12.97622 -15.01404,-16.38882 -0.92128,-17.31883 -15.25561,-31.07849 -32.80357,-31.07849 -11.43,0 -21.49528,5.8383 -27.37988,14.69443 -5.14773,-3.84334 -11.53478,-6.11928 -18.4531,-6.11928 -14.17638,0 -26.11967,9.5541 -29.74552,22.57451 -4.97125,-3.43085 -11.13313,-5.19192 -17.61463,-4.55348 -12.83229,1.26365 -22.61182,11.49403 -23.758,23.87309 -2.32754,-1.06256 -4.91199,-1.6592 -7.63746,-1.6592 -10.17217,0 -18.4187,8.24653 -18.4187,18.41897 0,10.17243 8.24653,18.41897 18.4187,18.41897 4.13994,0 7.96078,-1.36658 11.03683,-3.67215 5.38427,10.60317 16.39252,17.8689 29.09861,17.8689 10.11687,0 19.15795,-4.60667 25.14097,-11.83667 5.75522,9.25565 16.01497,15.41859 27.71643,15.41859 12.68068,0 23.67095,-7.23688 29.06659,-17.8054 8.98684,7.07576 21.43311,9.21227 32.74484,4.50877 16.64097,-6.92018 24.52184,-26.02098 17.60193,-42.66274 z"
           id="path3572" />
        <path
           style="fill:url(#linearGradient3588);stroke-width:1.47587729"
           inkscape:connector-curvature="0"
           d="m 332.00588,193.56141 c -3.05303,-7.34139 -8.47698,-12.97622 -15.01404,-16.38882 -0.92128,-17.31883 -15.25561,-31.07849 -32.80357,-31.07849 -11.43,0 -21.49528,5.8383 -27.37988,14.69443 -5.14773,-3.84334 -11.53478,-6.11928 -18.4531,-6.11928 -14.17638,0 -26.11967,9.5541 -29.74552,22.57451 -4.97125,-3.43085 -11.13313,-5.19192 -17.61463,-4.55348 -12.83229,1.26365 -22.61182,11.49403 -23.758,23.87309 -2.32754,-1.06256 -4.91199,-1.6592 -7.63746,-1.6592 -10.17217,0 -18.4187,8.24653 -18.4187,18.41897 0,10.17243 8.18515,13.65303 18.35732,13.65303 4.13967,0 9.32497,-4.8133 12.40102,-7.11888 5.384,10.60318 15.66121,15.05162 28.3673,15.05162 10.11687,0 19.15795,-7.36256 25.14097,-14.5923 5.75522,9.25565 15.62682,19.1897 27.32828,19.1897 12.68069,0 22.39196,-10.91777 27.7876,-21.48655 8.98658,7.07601 20.15014,14.80846 31.46187,10.10496 16.64124,-6.92044 26.90045,-17.92155 19.98054,-34.56331 z"
           id="path3574" />
        <path
           style="fill:#daf5fd;stroke-width:1.47587729"
           inkscape:connector-curvature="0"
           d="m 332.00588,193.56141 c -3.05303,-7.34139 -8.47698,-12.97622 -15.01404,-16.38882 -0.92128,-17.31883 -13.41464,-28.43742 -30.9626,-28.43742 -11.43,0 -22.54568,10.13593 -28.43028,18.99179 -5.14799,-3.84333 -11.53504,-6.11928 -18.45336,-6.11928 -14.17611,0 -27.47671,11.1715 -27.93603,26.09877 -4.97126,-3.43086 -12.1203,-6.6093 -18.6018,-5.97086 -12.83229,1.26365 -19.29262,12.19359 -20.43879,24.57265 -18.33325,-11.59378 -25.0317,1.14803 -25.0317,6.42991 0,5.2824 4.86833,13.69642 15.0405,13.69642 4.13994,0 6.68549,-4.27144 9.76154,-6.57675 5.384,10.60318 15.66121,15.05161 28.3673,15.05161 10.11687,0 19.15795,-7.36256 25.14097,-14.5923 5.75522,9.25566 15.62682,19.1897 27.32828,19.1897 12.68069,0 22.39196,-10.91776 27.7876,-21.48654 8.98658,7.07601 20.15014,14.80846 31.46187,10.10496 16.64124,-6.92097 26.90045,-17.92208 19.98054,-34.56384 z"
           id="path3576" />
        <path
           style="opacity:0.5;fill:url(#linearGradient3590);stroke-width:1.47587729"
           inkscape:connector-curvature="0"
           d="m 209.71097,174.01558 c -0.42254,1.0496 -0.79428,2.12513 -1.10146,3.22818 -2.20054,-1.51871 -4.63577,-2.70827 -7.2271,-3.50996 -5.76738,-0.0386 -11.76602,0.23918 -17.99801,0.87392 -8.93842,3.73248 -15.24132,12.1703 -16.14726,21.95539 -2.32754,-1.06257 -4.91199,-1.6592 -7.63746,-1.6592 -10.17217,0 -18.4187,8.24653 -18.4187,18.41896 0,10.17244 8.24653,18.41897 18.4187,18.41897 4.13994,0 7.96078,-1.36657 11.03683,-3.67215 5.38427,10.60318 16.39252,17.8689 29.09861,17.8689 10.11687,0 19.15795,-4.60666 25.14097,-11.83666 5.75522,9.25565 16.01497,15.41859 27.71643,15.41859 12.68068,0 23.67095,-7.23688 29.06659,-17.8054 8.98684,7.07575 21.43311,9.21226 32.74484,4.50876 0.72998,-0.30321 1.44198,-0.63208 2.13809,-0.98133 -11.07334,-16.54361 -44.54498,-57.43126 -106.83107,-61.22697 z"
           id="path3578" />
        <path
           style="opacity:0.8;fill:url(#radialGradient3592);stroke-width:1.47587729"
           inkscape:connector-curvature="0"
           d="m 332.00588,193.56141 c -3.05303,-7.34139 -8.47698,-12.97622 -15.01404,-16.38882 -0.92128,-17.31883 -15.25561,-31.07849 -32.80357,-31.07849 -11.43,0 -21.49528,5.8383 -27.37988,14.69443 -5.14773,-3.84334 -11.53478,-6.11928 -18.4531,-6.11928 -14.17638,0 -26.11967,9.5541 -29.74552,22.57451 -4.97125,-3.43085 -11.13313,-5.19192 -17.61463,-4.55348 -12.83229,1.26365 -22.61182,11.49403 -23.758,23.87309 -2.32754,-1.06256 -4.91199,-1.6592 -7.63746,-1.6592 -10.17217,0 -18.4187,8.24653 -18.4187,18.41897 0,10.17243 8.24653,18.41897 18.4187,18.41897 4.13994,0 7.96078,-1.36658 11.03683,-3.67215 5.38427,10.60317 16.39252,17.8689 29.09861,17.8689 10.11687,0 19.15795,-4.60667 25.14097,-11.83667 5.75522,9.25565 16.01497,15.41859 27.71643,15.41859 12.68068,0 23.67095,-7.23688 29.06659,-17.8054 8.98684,7.07576 21.43311,9.21227 32.74484,4.50877 16.64097,-6.92018 24.52184,-26.02098 17.60193,-42.66274 z"
           id="path3580" />
        <path
           style="fill:url(#linearGradient3594);stroke-width:1.47587729"
           inkscape:connector-curvature="0"
           d="m 252.59225,252.10471 c -11.11964,0 -21.35796,-5.1234 -27.99767,-13.8602 -6.57781,6.56934 -15.46517,10.27827 -24.85973,10.27827 -12.37323,0 -23.62835,-6.36588 -30.01036,-16.79231 -3.08478,1.70524 -6.53521,2.59556 -10.12507,2.59556 -11.58082,0 -21.00236,-9.42155 -21.00236,-21.00263 0,-11.58107 9.42154,-21.00262 21.00236,-21.00262 1.89706,0 3.7547,0.2495 5.55466,0.74454 2.56328,-12.26371 12.86377,-21.69293 25.58759,-22.94626 0.95382,-0.0939 1.92114,-0.14155 2.87496,-0.14155 4.76515,0 9.39641,1.16073 13.56995,3.38085 4.96067,-12.67778 17.33259,-21.27277 31.16844,-21.27277 6.3881,0 12.5013,1.7698 17.83239,5.14191 6.69714,-8.6352 16.9807,-13.71705 28.00059,-13.71705 18.35362,0 33.57668,13.97291 35.2769,32.07305 6.68337,3.85207 11.95255,9.83509 14.9262,16.98599 7.45596,17.93054 -1.06521,38.58392 -18.99576,46.04041 -4.31985,1.79652 -8.86407,2.70721 -13.50513,2.70721 0,0 -2.6e-4,0 0,0 -6.87705,-2.6e-4 -13.66096,-2.05105 -19.39925,-5.82215 -6.40185,10.31663 -17.60378,16.60975 -29.89765,16.60975 z m -27.41797,-22.41524 1.89547,3.04879 c 5.52847,8.89106 15.06935,14.19913 25.5225,14.19913 11.34613,0 21.60217,-6.28306 26.76578,-16.39676 l 1.42928,-2.79982 2.46989,1.94496 c 5.29405,4.16824 11.91127,6.46403 18.63275,6.4643 3.95658,0 7.83325,-0.77735 11.52181,-2.31087 15.29927,-6.36244 22.57081,-23.98581 16.2089,-39.2856 -2.69689,-6.4852 -7.6065,-11.8446 -13.82421,-15.09051 l -1.30625,-0.6821 -0.0781,-1.47108 c -0.85434,-16.05545 -14.13034,-28.63215 -30.22388,-28.63215 -10.16318,0 -19.59425,5.06201 -25.22802,13.54084 l -1.51078,2.27304 -2.18704,-1.63274 c -4.91199,-3.66739 -10.75849,-5.606 -16.90741,-5.606 -12.65687,0 -23.86515,8.5053 -27.25658,20.68407 l -0.97287,3.4925 -2.98344,-2.05899 c -4.00553,-2.76436 -8.68283,-4.22566 -13.5255,-4.22566 -0.78528,0 -1.58221,0.0392 -2.36829,0.11668 -11.37099,1.11972 -20.3872,10.17879 -21.43892,21.54 l -0.33549,3.62294 -3.30994,-1.51104 c -2.07248,-0.94588 -4.28122,-1.42584 -6.56484,-1.42584 -8.73178,0 -15.83531,7.1038 -15.83531,15.83558 0,8.73151 7.10353,15.83558 15.83531,15.83558 3.45202,0 6.73285,-1.09141 9.48743,-3.15595 l 2.46062,-1.84441 1.39251,2.74187 c 5.15382,10.14968 15.42097,16.45497 26.79462,16.45497 8.98022,0 17.41831,-3.97298 23.15051,-10.90004 z"
           id="path3582" />
        <path
           id="path1048"
           d="m -27.689648,621.83828 c -11.11964,0 -21.35796,-5.1234 -27.99767,-13.8602 -6.57781,6.56934 -15.46517,10.27827 -24.85973,10.27827 -12.37323,0 -23.628352,-6.36588 -30.010362,-16.79231 -3.08478,1.70524 -6.53521,2.59556 -10.12507,2.59556 -11.58082,0 -21.00236,-9.42155 -21.00236,-21.00263 0,-11.58107 9.42154,-21.00262 21.00236,-21.00262 1.89706,0 3.7547,0.2495 5.55466,0.74454 2.56328,-12.26371 12.86377,-21.69293 25.587592,-22.94626 0.95382,-0.0939 1.92114,-0.14155 2.87496,-0.14155 4.76515,0 9.39641,1.16073 13.56995,3.38085 4.96067,-12.67778 17.33259,-21.27277 31.16844,-21.27277 6.3881,0 12.5013,1.7698 17.83239,5.14191 6.69714,-8.6352 16.9807,-13.71705 28.00059,-13.71705 18.35362,0 33.57668,13.97291 35.2769,32.07305 6.68337,3.85207 11.95255,9.83509 14.9262,16.98599 7.45596,17.93054 -1.06521,38.58392 -18.99576,46.04041 -4.31985,1.79652 -8.86407,2.70721 -13.50513,2.70721 0,0 -2.6e-4,0 0,0 -6.87705,-2.6e-4 -13.66096,-2.05105 -19.39925,-5.82215 -6.40185,10.31663 -17.60378,16.60975 -29.89765,16.60975 z m -27.41797,-22.41524 1.89547,3.04879 c 5.52847,8.89106 15.06935,14.19913 25.5225,14.19913 11.34613,0 21.60217,-6.28306 26.76578,-16.39676 l 1.42928,-2.79982 2.46989,1.94496 c 5.29405,4.16824 11.91127,6.46403 18.63275,6.4643 3.95658,0 7.83325,-0.77735 11.52181,-2.31087 15.29927,-6.36244 22.57081,-23.98581 16.2089,-39.2856 -2.69689,-6.4852 -7.6065,-11.8446 -13.82421,-15.09051 l -1.30625,-0.6821 -0.0781,-1.47108 c -0.85434,-16.05545 -14.13034,-28.63215 -30.22388,-28.63215 -10.16318,0 -19.59425,5.06201 -25.22802,13.54084 l -1.51078,2.27304 -2.18704,-1.63274 c -4.91199,-3.66739 -10.75849,-5.606 -16.90741,-5.606 -12.65687,0 -23.86515,8.5053 -27.25658,20.68407 l -0.97287,3.4925 -2.98344,-2.05899 c -4.00553,-2.76436 -8.68283,-4.22566 -13.5255,-4.22566 -0.78528,0 -1.58221,0.0392 -2.36829,0.11668 -11.370992,1.11972 -20.387202,10.17879 -21.438922,21.54 l -0.33549,3.62294 -3.30994,-1.51104 c -2.07248,-0.94588 -4.28122,-1.42584 -6.56484,-1.42584 -8.73178,0 -15.83531,7.1038 -15.83531,15.83558 0,8.73151 7.10353,15.83558 15.83531,15.83558 3.45202,0 6.73285,-1.09141 9.48743,-3.15595 l 2.46062,-1.84441 1.39251,2.74187 c 5.15382,10.14968 15.420972,16.45497 26.794622,16.45497 8.98022,0 17.41831,-3.97298 23.15051,-10.90004 z"
           inkscape:connector-curvature="0"
           style="fill:url(#linearGradient1050);stroke-width:1.47587729" />
      </g>
    </g>
    <g
       style="stroke-width:3.22899771"
       id="g992"
       transform="matrix(-0.30969363,0,0,0.30969363,29.880705,165.83057)">
      <circle
         id="circle976"
         r="20.330053"
         cy="180.25313"
         cx="-475.81912"
         style="fill:#daf5fd;stroke-width:0.85433894" />
      <circle
         id="circle978"
         r="23.714867"
         cy="169.89442"
         cx="-441.43573"
         style="fill:#daf5fd;stroke-width:0.85433894" />
      <circle
         id="circle980"
         r="25.232782"
         cy="164.82607"
         cx="-406.23242"
         style="fill:#daf5fd;stroke-width:0.85433894" />
      <circle
         id="circle982"
         r="25.051542"
         cy="193.98157"
         cx="-430.50052"
         style="fill:#daf5fd;stroke-width:0.85433894" />
      <circle
         id="circle984"
         r="25.051542"
         cy="191.23016"
         cx="-471.09897"
         style="fill:#daf5fd;stroke-width:0.85433894" />
      <circle
         id="circle986"
         r="17.500599"
         cy="180.11105"
         cx="-413.95984"
         style="fill:#daf5fd;stroke-width:0.85433894" />
      <circle
         id="circle988"
         r="25.065302"
         cy="185.67604"
         cx="-392.64868"
         style="fill:#daf5fd;stroke-width:0.85433894" />
      <circle
         id="circle990"
         r="14.147007"
         cy="191.23016"
         cx="-501.92584"
         style="fill:#daf5fd;stroke-width:0.85433894" />
    </g>
    <g
       transform="matrix(0.38169053,0,0,-0.38169053,320.92112,312.79005)"
       id="g1028"
       style="stroke-width:2.61992359">
      <circle
         style="fill:#daf5fd;stroke-width:0.69318807"
         cx="-475.81912"
         cy="180.25313"
         r="20.330053"
         id="circle1012" />
      <circle
         style="fill:#daf5fd;stroke-width:0.69318807"
         cx="-441.43573"
         cy="169.89442"
         r="23.714867"
         id="circle1014" />
      <circle
         style="fill:#daf5fd;stroke-width:0.69318807"
         cx="-406.23242"
         cy="164.82607"
         r="25.232782"
         id="circle1016" />
      <circle
         style="fill:#daf5fd;stroke-width:0.69318807"
         cx="-430.50052"
         cy="193.98157"
         r="25.051542"
         id="circle1018" />
      <circle
         style="fill:#daf5fd;stroke-width:0.69318807"
         cx="-471.09897"
         cy="191.23016"
         r="25.051542"
         id="circle1020" />
      <circle
         style="fill:#daf5fd;stroke-width:0.69318807"
         cx="-413.95984"
         cy="180.11105"
         r="17.500599"
         id="circle1022" />
      <circle
         style="fill:#daf5fd;stroke-width:0.69318807"
         cx="-392.64868"
         cy="185.67604"
         r="25.065302"
         id="circle1024" />
      <circle
         style="fill:#daf5fd;stroke-width:0.69318807"
         cx="-501.92584"
         cy="191.23016"
         r="14.147007"
         id="circle1026" />
    </g>
    <g
       style="stroke-width:2.72263575"
       id="g1046"
       transform="matrix(0.36729115,0,0,0.36729115,271.2614,119.15393)">
      <circle
         id="circle1030"
         r="20.330053"
         cy="180.25313"
         cx="-475.81912"
         style="fill:#daf5fd;stroke-width:0.72036403" />
      <circle
         id="circle1032"
         r="23.714867"
         cy="169.89442"
         cx="-441.43573"
         style="fill:#daf5fd;stroke-width:0.72036403" />
      <circle
         id="circle1034"
         r="25.232782"
         cy="164.82607"
         cx="-406.23242"
         style="fill:#daf5fd;stroke-width:0.72036403" />
      <circle
         id="circle1036"
         r="25.051542"
         cy="193.98157"
         cx="-430.50052"
         style="fill:#daf5fd;stroke-width:0.72036403" />
      <circle
         id="circle1038"
         r="25.051542"
         cy="191.23016"
         cx="-471.09897"
         style="fill:#daf5fd;stroke-width:0.72036403" />
      <circle
         id="circle1040"
         r="17.500599"
         cy="180.11105"
         cx="-413.95984"
         style="fill:#daf5fd;stroke-width:0.72036403" />
      <circle
         id="circle1042"
         r="25.065302"
         cy="185.67604"
         cx="-392.64868"
         style="fill:#daf5fd;stroke-width:0.72036403" />
      <circle
         id="circle1044"
         r="14.147007"
         cy="191.23016"
         cx="-501.92584"
         style="fill:#daf5fd;stroke-width:0.72036403" />
    </g>
    <g
       style="stroke-width:3.98508406"
       transform="matrix(-0.25093575,0,0,0.25093575,104.06265,262.64407)"
       id="g1066">
      <g
         style="stroke-width:3.98508406"
         id="g1064"
         transform="translate(-345.28626,-85.223553)">
        <path
           style="fill:#00c9fc;stroke-width:1.05438685"
           inkscape:connector-curvature="0"
           d="m 332.00588,193.56141 c -3.05303,-7.34139 -8.47698,-12.97622 -15.01404,-16.38882 -0.92128,-17.31883 -15.25561,-31.07849 -32.80357,-31.07849 -11.43,0 -21.49528,5.8383 -27.37988,14.69443 -5.14773,-3.84334 -11.53478,-6.11928 -18.4531,-6.11928 -14.17638,0 -26.11967,9.5541 -29.74552,22.57451 -4.97125,-3.43085 -11.13313,-5.19192 -17.61463,-4.55348 -12.83229,1.26365 -22.61182,11.49403 -23.758,23.87309 -2.32754,-1.06256 -4.91199,-1.6592 -7.63746,-1.6592 -10.17217,0 -18.4187,8.24653 -18.4187,18.41897 0,10.17243 8.24653,18.41897 18.4187,18.41897 4.13994,0 7.96078,-1.36658 11.03683,-3.67215 5.38427,10.60317 16.39252,17.8689 29.09861,17.8689 10.11687,0 19.15795,-4.60667 25.14097,-11.83667 5.75522,9.25565 16.01497,15.41859 27.71643,15.41859 12.68068,0 23.67095,-7.23688 29.06659,-17.8054 8.98684,7.07576 21.43311,9.21227 32.74484,4.50877 16.64097,-6.92018 24.52184,-26.02098 17.60193,-42.66274 z"
           id="path1052" />
        <path
           style="fill:url(#linearGradient1068);stroke-width:1.05438685"
           inkscape:connector-curvature="0"
           d="m 332.00588,193.56141 c -3.05303,-7.34139 -8.47698,-12.97622 -15.01404,-16.38882 -0.92128,-17.31883 -15.25561,-31.07849 -32.80357,-31.07849 -11.43,0 -21.49528,5.8383 -27.37988,14.69443 -5.14773,-3.84334 -11.53478,-6.11928 -18.4531,-6.11928 -14.17638,0 -26.11967,9.5541 -29.74552,22.57451 -4.97125,-3.43085 -11.13313,-5.19192 -17.61463,-4.55348 -12.83229,1.26365 -22.61182,11.49403 -23.758,23.87309 -2.32754,-1.06256 -4.91199,-1.6592 -7.63746,-1.6592 -10.17217,0 -18.4187,8.24653 -18.4187,18.41897 0,10.17243 8.18515,13.65303 18.35732,13.65303 4.13967,0 9.32497,-4.8133 12.40102,-7.11888 5.384,10.60318 15.66121,15.05162 28.3673,15.05162 10.11687,0 19.15795,-7.36256 25.14097,-14.5923 5.75522,9.25565 15.62682,19.1897 27.32828,19.1897 12.68069,0 22.39196,-10.91777 27.7876,-21.48655 8.98658,7.07601 20.15014,14.80846 31.46187,10.10496 16.64124,-6.92044 26.90045,-17.92155 19.98054,-34.56331 z"
           id="path1054" />
        <path
           style="fill:#daf5fd;stroke-width:1.05438685"
           inkscape:connector-curvature="0"
           d="m 332.00588,193.56141 c -3.05303,-7.34139 -8.47698,-12.97622 -15.01404,-16.38882 -0.92128,-17.31883 -13.41464,-28.43742 -30.9626,-28.43742 -11.43,0 -22.54568,10.13593 -28.43028,18.99179 -5.14799,-3.84333 -11.53504,-6.11928 -18.45336,-6.11928 -14.17611,0 -27.47671,11.1715 -27.93603,26.09877 -4.97126,-3.43086 -12.1203,-6.6093 -18.6018,-5.97086 -12.83229,1.26365 -19.29262,12.19359 -20.43879,24.57265 -18.33325,-11.59378 -25.0317,1.14803 -25.0317,6.42991 0,5.2824 4.86833,13.69642 15.0405,13.69642 4.13994,0 6.68549,-4.27144 9.76154,-6.57675 5.384,10.60318 15.66121,15.05161 28.3673,15.05161 10.11687,0 19.15795,-7.36256 25.14097,-14.5923 5.75522,9.25566 15.62682,19.1897 27.32828,19.1897 12.68069,0 22.39196,-10.91776 27.7876,-21.48654 8.98658,7.07601 20.15014,14.80846 31.46187,10.10496 16.64124,-6.92097 26.90045,-17.92208 19.98054,-34.56384 z"
           id="path1056" />
        <path
           style="opacity:0.5;fill:url(#linearGradient1070);stroke-width:1.05438685"
           inkscape:connector-curvature="0"
           d="m 209.71097,174.01558 c -0.42254,1.0496 -0.79428,2.12513 -1.10146,3.22818 -2.20054,-1.51871 -4.63577,-2.70827 -7.2271,-3.50996 -5.76738,-0.0386 -11.76602,0.23918 -17.99801,0.87392 -8.93842,3.73248 -15.24132,12.1703 -16.14726,21.95539 -2.32754,-1.06257 -4.91199,-1.6592 -7.63746,-1.6592 -10.17217,0 -18.4187,8.24653 -18.4187,18.41896 0,10.17244 8.24653,18.41897 18.4187,18.41897 4.13994,0 7.96078,-1.36657 11.03683,-3.67215 5.38427,10.60318 16.39252,17.8689 29.09861,17.8689 10.11687,0 19.15795,-4.60666 25.14097,-11.83666 5.75522,9.25565 16.01497,15.41859 27.71643,15.41859 12.68068,0 23.67095,-7.23688 29.06659,-17.8054 8.98684,7.07575 21.43311,9.21226 32.74484,4.50876 0.72998,-0.30321 1.44198,-0.63208 2.13809,-0.98133 -11.07334,-16.54361 -44.54498,-57.43126 -106.83107,-61.22697 z"
           id="path1058" />
        <path
           style="opacity:0.8;fill:url(#radialGradient1072);stroke-width:1.05438685"
           inkscape:connector-curvature="0"
           d="m 332.00588,193.56141 c -3.05303,-7.34139 -8.47698,-12.97622 -15.01404,-16.38882 -0.92128,-17.31883 -15.25561,-31.07849 -32.80357,-31.07849 -11.43,0 -21.49528,5.8383 -27.37988,14.69443 -5.14773,-3.84334 -11.53478,-6.11928 -18.4531,-6.11928 -14.17638,0 -26.11967,9.5541 -29.74552,22.57451 -4.97125,-3.43085 -11.13313,-5.19192 -17.61463,-4.55348 -12.83229,1.26365 -22.61182,11.49403 -23.758,23.87309 -2.32754,-1.06256 -4.91199,-1.6592 -7.63746,-1.6592 -10.17217,0 -18.4187,8.24653 -18.4187,18.41897 0,10.17243 8.24653,18.41897 18.4187,18.41897 4.13994,0 7.96078,-1.36658 11.03683,-3.67215 5.38427,10.60317 16.39252,17.8689 29.09861,17.8689 10.11687,0 19.15795,-4.60667 25.14097,-11.83667 5.75522,9.25565 16.01497,15.41859 27.71643,15.41859 12.68068,0 23.67095,-7.23688 29.06659,-17.8054 8.98684,7.07576 21.43311,9.21227 32.74484,4.50877 16.64097,-6.92018 24.52184,-26.02098 17.60193,-42.66274 z"
           id="path1060" />
        <path
           style="fill:url(#linearGradient1074);stroke-width:1.05438685"
           inkscape:connector-curvature="0"
           d="m 252.59225,252.10471 c -11.11964,0 -21.35796,-5.1234 -27.99767,-13.8602 -6.57781,6.56934 -15.46517,10.27827 -24.85973,10.27827 -12.37323,0 -23.62835,-6.36588 -30.01036,-16.79231 -3.08478,1.70524 -6.53521,2.59556 -10.12507,2.59556 -11.58082,0 -21.00236,-9.42155 -21.00236,-21.00263 0,-11.58107 9.42154,-21.00262 21.00236,-21.00262 1.89706,0 3.7547,0.2495 5.55466,0.74454 2.56328,-12.26371 12.86377,-21.69293 25.58759,-22.94626 0.95382,-0.0939 1.92114,-0.14155 2.87496,-0.14155 4.76515,0 9.39641,1.16073 13.56995,3.38085 4.96067,-12.67778 17.33259,-21.27277 31.16844,-21.27277 6.3881,0 12.5013,1.7698 17.83239,5.14191 6.69714,-8.6352 16.9807,-13.71705 28.00059,-13.71705 18.35362,0 33.57668,13.97291 35.2769,32.07305 6.68337,3.85207 11.95255,9.83509 14.9262,16.98599 7.45596,17.93054 -1.06521,38.58392 -18.99576,46.04041 -4.31985,1.79652 -8.86407,2.70721 -13.50513,2.70721 0,0 -2.6e-4,0 0,0 -6.87705,-2.6e-4 -13.66096,-2.05105 -19.39925,-5.82215 -6.40185,10.31663 -17.60378,16.60975 -29.89765,16.60975 z m -27.41797,-22.41524 1.89547,3.04879 c 5.52847,8.89106 15.06935,14.19913 25.5225,14.19913 11.34613,0 21.60217,-6.28306 26.76578,-16.39676 l 1.42928,-2.79982 2.46989,1.94496 c 5.29405,4.16824 11.91127,6.46403 18.63275,6.4643 3.95658,0 7.83325,-0.77735 11.52181,-2.31087 15.29927,-6.36244 22.57081,-23.98581 16.2089,-39.2856 -2.69689,-6.4852 -7.6065,-11.8446 -13.82421,-15.09051 l -1.30625,-0.6821 -0.0781,-1.47108 c -0.85434,-16.05545 -14.13034,-28.63215 -30.22388,-28.63215 -10.16318,0 -19.59425,5.06201 -25.22802,13.54084 l -1.51078,2.27304 -2.18704,-1.63274 c -4.91199,-3.66739 -10.75849,-5.606 -16.90741,-5.606 -12.65687,0 -23.86515,8.5053 -27.25658,20.68407 l -0.97287,3.4925 -2.98344,-2.05899 c -4.00553,-2.76436 -8.68283,-4.22566 -13.5255,-4.22566 -0.78528,0 -1.58221,0.0392 -2.36829,0.11668 -11.37099,1.11972 -20.3872,10.17879 -21.43892,21.54 l -0.33549,3.62294 -3.30994,-1.51104 c -2.07248,-0.94588 -4.28122,-1.42584 -6.56484,-1.42584 -8.73178,0 -15.83531,7.1038 -15.83531,15.83558 0,8.73151 7.10353,15.83558 15.83531,15.83558 3.45202,0 6.73285,-1.09141 9.48743,-3.15595 l 2.46062,-1.84441 1.39251,2.74187 c 5.15382,10.14968 15.42097,16.45497 26.79462,16.45497 8.98022,0 17.41831,-3.97298 23.15051,-10.90004 z"
           id="path1062" />
      </g>
    </g>
    <g
       style="stroke-width:3.76593995"
       transform="matrix(0.26553796,0,0,0.26553796,46.566081,126.98477)"
       id="g1094">
      <g
         style="stroke-width:3.76593995"
         id="g1092"
         transform="translate(-345.28626,-85.223553)">
        <path
           style="fill:#00c9fc;stroke-width:0.99640507"
           inkscape:connector-curvature="0"
           d="m 332.00588,193.56141 c -3.05303,-7.34139 -8.47698,-12.97622 -15.01404,-16.38882 -0.92128,-17.31883 -15.25561,-31.07849 -32.80357,-31.07849 -11.43,0 -21.49528,5.8383 -27.37988,14.69443 -5.14773,-3.84334 -11.53478,-6.11928 -18.4531,-6.11928 -14.17638,0 -26.11967,9.5541 -29.74552,22.57451 -4.97125,-3.43085 -11.13313,-5.19192 -17.61463,-4.55348 -12.83229,1.26365 -22.61182,11.49403 -23.758,23.87309 -2.32754,-1.06256 -4.91199,-1.6592 -7.63746,-1.6592 -10.17217,0 -18.4187,8.24653 -18.4187,18.41897 0,10.17243 8.24653,18.41897 18.4187,18.41897 4.13994,0 7.96078,-1.36658 11.03683,-3.67215 5.38427,10.60317 16.39252,17.8689 29.09861,17.8689 10.11687,0 19.15795,-4.60667 25.14097,-11.83667 5.75522,9.25565 16.01497,15.41859 27.71643,15.41859 12.68068,0 23.67095,-7.23688 29.06659,-17.8054 8.98684,7.07576 21.43311,9.21227 32.74484,4.50877 16.64097,-6.92018 24.52184,-26.02098 17.60193,-42.66274 z"
           id="path1080" />
        <path
           style="fill:url(#linearGradient1096);stroke-width:0.99640507"
           inkscape:connector-curvature="0"
           d="m 332.00588,193.56141 c -3.05303,-7.34139 -8.47698,-12.97622 -15.01404,-16.38882 -0.92128,-17.31883 -15.25561,-31.07849 -32.80357,-31.07849 -11.43,0 -21.49528,5.8383 -27.37988,14.69443 -5.14773,-3.84334 -11.53478,-6.11928 -18.4531,-6.11928 -14.17638,0 -26.11967,9.5541 -29.74552,22.57451 -4.97125,-3.43085 -11.13313,-5.19192 -17.61463,-4.55348 -12.83229,1.26365 -22.61182,11.49403 -23.758,23.87309 -2.32754,-1.06256 -4.91199,-1.6592 -7.63746,-1.6592 -10.17217,0 -18.4187,8.24653 -18.4187,18.41897 0,10.17243 8.18515,13.65303 18.35732,13.65303 4.13967,0 9.32497,-4.8133 12.40102,-7.11888 5.384,10.60318 15.66121,15.05162 28.3673,15.05162 10.11687,0 19.15795,-7.36256 25.14097,-14.5923 5.75522,9.25565 15.62682,19.1897 27.32828,19.1897 12.68069,0 22.39196,-10.91777 27.7876,-21.48655 8.98658,7.07601 20.15014,14.80846 31.46187,10.10496 16.64124,-6.92044 26.90045,-17.92155 19.98054,-34.56331 z"
           id="path1082" />
        <path
           style="fill:#daf5fd;stroke-width:0.99640507"
           inkscape:connector-curvature="0"
           d="m 332.00588,193.56141 c -3.05303,-7.34139 -8.47698,-12.97622 -15.01404,-16.38882 -0.92128,-17.31883 -13.41464,-28.43742 -30.9626,-28.43742 -11.43,0 -22.54568,10.13593 -28.43028,18.99179 -5.14799,-3.84333 -11.53504,-6.11928 -18.45336,-6.11928 -14.17611,0 -27.47671,11.1715 -27.93603,26.09877 -4.97126,-3.43086 -12.1203,-6.6093 -18.6018,-5.97086 -12.83229,1.26365 -19.29262,12.19359 -20.43879,24.57265 -18.33325,-11.59378 -25.0317,1.14803 -25.0317,6.42991 0,5.2824 4.86833,13.69642 15.0405,13.69642 4.13994,0 6.68549,-4.27144 9.76154,-6.57675 5.384,10.60318 15.66121,15.05161 28.3673,15.05161 10.11687,0 19.15795,-7.36256 25.14097,-14.5923 5.75522,9.25566 15.62682,19.1897 27.32828,19.1897 12.68069,0 22.39196,-10.91776 27.7876,-21.48654 8.98658,7.07601 20.15014,14.80846 31.46187,10.10496 16.64124,-6.92097 26.90045,-17.92208 19.98054,-34.56384 z"
           id="path1084" />
        <path
           style="opacity:0.5;fill:url(#linearGradient1098);stroke-width:0.99640507"
           inkscape:connector-curvature="0"
           d="m 209.71097,174.01558 c -0.42254,1.0496 -0.79428,2.12513 -1.10146,3.22818 -2.20054,-1.51871 -4.63577,-2.70827 -7.2271,-3.50996 -5.76738,-0.0386 -11.76602,0.23918 -17.99801,0.87392 -8.93842,3.73248 -15.24132,12.1703 -16.14726,21.95539 -2.32754,-1.06257 -4.91199,-1.6592 -7.63746,-1.6592 -10.17217,0 -18.4187,8.24653 -18.4187,18.41896 0,10.17244 8.24653,18.41897 18.4187,18.41897 4.13994,0 7.96078,-1.36657 11.03683,-3.67215 5.38427,10.60318 16.39252,17.8689 29.09861,17.8689 10.11687,0 19.15795,-4.60666 25.14097,-11.83666 5.75522,9.25565 16.01497,15.41859 27.71643,15.41859 12.68068,0 23.67095,-7.23688 29.06659,-17.8054 8.98684,7.07575 21.43311,9.21226 32.74484,4.50876 0.72998,-0.30321 1.44198,-0.63208 2.13809,-0.98133 -11.07334,-16.54361 -44.54498,-57.43126 -106.83107,-61.22697 z"
           id="path1086" />
        <path
           style="opacity:0.8;fill:url(#radialGradient1100);stroke-width:0.99640507"
           inkscape:connector-curvature="0"
           d="m 332.00588,193.56141 c -3.05303,-7.34139 -8.47698,-12.97622 -15.01404,-16.38882 -0.92128,-17.31883 -15.25561,-31.07849 -32.80357,-31.07849 -11.43,0 -21.49528,5.8383 -27.37988,14.69443 -5.14773,-3.84334 -11.53478,-6.11928 -18.4531,-6.11928 -14.17638,0 -26.11967,9.5541 -29.74552,22.57451 -4.97125,-3.43085 -11.13313,-5.19192 -17.61463,-4.55348 -12.83229,1.26365 -22.61182,11.49403 -23.758,23.87309 -2.32754,-1.06256 -4.91199,-1.6592 -7.63746,-1.6592 -10.17217,0 -18.4187,8.24653 -18.4187,18.41897 0,10.17243 8.24653,18.41897 18.4187,18.41897 4.13994,0 7.96078,-1.36658 11.03683,-3.67215 5.38427,10.60317 16.39252,17.8689 29.09861,17.8689 10.11687,0 19.15795,-4.60667 25.14097,-11.83667 5.75522,9.25565 16.01497,15.41859 27.71643,15.41859 12.68068,0 23.67095,-7.23688 29.06659,-17.8054 8.98684,7.07576 21.43311,9.21227 32.74484,4.50877 16.64097,-6.92018 24.52184,-26.02098 17.60193,-42.66274 z"
           id="path1088" />
        <path
           style="fill:url(#linearGradient1102);stroke-width:0.99640507"
           inkscape:connector-curvature="0"
           d="m 252.59225,252.10471 c -11.11964,0 -21.35796,-5.1234 -27.99767,-13.8602 -6.57781,6.56934 -15.46517,10.27827 -24.85973,10.27827 -12.37323,0 -23.62835,-6.36588 -30.01036,-16.79231 -3.08478,1.70524 -6.53521,2.59556 -10.12507,2.59556 -11.58082,0 -21.00236,-9.42155 -21.00236,-21.00263 0,-11.58107 9.42154,-21.00262 21.00236,-21.00262 1.89706,0 3.7547,0.2495 5.55466,0.74454 2.56328,-12.26371 12.86377,-21.69293 25.58759,-22.94626 0.95382,-0.0939 1.92114,-0.14155 2.87496,-0.14155 4.76515,0 9.39641,1.16073 13.56995,3.38085 4.96067,-12.67778 17.33259,-21.27277 31.16844,-21.27277 6.3881,0 12.5013,1.7698 17.83239,5.14191 6.69714,-8.6352 16.9807,-13.71705 28.00059,-13.71705 18.35362,0 33.57668,13.97291 35.2769,32.07305 6.68337,3.85207 11.95255,9.83509 14.9262,16.98599 7.45596,17.93054 -1.06521,38.58392 -18.99576,46.04041 -4.31985,1.79652 -8.86407,2.70721 -13.50513,2.70721 0,0 -2.6e-4,0 0,0 -6.87705,-2.6e-4 -13.66096,-2.05105 -19.39925,-5.82215 -6.40185,10.31663 -17.60378,16.60975 -29.89765,16.60975 z m -27.41797,-22.41524 1.89547,3.04879 c 5.52847,8.89106 15.06935,14.19913 25.5225,14.19913 11.34613,0 21.60217,-6.28306 26.76578,-16.39676 l 1.42928,-2.79982 2.46989,1.94496 c 5.29405,4.16824 11.91127,6.46403 18.63275,6.4643 3.95658,0 7.83325,-0.77735 11.52181,-2.31087 15.29927,-6.36244 22.57081,-23.98581 16.2089,-39.2856 -2.69689,-6.4852 -7.6065,-11.8446 -13.82421,-15.09051 l -1.30625,-0.6821 -0.0781,-1.47108 c -0.85434,-16.05545 -14.13034,-28.63215 -30.22388,-28.63215 -10.16318,0 -19.59425,5.06201 -25.22802,13.54084 l -1.51078,2.27304 -2.18704,-1.63274 c -4.91199,-3.66739 -10.75849,-5.606 -16.90741,-5.606 -12.65687,0 -23.86515,8.5053 -27.25658,20.68407 l -0.97287,3.4925 -2.98344,-2.05899 c -4.00553,-2.76436 -8.68283,-4.22566 -13.5255,-4.22566 -0.78528,0 -1.58221,0.0392 -2.36829,0.11668 -11.37099,1.11972 -20.3872,10.17879 -21.43892,21.54 l -0.33549,3.62294 -3.30994,-1.51104 c -2.07248,-0.94588 -4.28122,-1.42584 -6.56484,-1.42584 -8.73178,0 -15.83531,7.1038 -15.83531,15.83558 0,8.73151 7.10353,15.83558 15.83531,15.83558 3.45202,0 6.73285,-1.09141 9.48743,-3.15595 l 2.46062,-1.84441 1.39251,2.74187 c 5.15382,10.14968 15.42097,16.45497 26.79462,16.45497 8.98022,0 17.41831,-3.97298 23.15051,-10.90004 z"
           id="path1090" />
      </g>
    </g>
  </g>
</svg>
